<mxfile host="65bd71144e">
    <diagram id="a3SCPZ0MnLWnex_sSUEO" name="Page-1">
        <mxGraphModel dx="1672" dy="717" grid="0" gridSize="10" guides="1" tooltips="1" connect="1" arrows="1" fold="1" page="0" pageScale="1" pageWidth="850" pageHeight="1100" math="0" shadow="0">
            <root>
                <mxCell id="0"/>
                <mxCell id="1" parent="0"/>
                <mxCell id="5" value="" style="shape=image;verticalLabelPosition=bottom;labelBackgroundColor=default;verticalAlign=top;aspect=fixed;imageAspect=0;image=data:image/png,iVBORw0KGgoAAAANSUhEUgAABREAAAJzCAYAAACYmVTAAAAAAXNSR0IArs4c6QAAAARnQU1BAACxjwv8YQUAAAAJcEhZcwAAFiUAABYlAUlSJPAAAP+lSURBVHhe7N0HfBRF+8DxX+4uvfeEVGrovXcUUBR7QV/1tYAFBX1t2HvvYkEUkI5SpffeOyQkEFJJIb2Xy/X8dy9Hsf5ViqLP9/3sx9vZvZnZDffcO3OzM071CoQQQgghhBBCCCGEEOJXaBz/FUIIIYQQQgghhBBCiF8knYhCCCGEEEIIIYQQQojfJJ2IQgghhBBCCCGEEEKI3ySdiEIIIYQQQgghhBBCiN8knYhCCCGEEEIIIYQQQojfJJ2IQgghhBBCCCGEEEKI3ySdiEIIIYQQQgghhBBCiN8knYhCCCGEEEIIIYQQQojfJJ2IQgghhBBCCCGEEEKI3+RUr3C8PmcGg4HzmJ0Q4l9Gq9Xi4uLi2BPnqq6uzvFKCPFPpdFocHV1dewJIYQQQghx4ZzXTsSZM2dSXV2NTqdzpAghxO/n5ubGf//7X8eeOBfqjzoTJkzAy8vLkSKE+CdSf3wZOXKkY08IIYQQQogL57x2Is6aNYtBgwZJo1UI8YepnV7Lly+XxvB5ot7PGTNmMGLECEeKEOKfxmw2s3jxYkaNGuVIEUIIIYQQ4sKRORGFEEIIIYQQQgghhBC/SToRhRBCCCGEEEIIIYQQv0k6EYUQQgghhBBCCCGEEL9JOhGFEEIIIYQQQgghhBC/SToRhRBCCCGEEEIIIYQQv0k6EYUQQgghhBBCCCGEEL9JOhEV1XlJ7Ni6iU2HMzCYbY7Uv4i5lsxDu9m95xhVeosjUQgh/j1q846zc9NuMnKrHSnnmcVA7pF97NqVSHn13yfO5qfsYdOmTexPL/rFfSGEEEIIIYT4KznVKxyvz9msWbMYNGgQXl5ejhRFVQ7Tp03lQFo9Q+++hyu6xODccIBt06ex9EAazYbezZ1XdMGz4cBFt2vy/dz24nycBjzJvsnPEOzt4jhysdVTdmwd/7vrfjbqOzP+28+5vmckWsdRIf7JDAYDy5cvZ+TIkY4UcS7U+zljxgxGjBjhSDmj3mahuiCT7VuWsyMxk+pqNwKDmnP1rZfRsUUTdBonx5kXn9VUyvzn7uDJ6elc9eRnfPbcMNwdx86PeioztvPsXXeztCiOt76ewJ2XNUbnOPqn2aykbJ/HFwt2ORIaaHTODPnv01zdMcyR8susplqmPN6bcXML6P34FJY9Pej0fq/HJ/JpnzpmLt9NlcnxhrO5BTN0xD1c2SXqnK6j3mrGYDSidfXCRb54Lglms5nFixczatQoR4oQQgghhBAXzoUfiWioYMvqH5TG7AIOnyhVmm+nGDi2ZTUzlUbupsOZnL+uzEuZE/5hjRkweBhXXz6A5qG+0oEohDjv8g4s5eGRt/HQk+8wceIMJT5/w2fjX+Keu0fz/sI91JisjjMvPq3Gg1Zd+3PFZUPp07YJro7088cJn6Ao+l1+JVcPHkTbyIDzE2frLRQnb7d33J69zZr9HfEnDY6T/iwreYnbmDPzx3mf3r5bSHxW+Vnfr3+CrZqDCyby1KO3MXV7liNRCCGEEEIIIc742z3OXG+zYtDrqaqqsm91BtOPOhgN+oZ0g9mKxdBwXm2d2X7MZjJQo76vtg7LT1pTZqOB6urqhvPV49bfbm79f/VQR7NYjPrT5ZktFmrU/Gv12NQTlc2i1qemxv7+mppazD8p02Yxoz99vMZ+vN4nhltfeJ8P3nmAtrFnRnT+Vv1t5rqGeir3wWY1N5yn5Gf8f65RCPHvU5d/gPFvvMnyXSfwadSNp156l/Efvs09V7elImMvn73xDKsP5ikRzkZdTUP8M5otyutq9EaLvaNKHbFWp8aZaiXOWGyYDA1xrM7R+VhvVc7/lfh5Jl4paUo+9rip5GNQ8rHTudPyujF8OvkdRlzRDI1NOceRz9lbrcFij7NWs/F0nK1W8jGfysdBjYmn4uzp456RXPv0u3z4wSN0aubDqXGXFpPxJ3H2TF7/b71P09Co+VBeHj+e8cr2yccfclXHUMx1tWfq7WA89X32szx+ypkWA//DGx825HdTr1ClGC3Nht5jL2P8uy9ydWd11HrD/aitbci3ps7g+D6yUuu4B6f+RmrHpF69HjXNaKasJJHJ73zB3GUHyS2osF+nEEIIIYQQQpztb9eJmLZ7LS8/fB/9evemT5/+jHz4FeZtO6Y0Ym2Y9eVMeXY4PfpfzuNfz+e79x9nUL/ejBj1HAeSs1g35X1uGtCPQbeMYtKaBPSOtlJl1jGmvPsCV192GT169OD6G+/li+/WUFRlbDjhF6TtWafUY+RZ9XiZeVuPnp4z0VCVzYL3n+AGpfyBN49k/OSpPHLnFfS4/n5WJRZjrSxh6TfvcMN119jLHDRoGG9+PI+cyoaGmVlp5K3//mvuvfF6x/Gr+HL+Pk4mbWbMzT3occP9rDxSbD+3MjuZb99TGomO+l934z18Pmc1hY76n9j0NVdd3pcrnvycLYvGc+fVynlKfo8q5Z1wlCeEEGDh0MrZLNmbgUtYV577+FOeHPMAd48azcsfvMct7WMwnDzG1O+3UFx3ki/HXkfv/oN4+ZOveeu+m3n43cXUYCRxzWQevfZy+g68kgfemsIXrz9Ij74DGDtlK9hsnNi6iEcfuIu+ffvSu3dfHnjkdbYfK0LtK8vbNYvrr+jPZWM+YMMPE7hHyafHwCt46P3ZpJYZsRpr+e6Nmx35baEubxePXq/EViX2nb3d/fo0CgtLWTftQ269qSGODlTyeeW92WSUNsRGi6GW7Yum8cAIJT/H8Y9mbCE3ZS9P/UfJ55r/Mm9/vv3c6vxMZn78KtcNHmw/d/g1d/Dx1GXklDeMIszfPZsbrlTq/fB7bFg8gXuvU85T8ntQKS+19OyRhhp8gzty8913c7ey3XXHf+gYAXvmvMaV/Xtw2wtfU1BtxmrSM/fNW+jdbyDvLIp3vPfXaIlo24877rqb/975H3o0cVeK0RHcYbC9jLvvuJmOsQFY9Pksn/6Wcj8G0kP57rri/oeZtTUJQ0U+33/0CP379OCO/31GeoWJ2vxdPHHjlfQefBPjZ37Hi6PuZmm28jcy6pXv2VsZNPo9skrrHOULIYQQQgghxEXtRFQae9M/4qlHH+VR+/YS8w+mK83RU2zk7JjH0/97lG+WbqKkopKKsiLWLv6KJ5S0JfuyUIfA6CvyyM85wZppn/PhjJXknsxj59qZPDT2f7w0cQZH8vJI37mKT9/9mCP5BvQFyXz62v94fvw0Uk4W2EePHDmwhlfHPcwLk9dQafjpY3tKPXbOZ9z/xir12HhWPSby+OOP2eths9SyaeZHPP/F9xzKL6M4cQcTlPI2KteTn19ArdGKsaqA1IJahl79H55+4n90iahjwievMXFjsvJ+PZtnf8Cjz73B+sOJ9lE0+flp7EnJtI9GLCvOV/bzlXwsSv2P85lS/+c+narUP99e/8QDa3ntGaX+k1ZTodTfZqolTzk/feN3vPvBZxxMz6EwNYEfPn2NBXtzHdclhPjXM5Vw5GCqEjeg2YChDO3SFBed+jXghE9AG668qj1YrRQdS6KozkZtaQEnszNZNHMi3+9Jo7SmjrwDy3nxxTeZH3+CksIsNk16n28X7yA/L5+CyjpsVhPZGUn4NO7HY489wahrO7N7zRSe+mg6BdVGJV7pyS/I48S2Rbz/wafsSc2mMD2J5Z+9zpxt6fZqGioLHPkZ0Pk04Zb7x/Dss88w8paBuNXkU1gFsY2b4GIt53hOKf2H3MrTTz1B32bwzWevMX7lYeqtBnbN+5SHn3qJVXsPU63E2aLCE+xJTrWPnqxU46xSRpXBgrE0k8lvP864DyeRlHNSicnVHEvYzNsvPsozXyyiRG9R6l1HgRJnT2xfzPvvf8rulCx7vVco5c3elmavdwMbealreM3xXffkm9+SVqbHVFdtf39haYVjVGa9/TrV2F1S0zCa/lzU29Tr/ZynX/6a4sBBjH3oLmIytvDqky+zOc+F4SNuopnWxNZFU/h+6152LpjPmiPZRHYezi3XDOaG/95D+xA/NFodfa67jyf/M/QvnB9YCCGEEEII8Xd0ETsR9cRvXXHWPE5z2Xei0P5onJ21iFUzZ7ErpZymlz/IjKXb2Lp0Jg8PboExO5HZS3ZSfvopLBtRba7m22XrefXePmjMRk6W1/HgZ98x+40naOpmUxpquZwsLiF17wqWLt+HW1g3nvtyKTs2r+Xrp24gtL6K9QuWklbxk5EWtiJWK/XYeVypx2UPOOoxi0eGxGFS6/GD0lguOsyCySsoswRw5dgvWLVhM+8/eiM+ljNdou5Rrbjn7rsY0KkFgUH+RAR542Iq5/B2pXFedoi5X82hQO/GsDHvsmbLHrauW8CDV7TB9Ud/EQvp+1eyeNleXMO68uwXy5T6r+Obp28krL5aqf+SH9ffUs8Nb8xjww/fcFlTX0zmSg6lSCeiEMLBaqXOZLLH3SA/H7SaMwHHyckJDw9P5VW9clotZscg5nqbDc8m3fh2pRp7+rNv7gL2ZxqI7HknkxduZvn3n9PO+8ysghpnN3pcfx//HdqZqIhw/IMD8NXUk3PoCCf1Z43YU+px1QvT2bxsGle3DsRiqebwL8QrZ59Iht1+B3fdcgVe+gLy9BraDbyN+27oi1+jJtxxz31c3iWOoKAAGgX54G6uImH7EQqrjzJv4ixyq3UMuv8VVm9W4uyGxTx6fRfcfzQJopWshHXMn7cNjX8bHvvoB7Zt2sD0F28nSqdn6w9LOVp01irRSr2HPT+NLcunM7xNEBZr9U/irNpBGc9Cx3fdHOU7pNx44VeANlcfY9GkpVTShMsH9qB58zY0aRxCRdYe1h7KIbjp5dx912C8bAXMeOl1Xp01H11cP/435g6ahDRiwFXDle9OFzQ6Fzpcfiv/GdoDD1ldRQghhBBCCHGWi9iJGMCQ/z7BB59+yqf27XVu7tz0zKT5hjoKyiuV5lwgV1wzjL6dYmncqS/X3XI1oRYzRclJlJzqL3N1p1G3PnRpEUPHdq3wRUdMo07079KNzoN6E9tYbQgrTUOzBX1FIRUmLc1b9+eG4Z2Ibtaay++6gzaeHhhyU0kv+0njzmCgsKLCXo+hP6uHiaLjSRQUlZFTacTDqzW3K42yti0aM+SaobRylKs2wguPb+PDZx7kzv+M5JXXPmXVkTxqLValzGIq8rOJL9Mr72/LbXfdSOsmjWjSqjcDe7TF5eylNW1Wassb6t+sZT9uuEatf6uG+nt5YsxNI730zAgWt1ZDuLJXJ5q0G8DQ3g0rgZqVMoUQws7FBV8l9qlhpqKsEqP1TPyrx0x5eYXyykkJsQG4O5ZEdnJ2p8MV99K/TRPCvXWUVpRjrvdj0JVXMbB7U9p078dV/Rs1nKywGgpZMultHrjnbsaMeZFZy7eSb7ZiK6ygVPnvKS7NB3Fl767EtunPFf2i7Gnms+pzNnWU3aHV05j03XZ0UT0Z9egoWgc5U3ZiD+OfH81dd9zHCy9+xPJDWVTbbEpsVOJsYS4JJTW4usVx65230LZpIxrHdWNQ7y54nD3ATjnfoHxPqE9AxzTpza03diO2WRwD7ryTjv6+mPIzSC8+8wORc7MB9nrHtO7Hlf2i7Wk/jrOOOREd33UfvnAvTQM8Oau/9oKwFuRwuLQaoz6V6a8/yX2jRjN9ay7e3h7KQRsaZw8uu/VehnYIojBrL0fTrHQcfDuD2gbh9Nctxi2EEEIIIYS4hFzETkRPOgwYzt333MM99u02useGnp7QHq0WN2XToCczPZuyGqVRZqwm98QJapTDzp7e/J5BETqdC84ubo49JVtnF/tk8xXl+WTn6+2LmZSkHKfYqDQK3X3w+vHQP+WOaHC116P2rHpUcTLzhJLSUA9XNxdclFZXfX0JJ/LVDkcoyM+kuNLRy2muY9+q2UzflUO7se+xYuUsHruuo3IHGmh8/AjQ6ezvz8jIRR2kYjZUkF9Upbb1fkSrNPp16siWigKy8xz1T005q/5njQByd8NDqZeTcg0enr6OVCGEcND60LpDMzw8tKRvWMPyrQeoMViw2UycOLaaBQv3K0HUmaYD+hDj6GhTRyiqHY92SmxxUWKXhjpyCtRHga2YagpJOal2PjaoStrAp9OXk9tiON8uWcCXL99DY8+fPxbr5O6Kh0aJV+oIyP8nXlWk7GD8FzM4YfHj1lGPcV3nRmA1kbD2O77ZlELsfa+xSnk97tYeeDve4+TtQ6CzsxJny0hPy0Jdz8RiqqKgsBzH1Lanaexxtp6a6gIyc6qxWixUZKRRZDCAmxdebmfirJMSZ92V++DkpMZZH0fq2RxzIjq+6+64rj8Brl74BniptxZDaQVVNRbMtcVknfUj0LlSR4yqg0dd3Zsxevwctu/ezc4d21i4YB5PXdtWPYOTaQmk5JSi9XLHWWvlxP49JJf9fN5Do0nm0hVCCCGEEEL83EXsRPx/uIXQe0BnfL3q2DDrY5743+M8Mvph3pmwBL2XP32HXUEjx8iY302rI7ZtN9o0diPryBJeGPMw/3tsDI89N56jtVY6DL2CzhFnVkC2U+rRq19X/LwNbJztqMfDj/DWhMXUegUo9biSmEZxdGzuSV1tBuNfeoYxYx9m3BvjiT/Z0DK11duw1lVhMpk5snEBb7z5GlPmb7J3Qqqcg1rRo6UPhpo0Pn3mUcY8+ihjxzzAp/N2oD97II7GmZg2Sv2buJN9ZKmj/mN57NlPSao1037IULpE/qT+Qgjxq1zpMOweruoVjb78AK89/BAPj1Hn7nuEB0Y/x4oT5TTpMYyR1/e2j1b8GdcA2rRvipe7nh2LJzDuqf/xyJjH+XZzw+IkKnU15DpTPaas/Xwz4T3e+nQmqWWnot8fZzNUsm7BBNYeLKRRC3VEdlec1NWg9Uasyn9NZisp2xfz5luvMfG7tZx68Fjn34IebfwxG7OY+MoTSpxW4+yDvDdDOefMwEIlzmqVfLvQuaU3eanreHnsI/Y4+8iT73GwrI5WAy6je6y/4+Q/zzcgDFedM3m7lvPCM0/yyP+eZMaWQsfRc6cL78jQ9sGYjGlMHT+ed99/n/feeZs3leu12Oqpy09g6ueTSKhwY/i9DzOsayipe2fxxZTVVCj3w8nJC78QZ6wWEysnv8lTn80lv/LsGyWEEEIIIYT4t/v7dCLiRtdbR/K/OwcQ5VzG2kUzmb14LUW6SG6++0nGXtMeZ8eZv5+W4LZDGPfcffRqEcjxncuZMXsue7NMdLpsBC+MvIEwt5/eArUe9yn1GKjUo7yhHj+ssdfjpv8+wdhr2+PtGcaNo+6mc3ggpQdWs3jZNtwCe9CuRcNYQ42LK+17DaFPuItyfB0b92fTvOtg/OxHlXa4VxT3vfgMt/aLxVp0iPlzZrBg2X7qNDa0P6qOhuA2g5X6j6RXXCCpSuNzxuzv2XPCQKeBSv3vv/EX6i+EEL/OLawVL772NqNvGEioWxmrF8xh1qxFHMl2puvVd/PuO+8wsOmpcdM/5UqnYbdyVY+uOJeks2LePBLzQriyf4zjOHjFdePajs2U48dYtWgdmuhONPf7syOjbeTvnc+nc3ZiUF7nJq5m1LB+9tWTL39sPB4t+jIoypPKhE2s3Xacxp0vJ9DxTmf3MO545jnuGNQMTVkiC76bwbwfdlFVX68OfD+LhoBmfXnyhYcY2DaUbCWmz5z9HTtSq2jT53peHH0n0V6/2KX6hzTqfiU3dWuNqyafTat/IFnbllv6BDuOnjsXvyjufuxRrmkZiS1pI99Nn853C9ZTpndFa6tmxfRPmbc9k4j+d/HMI2MZ/Z/ridbpWf39DLal5KPVhTHg+qHEeLuSuXc1aw5nYj09abEQQgghhBBCgFO9wvH6nM2aNYtBgwbh5eWF2ex4TMtQwZbNG8kssNJhwCA6Ng5yPMJs4NiWzezLLCCqwwAGdGyMRjlgMdRwdP8+DqdnK7XTEhnbnq5dW+Hj4YzNXEfitoUczNMSoTQWh7QKoDj9ABu2H8c1tCWXD+6Oh7GYLZs2kGPwZMCgy2kc5EG9zUJByhF2HT5OlcGAf2AUHXv0JCakoaFccGwr6/Zl4BLZgZsHdkSrVMRirOXYvr0cOl2PdnTp2hpfpR52FiPHDuxjX3I6/pHNiXYv4bX/jSHRrRvjJ05mWAsX5fhG5Xg1ke260tanjI3b0/Bs1InLh7bBAytVRUfZvPsQZWVKA9Azkp6DutDIuZYtG9aSbw2kv1L/Jqfqn6rU/5Cj/gFRdOjZg9iQhlGIFScOsWxrglL/9vb6a+rNZOxfw7bUahp1upyhbULt5wnxd+Xs7IxB+be9fPlyRo4c6UgV50K9n+rCHiNGjMBms2G1nj1vH1hrS0nav4tjmSXU4Yxfozh69OxEuE9DD5vVXM3hdctIUuJT057D6NPMMRqv3kZ1XoYSdw9Qi47WHdux7cP/8tHGMq54Zirf3N9LOX5IOZ6E0TWWPj0iObJ5J2X1oQy8aRA+xcdYvvkQ9SEtuemyrrhobGQfWsemo2WEtB/IsLbBJO9YxJ4sq7Lfj/aaE2w+lIHlJ48guzRqzY39W5N7dBu7E5X3xnWhU0gNG7ccwzWkHUOuUqeQsFJTepytuw9SVGzD2T2cbgO6EuNpYfuGFeQY/eg5YAgtwzypV66rOD2RnQeOUVFXh69fOO179KJpeMMjy9W5iSzfcpD64DhuHNQNV+2pepcS0m4QV3UIo/j4TlbsPoGfUv5gpfwfjRNX71v+YTZsS1Dumx9d+gzAlrmW/Scs9vvbu4k3x3cuYvcJsz2/Ye1CztofyFUdIxuysZp/Mb2BldL0eHbvSqTYonakRtK1R3eaBlvYtXUt6YVmmnTsS+8OMVB7kvXLN1OkfFWro0/7tgjAWldDwuYNHCkzENt1AL1bhKGT+RL/ttS4qf5/rcWLFzNq1ChHqhBCCCGEEBfOBelEdHFxYd++fbi5nZmb8J+uvt5MWVExJpsGv6BQ3J2l5SXE/0edD0/t7OrUqZP9tXQinj9ndyKWlJSQnJyM+6nVUs4rG7WlhahPvrr6BhPoee6j9oQQv039fHfo0AFXV1fpRBRCCCGEEBfNBetETEpKonv37uh0f75BqVbNYrHYf20XQvyzqJ9vdXRcYmIi0dHR0ol4np3diVhcXEx1dTWtWrVCcw7LBKt/L/Xvdi5xXQhxbtTPYXx8PJGRkfYfa6UTUQghhBBCXCwXtBOxd+/e9td/llq1uro6PDwcK4MKIf4xTn2+pRPxwvhpJ2JNTQ3t27c/p05E9UcdtQNDHf0khPhrqJ/D/fv3SyeiEEIIIYS46GRVDiGEEEIIIYQQQgghxG+STkQhhBBCCCGEEEIIIcRvuuCdiOoji//fdj6pK1dW642c31x/P4NBj+08X9PZbFYT1bV/3fUJIS5tvxSDf7qdT+qq+nqj5S+LWVZjLXrDuZVfb7VQozfwkwWizzt7OQaT/bW93qYfr6gthBBCCCGEEH+lC96JqM7do07of/amrhRaWFho3yoqKjCbzY6zfz9TTSn7j6VjMP+4WafP3ssLr48nuVyPsSSdI+kFWBzHVFlp8RRWGR1755dZX87Ej55gWXyRI+X8Kz22gcfHvcyxMr0jRQghfj91rsSfxuSioiJ7PFb/q+7bbH+8u6y24DgJJ34e+3J3zmLcZ0upcexTW8jObZtZv349m7fvobD67Ah9/iWu+JAnPppHtWP/zyjP2MnTTz7FofwqR8rvZyrPYcfWTfbrVbd9x7L5tb7B8oxdPPP2G5wo0ZO0+hOen7FeuV0pbNvc8N5T2869qdQ53iOEEEIIIYQQF8tFeZz57BEupaWlrFr1ETNmjOb77x9l37519on6/6jytO28PWkqVYYfd0DW19soL69AzfHEjrm8MX3b6caWubaMWRNfYkNyqSPlPFOuT19+kmrjhWsUe0e0Z8RNVxPp6+ZIEUKIP+bsmJyWlsKCBc8xffpo5s9/nvT0o/b0P+rYpkm8tXCPY+8Mm0lPXkmNEpPrKUrbySfPK2Wt2auUk8aejXN588UvOJJ/Ll18vy287VCuHtCZc4mYnqFx3HzzjcQG/PFFvvL3L+T5j2aQmJ6uXHM6hWW/1RFZr3x/lWFTbr/FUE1eRR21lUX2922Z9yEvTZyvvM4kJ6/yRz+O/ZJ6m4X96+axeF/2/3uuEEIIIYQQQvweF31OxIMHD+LiMoEBAxbTp8984uOn21doPVdZidvtIzQOJOf/7gaTOlJx25aN9vcdyiyxp5lqSzlwLI0Tx/adTj9z3kFKHJ2WVkMVh/dstZ+z/mDaz0ZEqowlGT/LX1V9MpGtm5T37UwiJSWR7NJa6q0GMg7vZaOa31nlYK4l8cDOhnKU82txJiC8ES6O4grSDjYc276HAscISzX/1Kxc4vcq9du8syF/+xEhhPix5cvn0b37DHr2XEzz5t9y+PAa+wjyc2GpqyR+txKXNu8go6jGHn/qzSUs+3o6ZW3+w9svP8WDDz7EuBdfZnjzHL6YscH+Y09xdjLpGWls37aT5JwyjKfz2c6x5CQOpZxEjYy1xUpstcfKrRzLLrP/aFRbeJzjWSdJOrDNfn56YbX98WNP3wCiI/1xOWsEpLrtSEjHYDKQffQAm+xp+ynUNzxKrFwAKfG7G87dkUC1zZmgRuG4OznZD5dkHm44tlWJr2UN31/qiEG1/KM/KR8nLYFxA7jnwQeVa36Q4X3agqGEtIwzIxJLclNO5/NTIS36cs/IB7nx8g5E9bhSyeN+brmqFTlqOes3EZ9WgNFQq5Sb4Ki/icyj+4k/uIeVC2axcOkqdh/Jtt83IYQQQgghhDgXF70TsVmzZpSWtiY4GIxGTwID2+Ds7Ow4+mfUc2zlBN5/fyIHMzLZu28/6dmnH5zDbNBTVVV1ejM52sblmfv46OV3WbwrnpTUeL6c8BXb08upSNvJy4/fxZxV20g+voO3/vcEr3y9gH0JR1g97X2mbDmK1VjF8onvMfmHTSSnH2P93M+Ysz7+Rx119vxfeefH+acp+Z84wIcvvcni3QlkJKznrXHjWLg/h7qSbLbt3EZiSjo7Fn/B1C2J2Cx6tsz5kvGzV5OUcoyt67aTlrSFt7+ZQqXeyLE13/Dxx1M4kJ7Gvo0LePPzORRWm0hcNZ4xr33Khv1JbFv2Lc+88z0lNY7GsRBCnKVz5+6cPBlGXBxYrZGEhbVAq9U6jv5xNksdaya/y2czV3P0eALbth+kssqEseQoh5KtDLmqP4EuDV89Tho/+g4eSM2+Q2RU1rHx2xe4+5UJbD94nJLyctZOfo/xM1bZ85n/2Ss8+fFKaiwm0vetZ3tiOkd2ruWDryZzstLI8Q1f89hL77B6TxK71sziudenkq+kJ2+azNsLdmOqrSAtLZ2044nM/vI9Jq1NxFCez86tG4lX4u7uZd8wcc1+bFYDexZM5P3JSziSksy29ds5nrSd9yZ8QYFSx/Stc/jw/W/Yp8Tdg9uX8e74b8kpN5KyUS3/bVbtVsufzbNK+XlK+SqrsY5q+3dQDSarheLUTcyc8wPqYXXOyE1LvuaHQ4X2c/8/NrOedd99xpSl20g5spdpn37DnhNFJG2YzvztR6hI3sZnUxeTXlBIYUUtpYV5nCytveDzOQohhBBCCCH++S56J2JMTAy9en3ErFkBHD/eje7d/4OLi4vj6J9gymP14r20uu01nnhgFA/dNoiYUPeGY1Y9ieumMu7RR3lU2Z587hXWJFSqwwhJWP8DuWEDef6pxxn9wEOMiK5k5fJ91FrAObA1l916Pw/cM5qOLjk4xfRjzNhHeXBEJw7uzaQobR2Ld5VwxyPPMObBMTx590B2fbeUFCXrhnKNJGxYTE7IAEf+o7ktukrJfyeHt6+jJno4Lzz1BCP/ewftmwTb3+IS0ozrrxtGpzbNaRHlzbrv95KVt4Nl63O5+7FneezhMbww7r9E+Toep6vJZP53Gwm/+nGefPAhnn3qISJSt7IzvQqbRkdku948NOpBnnn0LrQFyZx0TNYvhBBn6917EAbDOL7/3oWiomto374fGs2f/2owlxxg0w4lPj71BmOV2HTrld3w9Xam3mjC6hyAr9eP473GzQWXuhzK1fhp9aZdtyt57NF76Baaz5Ydxdz51JtKPqMd+bjgpHMhrudwruzTmnZtm1C1/yhHy2uod9IS1roXD468n6fH3IdvVRpZNWdG97mExPHfe+/l2u5hhDe7gifuvhLfkFiuuvZaurZpQasmfmybt4cTSv1/WJ7KiMde4H+jlbj7zH00C/JpyER/kiXfLcfv8tE8pVzb00+MpkXhAbYeLbGXH9q6Nw+OUsofey/+1Ur51Ur5NhOp275zfA+9woItKZzLrLymnJ3MW3SYiJYdadGuLUGWA+xONzJsxE0ULZ/Ga19tp9d193PdFcMY1DWOzpdfz40DW+HqeL8QQgghhBBC/FkXvRPRyckJT08/9Hr1dQVG4zkuclJRSmqJHy27hKDDSWlgeuLq4hhFo/Wg0zWPMHHaNKYp26QvP+Gazr5KQ9VKVYkR79hmeOnUp81cCI4OwFhSjNWmvC0kjCY+Lmi1boS1aUZoSABaJe/A4BA0NhumyipKdK2JjlRn2XLCIzQIn4p0KmobisVmpabYgM/p/J0JjvHHmH+S/PQSnJso6ergS42LvXGtVIisg2t4/63JrNt3hILSSrQGI7W5uRy3NqFxtNpx6ISru7tyjQ6GOopqgmjdSb1u5ai7F8HuteSVWtFptURGN8PDRYOHewDedRaK1QsTQoif0Gi0+PqGKK8sGAwlWCx/fI7as5nzckm1taBJrLsakXFzc7HHfScvH3TmIvJKTgVKVT3G8kqsvs0IDlB2vdwJiwhFp5xvPnmyIZ/GDfm42vNRomVdJrM/n8yslds5npmtfJdYMNbXo9VoiIhRYqurFjd3P/wsUHxq6LlDZU4CU75fR8sbb6V9sDP5Rzfy0RtfsWZvPCeLKnBS4m5d3kmOGaNp1tTLXp6LmxvO6guV0UBxpS/NO4SjRm4nV09CfEwUlhrtHa+R0U0ayndTy69vKF+J8y0H38dX9u+hj/jPZS3tHXpnL15Tr3xn/F7WqlLSyq3UVeaQnp5LcNfr6N40CM+IDvQIK2JtTh092jS6+F/uQgghhBBCiH+8v6SdoTa2nJ2VRphzE7y9vR2pf5KXP3Eh1aQebViFuSArmZPFZQ3Hfo1WS3i0B3m7dlJUY1ZbpWSklxEUG4Xr6V66X6cLjSWwZh8JKVXYsFJ05ChVwa0IdQxWQWmUh8V4KvnvOpN/mpJ/0xgiY/0pP55CtcGCrTKb+JRM9Zlrju/aTkXjQTz92IN0ignEYrY0lFO7n4TjDeWUniykTkm38wqgdUQBB7Zm2Ee1GIrzSDGFEtvIMQpTCCF+J1dXdwyGUHx8mp3byHCFJjiSRvU5ZGRX2x9tTjx6FH2dERefVgzo7sPS6T+Q65h7sK4qk3kLttBq+OU0/slQOU1IBI1s2aRnNeSTpORTq+RjyExgY0IFIx55gtuH9cLr9872Zy1j7fSZlMfewHVdo5R9M5n7d5Ib1J3HHx1Nr7gw6i0Wpf7RNLIe4kC8OteijfLCYmpPdUZ6+BIXVcHhLcftcziayotIqfQmJtKr4fjvpNO5U3YyjxJ9HfXV+Rw8luE48v/TBMfSJlhLix63MOrB+7n1mmvo1sSbovQtJJfFcXNjKyt2Jtu/D120zpiNZnmUWQghhBBCCHFeXJRORPsolLM2f/8gBg9+jw4dniE0NMJx1h+j0bng5easNOrCufKuoRya9g5PPf000zck4u7phzpuxMnFHfdToxId3NzccdK60WbYAwyLyuO9d1/kyaefZXdtNDdf0wU3F+eGfB1clfO1p0ahKO9zc9HhGdWD0SNas+rL5xj39FN8tCqfyx+8i1ilHenm5qHUzZF/TB7vO/LfpeZ/fR86DruW5oZtvPXyMzzz5SJOVHso+brQpksrjEfm8uor77E1rRovb/fT5ayc0FDOO9NXU2F1xlutn3sjrrvvQaq3TOJx5dgLH88mZOgtXNHCG62rF65aR501WiUvN/78DGdCiH+an8bkuLjOdO36Ob1734+np6fjrD9G6+KpxFsNrmFtuX6IL9+/9hjjXnufrVk2fDyVOOrizbCH/0df10Tee/MFnn76SV5+6xPKo2/kgZu62EdUu7i620chqlxD23H9UD/mvq7k8+r7bEqtRadzxiW8LR1Csxn/0ot8PnczeCoxTy3f1RNXnSPuOWnw9GqIe6fqlX1gCd/OXUH2oXW8+fw4np+4GM+YZrhkLeX1l99mZXwJHt4euIV15oE7e7JjilrHp3hj4kKKjUoxbi5KgA9h2D2j0SV8Z4+7z703CZc+N3FV20BH+Y6vVCetch8bytc4u+Hxo1+nNAQ26UbX4Fo+futZxn06kxyDHxqN8rfQ6E5//6j19nA+E7nV/D2U7zPX0E7cc2tnNnwxxl6/15T6ZZ44zoxvFxF040j+N2Yo+xfMYVNaFS3btiZ/5edMmLsdvSMfIYQQQgghhPiznOoVjtfnbNasWQwaNMg+kiUpKUlpkPa2L5ryS0WcSju7IftT6jnqys0eHo55AM+iPv5VWllFkL+/cp6V6qI8Kk1K88wrEPd6Iz4B/jgZqimodiI82Kuht1TJr7Y8D5tHKN5uOqzK8bziCnt+bv7hBHvpfpSver6xuhiDzg9fDxfqzXryKmz2/JxsNspLCqg1WtG5+xAe5Pu78ldOwlBdTnFFLbZ6Ayu+egvdFS8zckAslcVqfja8fbyoqYGwCD+09Uo59vSGcsICvJT6VSr1C7CXZ6ouolC9cKXRHBgSbn+E2ayvoMLm1VCe8v6K0krcgvxRH74W4u/i1Oc7MTGR6OhoewxYvnw5I0eOdJwhzoXBYGDGjBmMGDGC4uJiJabU0L59e/t9/qWYrD5ee2ouxF+bE1FdtdlqteLq+vMZ9sx1VRQZnInwd1fCjomSgkIMVic8fbypM2mUuOltj8NWYy35xWVq+FK/AAgKjcTd3m+mxrMSap188PdqyP9MPvXkbJvKl2lt+Prlm3BR4nJhhREnV1+8dEp9/PzQGaupsLgR7O1ij41V5RU4O9KLlXoFu5kpVGLh6Ut38SAi2J+q0gKqDTY8vZV66m2ENPLHWY2bSnyvNljRunkSFuhHRWU5fn4BaJSvKpOjfLX+/sGN8HLVYFGuXy0/6Cflu1j0Soy2Eea4/lOMtRUUl1VT7+xOsIfyveCsfM+4aSmvaCjHqta7Tkcj/4bvP7Oh6vR+vfq9UHSSWiX0n65fWSleAUE4O1moyC/CyT8EX9d6StX7p/OlUYjPxfnVUFxw6udw//79REZG4ubmxuLFixk1apTjqBBCCCGEEBfOBe9EPJdH436rE/HSVE9JWjIppWbiWsVSdmgpH0zdwf3vjqdb2Lk9QijEpUY6ES+sX+tEPJdFU36rE/F8s5qrOLzpEIE9O+FdkcPUD9/CNuxVxg1r4ThDiH8n6UQUQgghhBB/FRmYcFE54eFuYPPCz3ny0Uf5+Pscbhn3HB1CpANRCCHO5lSvpShlDS+qK+u/NAXPfqMZeXkzx1EhhBBCCCGEEBebdCJeZB4RnXj+/Un21aK/+uo5hrSOxkX+CkII8SMaF0+GjXmbWeqqxtM/ZvQt/QiUYCmEEEIIIYQQfxlpkQkhhBBCCCGEEEIIIX7TBZ0TsVu3buc0/5ZKnftHpzt7ZUshxD+FupiHGitkTsTz76dzIlZXV9OyZUvH0T9H/bpQt3ON60KIP0/9DCYkJMiciEIIIYQQ4qK7oJ2IvXr1sq/O/GepVTMajfb/kyyE+Gc59fmWhVUujF9aWKVt27bnvLCK2vF7LgtmCSHOjbq40YEDB6QTUQghhBBCXHQXdDiJ2imgNljPZVP9Urpsssl26W/i4vqlv8Ef3c5HXJdNNtn+/KZ+BoUQQgghhPgrSCteCCGEEEIIIYQQQgjxm6QTUQghhBBCCCGEEEII8Zv+cZ2IVkMVhxNTqTJZHSkXV3ZaAoVVRsfe+WeuLeNg/FHl+iyOFCGE+PsylWcTn5LH3yFi5aXHk1NW59j7+8lLPUh6YTU2x/6fUVuUyqHkHMyOfSGEEEIIIYQ4Xy7ZTsTK7INMmLeE0lqTI6VBXV48H30+lexaI8UJK5mx6gAGxzGr2cCqxVPYe6LCkXJ+qR18sya+wLpjJY6U868yaz+ffPoFWTU/vu7fy1RXwJbvJvHS00/ztLK98N4XJOX/fRvVQohLQ/a+BUzfcMixd0be/h94bcp6qq1m9i2dwONPPWWPPc88+wzT18Rjsv56l1m9zUqt3vibnWqmnP1Mnr6eUsf+r7EYa1g45SV+OFzoSPkt9Zj1VSSsn8NT9lj5FG9+NZ+cMoNy5MKwGmtZ8e3rzN6Wzrn8BJa+fQ7vTl1DrWNfCCGEEEIIIc6XS7YT0VCWw/rd+7Dafr1JV5Z5mOW7Mk6PyLCZ9BzcvoS0Ir0j5dIT2PJyPvngdVoFeDhSfj9ryXE+e+kZNlSHcufosYx95AH6twunpuLSvR9CiL+HorTdrDyc69j7BVYzGUfj0cYNZfTYsYy6+0rSZk3khS+XU/ErI8cN+Ud4/Y33OVxQ5Uj5OVNRGktXxlPj2D8fbKZy5n/4AlM25nPjKCVWjr2X5nVH+PCDr0m5QCMZtS4e3DHuS8Zc2QqdI+3PaDXscT5+6lZ8HPtCCCGEEEIIcb5oX1U4Xp+zhIQEGjdujFarpbi4mKioKPvrc2GxWHB2dnbsnVFbcJwV8XkMHzQAZ3MFq2d9xKTv15CcXcqJUgMDh/RHm7WbTfmBXDeoDa7Ke2zmOnZsXox/m+G0CXMla99KPp88neVrNpBh8qdzszCqcw4zZfFa8pK2MeW7H0jT+xCqP8IXX09h+fJEgjq0JtzLlaqcI8yePpE5C1aw8XgZreKa4ak1s1PJ31fJv22424/yTzf606V5GPU2M0c3zearqbNYtz+X3PTDlOjCifbWs2bOt0ydvYB1648S2K6hHGNxGt/PnMzMuYvZcLCQMH8Dq/ck0Sy2qXLdlWxf+i1fTp3Pmt1H0IU0p0mwJyd2zWHDkZPsXz2b6Ut2YvSLpVm4C3u++4S1hr68MvZmIoN88fULpFnz1kQGeyjlpDJj7kpOpO9n1ncHcPYoIf5YCRFRkTjXm5TrWsbJ+hDcSg4yf9UeTh7dwqTpC0lIqyOuawvcbBay96/mi8nTWLZ6PWkGP+V6w2UVSfGb1M93UVERvr6+9n8rKSkpdO7c2XFUnAv13sbHx9O2bVv0ej0mk4nQ0NBz+kzabDbq6+vR6X7ezZWXuJad1bHc0juOshOHmT3pQ75bfZD8gjwlvoZx/WWtSd+9juqIgQzvFUdwcCw9ugaweNp0fNr0J9rpBN9+/jXfL1nFwWNVNO8cxo5ZX/LV3HWcLKnCJTAGzcltfPnJJJat2Uk+QbRqFoItP5GFO6q56pbe+DnqUm8sY/PCaUyePo81axPwatmKCC8t+7cshCbDaO9ZwvyZE0k2hhMXrGXP6pl8Nnke+44UENm+Dfqjq/hmUR6j33qWbtFByr/PEFp16Ujp1tmsK4uiR7SVBfN+ICPjMNNn7iSwZRNqElby1ZSprNqdSf6JBLLMQTQJtLJt4XQlVs5tqEdcSyK8dexeM52EjEIWf/ctizYdJzxOuR8eWnZsXEC+Job61DW889lU1q1dzdIVa6nybkILj0Kmfj6R75as5MDRKuK6t8Kj3kZl2h4++3oyi5etJrHQmRCOsiXTSqemjajJT2Ghcg9nzFvO+iN5NGneAj832LN2OofTC1milr8xmfCWLQn1Vr8lxaVA/Rzm5eXh4+Nj/ywmJydL3BRCCCGEEBfFP2BORDNbvn6FlSmB3DX6Xlr7G8nNqnYcg4rcY2zZuJGNji2toOHh5pw983jr8w10vuFu7r/zak6sm8qcbZnUlOWy+NvPyPfvzsjbBrL99Qd4aUUh193xXzr4HGHKsoPUlafx2StvUhF2GQ+NvZ+u2kN8PmM9+rMG0+TuVfL/Yv3p/LM2TGX21kxyDy5WGqt76HLTKO4YEMqWefM5kluBoaIa7xZdufeRsQxqksOURbupM+Yx7d13yHTtxAOP3M/lrSOgNo/1u/diMdexduKLLDjkwp1jH2ZEVy9mf/YFxwv1nIxfzfuzNxLTbwTDW9fz1afTycvPYtfuCvpedTn+LmCoKmTfNuWebN1NTpkec00xy2ZM5IClCQ8+MJwQWx4Hj6SgDvS0WYykHt5MSmENtSWpTPnyY/K9u/DQyP9gSl7ArJVJZO5dwFvj19Dhuv/ywH+vIXfjdGZuycByoZ79E0L8LVmMhcx+7z3yg67gwf8Oxb26EH3NL83Q54RnSCztvStJyqqlpqSSZkNuYvQDd6M9uZL5W4vo3GcA7dp14Lqbr6d7Yz/q610ZOnIs91zbhk2LZ5Ba9MvjD01VNbhGt+W/D49lWOsyps7ffHpaC6pymPPNVyRY29GtZRjbZn3EkjQPRj48ilbaE3w7Zx2ZGVn4KvG4sY+b402g1XnRtm00FcfTqCkvZe3siWypDGX0QzfiX76HTz5dTqur7+beKxqz+4cFHMgsxVhVi2tUm4Z6tCm310NvMXFgySdM2ZLLlbeOoJ3lEONnb8WkpCftWkpivp7GHQcxduxY7hzagaoaJxpFBFNbXEnTwTfy8IP34lqwiu/Wp1F+YgfvvDOVkB438tAD/yHO15VC+4jQbKw1J/nmjZdJc+vDA2MfoL9vOl9OXkqVQS3/UyZvyeEKpfz21sOMn7VF5lAUQgghhBBC/L8u/U7Eykw2HzDR7647aB/bnP6DBtA81rvhmM1EXVkOqcePc1zZ0jJzKK3TKa3cOpL3Hsar59Vc3j6OFq26cnOPIA5vOUyd0pLybDmAK/p2pFnznvTsHUurdp1o2bwVg/p1piS3jJL0ncRXN2b41f1oGt2CK6+/gppNqzle1lDs6fx7nMn/lh7BxG/axeG9Sfj1vpbBHeKI69CPvt0i7G9xDoog0rmcedMnsmzLMQ6uSSArbSe7s4O59dYhyjW1YOi1lxHq4RgtUnmCjXv09Lz9FjpEN6b70GvoakljR3oNTq5e9Bx6IwM6tqT/ZcOItFWQYzRjNVtxdVFHhtqwGCo5cfwI3372LvP3ZNnnHPMK78rVQ7oTHRViH7n5a6K6DeeGgV1o2qIlw/o3J3v3QRJ2HsK9+1UM6dCS5i2V6+0dSsLmA+ilZSrEv4o6R+HhwkZcf/MQJYZ2Zujg7nh7/Xw0uZ2TEzrnYDw9dHhEtsYtbwcTv57EoQOZHE/OwyUkQnmvF2GRkQT6exIcHk3GpunMWLiWY9szSa893TX4Izr/UKI9TCye9TWLNx3h8Ooj2GdCNJayZtLbbDe0YOx/ryFWV8TGTftJStzLt199w8bEeFKTDlFbY6LeSYmVPxm1Wa9xot6qHFNeu4V0YPiQnkRHBlKcmICm/XCGdmlLs3b9GNgzxn6+zj+EaC+zvR5LNir1WJNor4d7eBzXXnsN7eM6cM3VfSk9nk2x/R0qJzQeAYQHakiKT6D78HvoFeNrvz/u+bv4auI3HNiv3J+kdBL37aQmZgg3DexA02YduPqaXng5cjHm7GNPXhjX3nw5zaObM/iGq3Has4HDRWr5Lbjummvt5Q8frpSfcnb5QgghhBBCCPHLLv1ORJMJvdkNf9+GXZvVgtXi6LnSuBDefiijRo9mtLI9MPJuejTWqc8CYTXX4+TsTL3aGtRo0DgrDUabRW2/KQ04dzyVZCcl3SMgGDd3FzVZ+a+HvU1ps2mw6Lw59USfk3IXdTaDmm0DJVOrUgUnncuZ/HXKSRYTxiojTp5q7g1MRnV+LTPxi7/g5a8P0/+We7l7eC8CvFyw6I1UaL1w/qUJsuqVwpRGrqe7Y6ifUjEnp3rMZie0Snl+Xg1zJup0zugMVmrdfWgSXc/hPckYlT+7V0gLbrzzPi5vF2w/T6XxUa77rEazUbm36qOLKpPpzLyJWq2mIV1pUGt0yn1T7rfNYjvreh3pNqv9vgkh/j1segNVuiCUMGpnNtUp4eqXl0apK84iudKP5lF6Zr3+Ij+keHHfw6MZ3LWp44wzjEV7eP7RT6luPJQH77mVNlG/NuufleS1kxj3/ha6Xfdf7rthAMG+jp9F6s1Um6x4evqjU8feqXFUG8jgm+5kzJixjHv5Yz5+4X5aNA+jPDWe/Kqz5j+sV0e5lxHSMg7lKwEnL3c8lFir5mFUz/PwVkOfndGoxksLx9dN5ql3N9FVrceNSj18GurhrMRHD9eG126ubtgq9fxoqSyLgQ0zv2CPpR23XtUaZ1sxc956kYXJHtz3yMMM6dbM/j1mrKzF5KxU5hfUW5XvIa3n6e8PJyVua5VrUP8UzlqlfLdT5bvbyzfa94QQQgghhBDi1136nYh+4XSJM7N1zT6KK8qI37ed+BOVjoO/QudCXJfmlG1aRHxWAeXFJ9iTWESTzq3x/JUBM2dzi+lEM/NOlq87Qml1CYc27aIurhdNAhwnaF1o0aUZZZvP5L9byb9xtw607hhJ/q4NpJ4spjhtD2v2ptk74WpL8nGLbkzTADfSk1OoqjbiGt2R5pZdLF/bUE7CvkRKaxyNWt9o+nVyYv3cLeRUV5GVeIgjmig6NT81DuUnnPwZcMdtlK74mq+X7aWooprq6mos9ZrTDd8znPANaER5YgJJeQWUqPXco9TTIf/wOnYm5lBeksWu+DxiuneiY884KrYu4vCJfHv67oR8Yjq3+V33Uwjxz6GLaEGs01E2bEmmvOgEG7fuoqTa8cNOvRV9TY099pTnHGLCpO/x6X0lfQNdqKgqJ7pDB0Kca0lJSref7uLqjo/JTGFZJYayCsqUeNWiZRymyjzS0ovs56isFoM9T3VTV3OuKy3EOSKKZsFeZKWkUF7hGLHoFsZ1Dz9Pe/0m3hw/jxxzAH26+XF05zFs/n5obEaqy41EdBrGoGaVTJ+2hBP2fAvZsWg6azNduXV4J8485KzQaGnUKpbq+PUcVeJ9WeZB1uw+rlTKRl2JWo9Imgd7k5Wq1KPy9yzKYiM3fhlz1pRy5TVX4m6qpa5ar7y3nKh27QnROe6PRkdMh9ZYDy5hb0oulRV5xO9P5lQJzhHtaeeRwOLF+5X7X0bStp2UNelOmxDHCUIIIYQQQgjxB12yC6uYqovJra6nd9detGgbzeGFk5mzegfWgCY0j46kR49OaJSGX0F9OH07xqDmoC6skpOTTljL/nTp2psYlxN8M202azbvJ7b/nfxnSHs0hjIlXyu9O3fExclCQW4WHtEdaR3hi6GimCyDHwN6d6Fnm0A2LZrG/EWrKfLvwUOjbqKRu4XcnAxC49T8+/w8/6GdaNSiFc6525nx3QJ2lXgQpq3Bq/XlXN27MfHr5/HDlnTCm7XAM6gxl13Rj35KOZsXT2PewtXkasPoFhdMSa2NXl170LJDV8oOzGPSzEUcyLVy870P0rdZAJXFJ6jzbUPHGH/lRtVwIreSuF6daRrRjIGdg9m+fA5zFyxh9brNmP07cNMNQwh0qiG7uI6OXTvi7+KMW2AjnIv2MWPuInYXu9MxLprGrboQZExjb0YVxvS9zF21A8+O1/PAdT0Ja9KZxm7ZTJquXO/GfUT3u4M7ruiIm/Ol308tLhxZWOXCudgLq1QWnaDUtQmXdWlP03Azq2d+ww/7TxLVvCVBjVrQp2M0FSm7WLFyPVs3rGXTziy6XncPd17dFU+vAEK9qpg7Zy5bj9YQFxdDQJN2dO/cHI/KROYt24lr07600B5WYucqKrQhNIuNpG3fboRaS1i/eQ071q9jzapVJJa7cln/LmTtXsiCjckExTbHOziGPn2aU5mTSkDrq5RY3J6j25dyuCKI6269jso90/j2uxXsO55P0059aBweRKsunak4tJSvps1T8l1HZWAn7hl5D63CPak3VJNVUEkb5d9qsIcbflHN8K48xKzZ89h8UkuEqx6nmL5cN6AlaTsWKPU4RmBsC7wDlXr0bYH+ZAZ+TXsTG+CCuaqYtFIXeir1q8pOwyuyI+UH1ftwkvTDO5Q4vZEc9zZc39WLecr92ZxUZb8//o3bc9ngwbT2L2XajFmsWL0VW6NOtAowUuYSy6DO7enYNoK9K6fy3YJVnHBuxQP330aMj4bCvAx8m5wqv8hefu/+bU4/Ci3+3mRhFSGEEEII8VdxUhqEjudhz92sWbMYNGgQLi4uJCUl0bt3b/vrP0utWl1dHR4eDY/m/hPYlIa9TatFpzTkjRVpfPHmm0SMeJcR3cIugUd/rZzYNZN3lpTyzsuPEeDxS89ZC/H7nPp8JyYmEh0dbe/cWr58OSNHjnScIc6FwWBgxowZjBgxwv6jTk1NDe3bt0ejPoL7J6kdk1arFVfHo7iigTqNhs1Jg065t+aaXCa9+SK6YW8wakDUP2H1MvE3o34O9+/fT2RkJG5ubixevJhRo0Y5jgohhBBCCHHhSPvmorKSH7+bWdNmsGbjRr7/ahoZLh3oFhcicwcKIcQlyUZx8mHmTJnKKiWuL/hmCkm2lvRrHyFfsEIIIYQQQoh/FGnjXFRaQlu0INTbRsbx41jD+/Di64/S1OdS+TM4EdSsN3feMBhft3N7TF0IIf4ZNATGNiEiWMcJJa7X+HbmmVefoJW/fL0KIYQQQggh/lmklXOR6bxDGHbzvfbVou+7Zxjh6irGlwwNXsEt6NejA9qfr8YihBD/SjrPAC6//m57XL9/5DVEe/z5aTyEEEIIIYQQ4u/qgnciqvOenct2PvKQTTbZ/p6buLh+6W8gm2yyXVqbEEIIIYQQf5ULurBK165dz2kSf5U6gfgvrQQqhLj0qeFHjRWysMr599OFVaqrq2nRosU5rc6s/r3UlWHPddV9IcSfp34Ojxw5IgurCCGEEEKIi05WZxZC/CVOfb5ldeYLQ1ZnFuKfSVZnFkIIIYQQfxWZE1EIIYQQQgghhBBCCPGbpBNRCCGEEEIIIYQQQgjxm6QTUQghhBBCCCGEEEII8Zsu+U5Eq9lATXW1fdGA6moDNkf6/8dYlMK3sxaTVWUgY/tMpi3fg8Fx7I8wGQ1Yz5pW0mY1U2MwO/bOv6qceCbOW0xpjcmRcv5l7pjN1GW7/9T9EEL8O1lNtdSZrY69M8qSNzFt6W7qlNdmYx0W25l4WW+1UGu4cLGspiCZKXO/p6DS6Eg5/3L2L2Lyoi3oHftCCCGEEEII8U91SXcimkqPs3Dyezz94FjGjh3Lk4+8zq6CasfR32apKWTT1r1UWW1UlZeSWVj7uzsgT7Eaq5k34U1mbM/gVNO55Nh6nvxgPIVVF6bRaqjIZd2uPT9qiJ9vVRUlZBTUnr4mIYT4/ySu/JgXZm5y7J1RlZPA0h0pGMx1LJ/yDhPWJnPqZ5byjJ088+47ZJWpXYznn6mqgPU7tv9i5+b5UltRzInCmj/8/SGEEEIIIYQQl5pLthPRVp7J1x+MZ7exOa9Omsa0adP46J37aOTZsJKzqa62YXRibZ19FdhTjPqGUYt1pjONynZD7+e5/w5Efad9JGGNck6NHrOpDoPjvHqbxb66qT3PUyMNlXyNVUVU6M8aeaicV1JW5thR6mE4Uw+box5WYy0Go6khP0f6qfPqlLxP1damNLrt71U2g/mXm6i/lL/q9HUajNTUmRrytJmpdeR3djlKhU6XU2ey0GbwKF64ZxCeyiH1umt/et0Kk7EOq3J/7Ol6R/5CiH8tc10lJ8sbOgPtIwwdcfT0Dx5qnKsuprz2zMjDepuN0rIS9ZCd+XQ802N1vM9q0lOnxMvaWjVeNqSfOk9fd3a8NDS8V9l+rdPwl/JXGesa3qevM1L7C/Hy7HKUCp0px2ihef+7eGHUlXgph+pt1oZ6qseVfE5R46XF5Kif3ijxUgghhBBCCHFJcqo/u4ftHM2aNYtBgwbh4uJCUlISvXv3tr/+s9Sq1dXV4eHR0DF4hpXj6yYzYZuNceMeJMLrx32hlRm7mPTVFA4WW7C5+9Hn6v/ywJUdqc3cwfgPPiLV1oiYEF8OnrDw4ZevUbf6DX6wXc07d/QlYfmXfLFgIwaPZsS4V1IWcQ3vP3E1JzfM4IuFG6nQK43TgGY8+OBD9IxxZ9p7T1HV8wkevaIlWqXsooRljJ66iwmvvYJb6SEmTZjcUA83tR53KfXoRPzCF5l4AKKcKjhaBj069cSjJom9xwrRebfl6bfG0kRby6opH/P9oRxcnF0IanM54+69AbLWM/rb7Ur+ryr5H2aykv/+YqWBq+Tf++o7lfw7U5e9i8/e/4BkazixYYFkV7rzwmuPE5qzjjc/X0a5RYN7YAsee2UszV2M7Jg/kS/XHcXdRUuj9jcxJHQ7q83DeO/OfqRumsnn89cr122jPqApDz7wED2i3Zj9+VOcqG9GQUYSJdWB3PfCOK5q26jhDyDE73Dq852YmEh0dDROTk4sX76ckSNHOs4Q58JgMDBjxgxGjBhBcXGx/UeL9u3bo9H8+d+OLBYLVqsVV1dXR8oZ+797ig/yBjD3yWtIXj+FT2cspdazBTGuxRzUDGT2u7ey9pMnSW72EM/f1AFn5T2lxzcz5suFvPPK+wTWpTDty6/YkW9A4+ZDlyG38/A13UlZ+Q6fbK2miWsNR0usdGjfh0BTMjuP5KJxac5jSgxu425i04xPmbEnHa2TFt+4ATw9agQexbt55IsFvP3y+wQZ05j2xYSz8r9Nyb8H5sIjfPHOGyQYAolpFEZ+mY3HXh5H88rdvPXpQgrrrLh5N2b060/QztPGwaWT+WRFPM5O9QS1vIYb4o6xoKQbn4wcSub2uXw+ewXFdWDzjeGekQ9yWZw/8798nKOmZpSdOEp+pTe3P/kkN3eNbbhxQvxB6udw//79REZG4ubmxuLFixk1apTjqBBCCCGEEBfOpTkS0Wqm6EQenkHN8Hf/ySUYivjusw/JDfsPk6Z9y6TnbyJ13hQOZeWwevJEauIeZdI34xk9rBm2Oov9LSZ9GbkVBgzl8cyfuY7LH5nA9M9epEcYFJTWUpuzgwkT59Pn3veYPm0qz17hr+SxjEJ10kB9PqumfsxzzzzDM8r2xqczSC1uqMdcpR45obc31OOFm0mb/y2HcqowVeSTkW/jjuc+4qNR3Vn66edoBz7GpC/fpbnTATbuzyJxwwzmxTvz2pffMnn8W7Qp3sC3yxIwnBpgYyhm3ucfkhUyoiH/F28hY8FU+3WuUa6zotkYpY6f8/CwphTnFqNeqUtQWx5852PGf/gqHbSHWbI5mdR9S/h+ey3PfjSFyRM+5d5BLXHSV5BbbqAudxdfTZhL77sbrvuFYUF88/Uy8uvqKcpOojakF19M/IZH+2n5dvE++5xnQoh/N3P1cRZ8u4QeoyYw7fNXGdTc3/4Di50StzbO+YznHfHy9Y8mkZivpBtLWfr1BxzzGK7Es6lMevW/FK6czs7UMizVxWSerOPGJz/k4zGD2fj5+9R2HsnkiR/T1S+ZVdvSSNn+PdM2VfKMkt+UCR/Rx7yXb+buobYhxCtBvozlX7+v5H+1I/+7KVo5g50pWWyZOYGC8HuYNOUrHr++LWUnizDb6tF6N+O+V99l/Mdv0ycgjXkrjpCRsIqpy7IY++YEpnzzBQ9d1QmtfQSmHlPRYb7+Ygatb3uHaUpMfv2maGZ/s4gcPZTkHKPQsz0ffv4Vz1zhy+xFu2QORSGEEEIIIcQl55J9nFnroqG2uhbbWY+k2VXlk5DbiMG3dMNTuTzvyBa0cS0k4VAquzIDGaSma5wJjGhBWLC7400N9CmHSXHuTa9OoTjpvGkeF41W40RdTgo5rv0a0tER06UDfqm7yC5X3uQeSu/ht/PQww/zsLLdfdPlRPgp6dWFxOeEMeR0PZrTxk1JyzaCsysRXQbSzN+dgJBmRPftT/fmfji7eBPXoikGfTU5x/OJ6HsZ0R5adO7+dOkaTeGxNEynGsXVBSTkhDLk1u54qflHqPkXEX8ojd0Z/lympmt0BDSKIzxEvU4zlYV5rBz/HGOeeo7lW3OpKC4h+cBxfLpfTutgpRyl/ObtmthHCKkMuSmccO5Lzy5h9uuO7tyBgNQd5CjX7RsSxYDuHdBp3GnTrhWGtDzU2yGE+HczZiSQaO1Gv14RaHWeNG0Ri7Oz46vGNZCuV9xyOl7ec+uVNA5U0mtLOZLhw8BbeuKtRBvP0Ma0960iMasWdM6EdhpI6yB3/AKbEKvGy7hAdDovWsSp8bKWvJQc/LoPoYmvi/Ld4E2H7s0oP3qU008U15SSoOQ/4OZT+cfS3q+aI2q8THahj5qujmAMa05kuDry3UJ1RQlrJrzKI0+MY+GGTCVelpJ+6Cia9kNo18jNfm3N2jbm1Fh7c14KqbYeDOitXLcSLyM7diIkey/ppeAdGK6kd8PN2Z1WbVtjzS6kxPE+IYQQQgghhLhUXJqdiFpnGrdvRcWhzRwrrDhrTiwjVhcPgtyKKC+qsafblAZmVb0f7n5e+LmYsNQ1LHhSW1OJoe7Hi7Bo3L3QmM0Yzco7bVaKS4qxWs1ovHyUNxRSXqPmWI+prBKbqzeuauvRSYNvcDgxMTH2LToqAg+1F87VnSD3YsqKHfWo0zfUw12nvMcJJ2ed/earj3BqXFyUJmcDndJgVo97eZopzy3EvnBpvZUapS3t7uWO9tSQHlcPAtX8T11nnXqdvvbr9FWu0+y4Tr1ynXq9cp3VWUx87xuqO45i8sRPuX1gs4ZyXOsoO+koBxsW86leSuV+eHorGRRSUe247nLlut18UJ9kdFJStI7HIjVqpUxnzRkmhPjXcnLzRKfETaNJiQhK7FLnPLRaHL15Srz0CQwn+nS8jMJTjaPOrgR4lFNaWNUQzwx1VFk9cbcH07PipfI/rRovldilOhUvPbzqqcnPR2+PlzYlvltw8fJSjttPA5eG/MtO5W9U8/fAQ42XrlbMtQ3zFNbpq5T3VinxPp/pH35JQfPbmfzN59w9pJVy1Al3NzOVBfmOzkkb5rPipZOHN86mQkor1Plr6zFXVGJ2UWKyGi+VOuo0DcFbo/7XZJGFWIQQQgghhBCXnEuzExEtYR2u5taBvsz87Au+X7WJTZs2sXD2PA7oQ7nq6o7s/m4WizetZ8H388iP7cZl3VvRf2AYa2bMZNXaFcxftpajBT+efN8tqh2tfVOZM+17NqxeyNJtR9GblQZqbC8uiyrk+6kzWbtpNTMW7CTkqutp5e944y/xacqwqzuxe05DPRZ+N4+8mK5c1srHccJv0LrTdtCVBGWuYf6aVaxeNo9lSXr6DO2G56lGsXcTJf/O7FGu8wc1f+U6c6O6cnmPVvQbFM6609e5hmP5ynXqPIiNUdqupdmsWb6EtdvTlTR32gy6gqATa5inlrNiIYtWHEB9SlvlHtubwTHFynXPaLju+dsJGnbDb1+3EOJfzTmiDR0bnWTO5FmsX/0DizYcotLQ0On3q7yiGDq8B0kL57Bw0wZ+mD+X475tuLydOkzx/6F1oUWfoUQVb2HeiuWsXbWQH/aV0uua/vieGlbt6ch/kSP/eXNJ9lHy79WaPoOi2TZ3FqvWr2bhslUczrUosdGViAgN5rJsNq5cwpptqfYfr5r3HkpMyVbmLl/G2tWLWbB0z+nHkl2ienBFKwMLpkxj9aY1zPp+HT5DrqVjkOMEIYQQQgghhLjEaV9VOF6fs4SEBBo3boxWq7VP5B8VFWV/fS7UCcSdnU+1BM9wclIajl360CbIQPyRVHt5tsDm9OvanCatutPMs5CEpGys3o258z+3EunnSXTrdvhVpnI8v5ZGXa/mhv5tadU8Bk93P4Ii42gdG03n7q2ozDhKVp0HbUIgzRTNDVf0oGffPliKjpN+opjwLsO5/7ru6DRK29RTybdxC8J83e2j8zTOHgSHRtCmcQyRrbvRzEupR2I2Fu8Y7vjPCKL8XNC6+RCslNcizBuNzg3/4FB7PdycnHD38CAsMpYmzdrSuW0oiYePUqHX0PuGBxjSNhiNi5J/cCPaNFHyb9WV5qfy94rmzjtuU/L3ILpVe/yV60xWrtMvuhnGqmp6X3EVPdo05mT6cQyuMYy4fTCNmzajZcsOSjlhJCnllNdaadK9P3GNQgiKiKNVTDid+vbFWuy47k5Xcf/1PXFWLtTDw5OIxq3wc1f+vlo3vIIiadMi7PSjfUL8Hurnu6ioCF9fX/torZSUFDp37uw4Ks6Fem/j4+Np27Yter0ek8lEaGio/T7/WTabzb4gju70EL8ztK5eStxoocSNaDp0V8o8kcSJGlf6DR1Ox9YtaRkThLcSNyJjmxMR4GGPl1p1BGJwOK2bNCayZTdaBlQQn5CJyS2c2+68k6ZBbqfzbRGu/BvRuuAbGEJc88Z4KAHYzd2d0IhYmjZtRddO0aQcOUpJpYWu14zk6k6NlPzd7Pm3aqrkH6fkH/jT/L2IaNmekLosjuZU4BnZAk1NKR0HXUWfji0oyk6lyqkRN906mGbNWyjxsq1STgypiUcprjAS06UvLSNDCFbq1zI6nHa9+qJTYm9qRiEBbYdw/419cdU6KfVUr7slAR7KfdO6KvFS+Y5oEc7Pl6cR4v+nfg7z8vLw8fGxfxaTk5MlbgohhBBCiIviEl2d+UIxUZhVil9MODpDEd+++hQnuzzFy7e0v4SGbFopzcxDFxGGr4uGw0vGM/GgO28+9yBBbpfowFPxjySrM19YF3t15kuTjfKcApxCgvBz1XFs7dd8sq6aV15+nAjvn/94JcTfgazOLIQQQggh/irSq3QWU20la755hyefeYZxT77LUdee3Dq0zSV2k+rJ3beUV956WbmGcUxdls2VN1xFgKv8qYUQ4sdsFBxcxetvvsS4p8fx1ffHuPzWmwjxlA5EIYQQQgghhPgpGYl4NqU8Q2U+BRXqrPkavANDCPR2azh2CbHUVZJbqK6V7IRW50N4pP/phVuE+LuQkYgXloxE/H2shmpOFpahLvSv0XoTHhVweoV6If6OZCSiEEIIIYT4q8jwtLM5OeHm14jY2Fhli74kOxBVOndfxzXEECUdiEII8au0bt721aLVeBktHYhCCCGEEEII8asu6EjEnj17/uIE/L+XWjV1MYB/0qgXIUQD9fNtNptlJOIF8ksjEVu3bn1OIxHVUYjqog6/tNiVEOLiUD+Hhw4dkpGIQgghhBDiorugnYjdu3c/L6szn0tHpBDi70ttDEsn4oXx007E6upqWrVqZb/Pf5bagahuEpOF+Ouon0F15XXpRBRCCCGEEBebzIkohPhLnPp8SyfihSFzIgrxzyRzIgohhBBCiL+KzIkohBBCCCGEEEIIIYT4TdKJKIQQQgghhBBCCCGE+E3SifiLbBgNBs7fg94XntFYh+0CVdhmNmAwWR17QghxbuptFmqNZvtrq0mPwXxpxxf79dQZOdcIbDLosdguoS8eIYQQQgghxL/KJduJaDVUkbB/B6kF1Y6UBvknjlKhP7cGqaE6kwlvPc+OzFpHyh9jKs0kKaOQs2uRk36EomqjY+/8Musr+ObjJ1kaX+RIOb9ObP6WZ79aTY1jXwghfspUnsOuHVvZvHmzfTuUcpJf6xssT9/Fs+++TXZZHUmrPuaFmRupLUxl57aG957a9h7MwOB4zx9iMZB6ZN/pfI6drHQcuDAqMnbzzFNPczC/ypHyx1lNtcx6/xG+WH2Mhu5VIYQQQgghhPh7uWQ7EetOxvPSo/fwv3fnkl/XMHLDXFvG4ulvsDdbb9//0+otVBbkojfZHAl/TOaO73l16hZO1UKt18yvnmft0RJHyvlWT21pDtUGi2P//LIYqsgpqubP3Q0hxL9B3t55jHt3CvsSE+2L5WQXlv3qyLx6m5WS0hLUQXdmfSW55XXUlOXZ37daieHPfj5LeX2M1MyS/7dDTR0FuH/9AlYcykWNgBZDIUu+fJf3v1nA3vhEEhI28/nbn7Fw9wn78QvBI7gp1147nGh/d0fKH+ekcabrgKvo3SIErSNNCCGEEEIIIf5OLunHmV2jehNQsZLpyw9gsP68uaqOCNy5fYt9JEpCVpk9Te3QO3Q8g+zjBx3ppWedF0+p8Uwz01T28/SCrBRyc9LZuWMvGUXVmB0jIjdv3k5ybjm/UI2fObte8Ur5qp/WS03/cb0cj/4ZqjliL28zm+MzMJp/3rX3S/mravKPskMd6bPnGGlpx8gt01NvNZB5ZD9b1Pw2Hz5djllfzuE9Str2PfYG/qnLspd/wFH+4XQMv1C+EOJfSKMjuPXl3D9mDGOU7bp+7cBQQsaJMyMSS06mcbLil8cWhrYawAOjx3DL0M7E9L5WyWM0t1/ThtxDO5V4s43EzGJMxlqOHUqiuM6kvMPEiWOHSDy8l5ULZjJ/6Rr2H8viyLJp/JDsxeOvvcTTj45h7NjnePS6SBZ8M5HkwhrMFTkcSc4kOXEfew40jHTMO77HHtP2xKeQmJxKpRrvzRUk7GqIdafOsyjxLy0zk7y0eHv6vmMn7R2TWlcvGsXG4mUzkarka4+PyrZt1z6KaizoS06w0562g+Pq94TyHlV1/vGGc7ftIqvMSGB0HI0CvexfzOaKXHY7RnYeSC+2n99QfgZ56Y7yjzZ0nAohhBBCCCHExaB9VeF4fc4SEhJo3LgxWq2W4uJioqKi7K/PhcViwdnZ2bF3hqk8m1X787j/3iFsm72UwI69iPSGQztXEtD2GgJqjvDF25+yp6QOg9JoXLJ+H6HN2uFWsI3HnnqCCosrJUXJzJy4gKSCQgoL89m/dC7pAa3oEaljzYyv2V+qRV9ZwfEtP3CkPpROjf1Y9N6DvLE6ByeDmeDQYI6snsryg1no81NZveoIUd06osvdw9pMd4b0aoaTyYShtpJd29R6DSfakqrU6xN7vYyOegU3a49H4Q7+99T/KDe72es1Q6lX4ql6LVPq5d+KnpEerJr8Ad/vSMNoquDg1lUUaiJoF+3Hrs0/4NN6ODHWNHv+u5X8TWfl71N9jE9eeZt9FRZsZSf4/uuvKAnrQUe/alauXE16fjnJWxZxzKMpPaK9WfHV28zemozFXEPi7l2ccGrFzZc1YeOkD/judPmrKVLK79AsDCfH30WIP0L9fBcVFeHr64uTkxMpKSl07tzZcVScC/XexsfH07ZtW/R6PSYlFoWGhtrv859ls9mor69Hp9M5Us6oyNjDymQY2rclGpMZJ52WoqQVfPvDQTp2744bdSyf9R4HrG1p513Byn3HGDxwCHXpm9hRHcMtvePs+eQnrrPv39QtivXff8H8nWkYik+wYfUBAlo25fiyrzhYH0ELYzLvTVmOm687h3ftIM/kTXSEH8fXbcR/2Ciu7xiuXCvKpiMoxJ/U1esxt+2NX+p8/vPyLPQaHVqbD7rSbXz+yTSKXd05eXg7H05cRecrLsMzexdz1x2grKyE9cuXQ1wPwqoSeOn5sWRUaKkoSWH29A34te9OcFU8z33xLd279iAv+QBHjmdyZNN8pm07Sf/L+lC+fzGrDhdQePwAS3Yfo0u3zpiOb+SLr2aRXGWlMCOVCqMb+5e/QbJbP9q45THpnXfZml+LueokK9fvwD2yHYHK99pLz40hvcKZylK1/I328psHedjvnfh3UD+HeXl5+Pgo/36Vz2JycrLETSGEEEIIcVFc4guraAlsdRV3DQ/ku5mLKTg1F6LNQMK6H8gK7s9Lz4zjsYfHMiKylGXL91NrAV1ASwbd+hCP3D+GDrpMbJF9efyJJ3n49k7s352BOhOizbsRfYfdzjNPPMr/HruWtPlryVKnu7J506nPVTz91Cja6Y4xf8kRGrftSoce3QnQ72DHsXKl9a4naf00nnKMyHl83EusPFwJViMJG34gM7AfLyr1evSRsdweXc7yZXsb6uUfx8ARDfXq7JyBNaKPo16d2bc7neL09SzamsftY17giTGPM+7eQWyfvZSUU9NwKfkfUfP372u/7ob8K1i+dDvx29dRGTGMl599lofuvZN2scH2t7gENeP6G4bTq0s72jb1Z+2cPWQX7GbLnjLufvJNnnhkDLcO6YC3pw59+gYWbTmplP98Q/n3XaaUv4SUCzvdmBDiUmA1kbJlDk/b497LLNiSwrnMAmvM3snchQeJadedDt26EWI5wK4MM1ffdiMnF0/lja930OO6B7jx6msZ3L0lPa68mVsGtKDe4kpoiLcjFwedDg9dKYVFSo1sEBzYgrseHMUd1zdh/+INRFzzPM898jCP3HkFTRt52t/iEzeQETcPpX2blkRrSti8+Rh16oHQlgxT4vTYh5/khtZGth/KQh0XaefqS//h/+GBO4cS6N2EUQ+NoXWIFy16DOfayzrTrUtLag8mcbQok5VzFuHa/R5efWIszz+n5DWgFfafy+rNpG5fzEFbe8Y9PY6xjzzGve1h5fxNVKgFhajlP6iU/xQ3tjGy7eCJM+ULIYQQQgghxAV0iXciKjRaul99L3F5m5i89DB1aj+i1UpVsQHfJi3wUlplTjoXQmMDMBQXYVOOa0PDaernglbrTqO2zQkNC0SLE0EhoWhsNvvcf16enkSFN3S0uQUH4Vdzgkp1ZRFvTyIjGuasMlcUkFphpfRkColJGYR1v4a24UrjVedBh6tHM3HaNKYp26QJn3BdF1+l8arUq6gO38Yt8FbrpVXrFYixqAirUqg2tBFNfU/VqwVhYUH2egUHq/Wqx1hRQbGuHY2j3ZTSnfAMC8avPJXyUyueKPlXF9fho1z36fwbB2LIO0leWjEuTRvS0brh76u+sJEdv46P3pnE8u37ycorRVNnoDY3h1RNG2JjlHKcNLh7qOWBRSm/SNdWKV+d9+tM+WWy4ooQQok3rYaMZII97n3E7YPicFWS65WYesrZr/8/1soiUsoslBekKvE1Db+Ow+gYHYB3ZGd6hJxkdY6RPu0ifvwl5uyKn5eJ3OyiH83HaDPUUWkLJzxciV1aLe6RMYR6KDGwqpKUfDdadG2EsxLTnJy98HBXont9DXsWz+Sbr2ex72gyJ8vNmE1me54hIY2I8HdXvnpciQoJpKK44kePFNtMNaxeMIOCmF7c0Cta7Q1l7ldTmbFkA/HJaVRVmTBUVpKcq6Vp52hcleLU+RA9PNS7pWZgo7a4FrfoVvi7a+zHgmKCsRblYVYKClW+v+zla1yIClbKL/px+UIIIYQQQghxoVz6nYgKF68Y7hh7A7lrvuHAiWp7IzEs2p2Tu/ZQog7xs9aRmV5OUGwELmrf2e9QUVrE0cw8LDYrxUnHqAyOI8THcdBBF9qUOH9Xul5xNw+PGc2Ia66lW2Mvx9FfoNEo9fIgb89uimvMjnqVERAbievPnw78GV1oDIG1+0hIqcKGWq9kKoPiCD1VLyX/UCX//LPzTyslsEkMkTG+VKSkUW2wYqvKUfLIBLOB47u2URo1gOeefISeLUKxKq1UbUgUIaYssvP01Jv1xCvl1BnNaEOjCardT8Lxs8oPPKt8IYQ4i87ZjZLck5Tq67BV53H4eIbjyP9PExxL62Bn2g+4k9FjHuaOG2+kVzMfitK3kFrRihuijazcnWrvQHPROmM2WajXBdFveH+Or/iB3afnHqxm1+oVVEY0p1esvz3lNA9vmoZZyEhSYr2yW3Yyhcy8YqgqYsPq3YQPe4DHR91Ky8DfEaDtLGRtms0Ph1y5/dar8HDWYMhMYO3BUm4dO467r+uPr1YpycOHuMhy4rem2OdaNBlqKCt3LF7lpCEwyo+qIzvJU4ce2oxkH8/HM7YJHi7qCUIIIYQQQgjx17hkOxGdNDo83V2wz+7l5ERw+2E8NLQpSblKmtaNtlc9wNDwE7z33suMe/Z5dtVEcuPwrrg5O+PpeqYn0cXVDe2pOcK0rrg6q2MMNfh71HN01be8+dIzvDgvhb733UGs14/P94zqyT3XRLLww0d57tlneG/6asqMNjRKw9nNns8Zrq7uOOncaTPsfq6IyOb9919R6vUCOyobcdM1p+p1pqHq7OJ25o+j1EvNTy3vwVviWPHl8/byPlyRzYAH7qaxd0O9nHRutL5CzT+H9z84lX84N13fhw5XXktj/Wbefe15np+wUGmEuystfBdadWyBMXEBb7z2AZuSK/DwcsMjoiPX9HFi2quP89zbn7DvpA1vD1c8I3vw0K0tWTWhofyPlmfRXym/iVK+EOLfzUnniruLOnb6FA1BTbrTya+cj959kec/n0NmjQ8adZ5CjRYPRxzWuLgr8e3MV9GpfbfwLtxzYxtWjR9rjzdvfr2IzKxjTJ/6AwE3juLxRwaz8/tZbM2oomXrlmQv+4JvFu4muM8NjOzvwffvvai871nGPf0Uiw/CiLtuJ8LL2VFPR6x1C+Ly268gdeGnSrx8lq+X7saEJ3iFMaBPKDvmfs2L70wiqageZ6Xi6veOeo2n6JxdT6er16MvTmXqlK9Jzs3hu49fUeLneHZVh9E+NJvPX32FL77biNnVC41bCMPufhCnQ3N4Urm2F976iB0p5Uocd0ejc6bpgDu5vmUN4z94mWeUeq3O9eO22wbgpdTbzfnM94TOpaF8IYQQQgghhLgYnOrVWfLPk1mzZjFo0CBcXFxISkqid+/e9td/llq1uro6PDx+Pml8vc1CaVkVfkEBnGpS1RtryCosJyQsAg8XDRZ9BTnKvrqQgEdgJCHeOmxWMyUVVYQEBqoFYKgsxOAcgJ+nC/WmGnIr6mkU7E51YR4WrSvVNXqc3H2IDfv5+fYyrRaKCnLQm8DZ05/IED8sdZXkV2uICPG2dwSq11FTmkO9VyN83HT24zkFZfZ6uSv1ClXqpeZTXFH56/Uqryci1Bsnm5WSwpPUGKyny1Pzr1Xyt/1G/kqm1FWWUFBWQ72TmbXfvA1DXuL+AbGUqfkZ6/H19aamBhpFBaCxGig8mY+hXouvjxc1JmciT5efp5RvUcr3U8r/ycgeIX6nU5/vxMREoqOj7f9ely9fzsiRIx1niHNhMBiYMWMGI0aMsC90VaN8uNu3b49Gc6bD7o9SF2uxWq24ujoevT2LunJwfqUap3zO+nVKiWXVZRSUVqlDxgn1tGFU4pqvm4aS8jICA4Ls8arQ4EJUQEOcNylx+9R+vRpvCrKV+KTEVw9fwoN8KCstxTcoBGcljpXmFKILClPino0iJV6ZlLwjwpTybTbKik5SVWex/7vyDokm0KOhVuoK83lKPRsp9VS7A+vrrVQV5lJmqEdfmsbn367hoZdfoZ1vPbkFpdRr3Qj101Fj9SDQx5XKygp8/ZQY6aTkVVtGmdndnl6mXI+/n78ST3Ps9bVz0uAXEo6HuYy8MgNaNz+8dFbcAv3xUOplrCpU0uvsnaqBoRFoapVrcA/F38PZXs/cwlJsyje0u38jwnyV7wLlflT8tHyTO0H+Hmd13op/OvVzuH//fiIjI3Fzc2Px4sWMGjXKcVQIIYQQQogL55LtRBR/RD2l6cdJLbcS1zKGssNLeX/yFka+8zndw+X5OPHXkE7EC+tidyJemsxk7NxHbWQssX7u7Fv0GXPSw3n/hVEEuP35+yTEhSSdiEIIIYQQ4q8iraR/BSfc3erYOO9THh8zhg9mZnD9E8/RMVQ6EIUQ/2Y6dLYcvnrvZcY++jTrMxvxxP9ux99VvhqFEEIIIYQQ4qekpfQv4RHRieffn2RfLXri1y8yrH0sLvLXF0L8qzkR3XcEE76crMTGybz92v20DvTGSZ4NFkIIIYQQQoifkW4kIYQQQgghhBBCCCHEb7qgcyJ269btnObfUqlz/+h0Z1ajFEL8c9hsNnuskDkRz79fmhMxLi7OcfTPUb8u1O1c47oQ4s9TY6U6l2xYWJjMiSiEEEIIIS6qC9qJ2KtXL5ydnR1H/zi1akaj0f5/koUQ/yynPt+ysMqF8dNORLPZfM6diEKIv4f4+HiCg4OlE1EIIYQQQlxUF3Q4idopoI5YOZdN9Uvpsskm26W/iYvnfMRj2WST7e+xCSGEEEII8VeQ/ycqhBBCCCGEEEIIIYT4TdKJKIQQQgghhBBCCCGE+E3Sifi3YCI7JYnyOqtj//wwlZ0gKbOQ85urEEIIIYQQQgghhPi3uWQ7EY3FqUz+5DXWHil2pDSw6QtY/u14pm845kj5feptFmrrTPzZVWaqTx7h60mzyaoy2Pfr64pYMfUzNiaW2PfBwOGVU5m7Ldmxf4ahKpOpH7zK3iy9I+UMm8VE6bEtvPvWqzz33HO8+uEEDpyo/l31PLHje16Zspmf5yqEEEIIIYQQQgghxO93yXYimqsKWLLmB6bO2kD5WUPt8o/uYP7cySxNLHKk/D767H28+MZnJJf/uS43LzcNaRs3cbSkoROxJi+ZOXO+5qulBzGpCeZSNi3eTKHZy37897FyZNU3PP/uPKL73cQDD9zLgBgTk156hbXH8hznCCGEEEIIIYQQQghxYWlfVThen7OEhAQaN26MVquluLiYqKgo++tzYbFYcHZ2duydYSrPZmVmLTHF6QR0G0y0r456Sy1bNqziyPEsnJsP4MbuTajOTeK7Gd8w94eVbE6tpFWLpni7WknetpSJE2ewcscRnAL8SFz+LZMXbaKgvA7vkCiyD6zmYHIqSxauodo9BHPWFr6eMJ2Va/dQ4RlB86gAyhLXsGBjIkd2r2ZnJoTWH2a/oS1D2odw4vBOUgvr0Gda6XJNX9wLjjJ9Ux7D77gMjm/mq8nTWbPuAC7RLWnkqWf76rVovL1Yu2gOq9YcJbBNSwLqM/n2/Zm0HvkKdw6II8A/kMZtuhJbf5CPV1QzZFALDq1ZyD6lnkuVela5h+NlSGPOlM9YuD6BkuIc0i3R3HBZW0x5x5g342u+X7SRXJM/zZuEkb9vLpuT8ti/5ntmLd+N2T+WJmE+8oy7uGjUz3dRURG+vr721YNTUlLo3Lmz46g4F+q9jY+Pp23btuj1emw2G0FBQY6jQohLWUFBAZ6enuh0OpKTkyVuCiGEEEKIi+KS7i9y82pEz04RHNx5mDobGIuOkZbjzIABLdE4gbk8jc9efZPSoL7c+8DdtLPu5YuZGyjJ38v3M7bR5aYHGDG0NyEeLnTr2YsWLTtyzfVX0jbcjZQ1X/PJ2hMMue5qusb44qRxZ8hdyvmXN2LxnFnkVNRRlrKd1yf8gFvrwVw9sC+9+nQl90gCZQYD8clJhA+4hTi/ZI6mlZCdegT3qBjcklbz0fd76HHdHdzYJ5j5384nxwSVWQlsTa3lqlvupm9sLpOnriQ/L5M8fRRd20ef9YfSEd26DW6ph8ktM5K89hs+WZPBYKWenSNNzHn3IyrCBnPvrX2wFeVjrLNgrsjgq48/x9BkMCNH9CN92XR2Zpdz8tBK3p2+jkY9r2docxNffDyVvMqGkZRCCCGEEEIIIYQQQpxyaQ8607rRZXA/itP2kF+pJ3X3Gsob96Opn85+uDZ9J4erYrhm+EBaNG7FVTcMpXLDalLKAjDUZLBi3Tbcm8TRtmkTAsOj8fL2JSo2Bj8PF3CPYtjgy+jQphnBwX40ahTF8U2zmbdyJ8e3pZFhNCt3z4327QZwWe+2REcFENOhL2End3Io7ShHD6TTuk03OseFcvxICseTMvELb0zu4a3sTzjO6u+mM2fdLrISV5ORa8Q9sh3XDb+Kdi2b0W/4UNiznROl9VhwRqf98Z/Jyakera0as1IF5Y1ceXlDPT3LEkgqi+K66wfTomUPrhjcBQ93Hfr0HSxdl8T+DUuYMk8pL2c/uxPLcXLzotvQG7msSxsGXn4VEdZyctTrEkIIIYQQQgghhBDiLJf8k6vuUe25LMTErsN72HAiiJsGt+fUw882qxMWnS/OLg37Gi3obHW4BrXihc8+4aqwLF576TnmbD+B9acrlbg64+7ugpPyUp+zmXGPTcDafAj33nY1TUI9G87RaNAFeOHIHjf/ZrSKMrNpxUqK3fvToWUATVqGcnzvWnYlZ9C6XVN0Flfi+l7D3SPvZ/SYZ/jk88/oFumMVqvB2dFZ6GSvpwF8GuFlySIpvRib/YjKSlFqBraozoT7K7v2erra62mpNVDpEoaHu/1ETEY99fU2bDYn/Jt35z+j7uf++0fz5ufTeWBgFBonJwK8G65Fp3PG2Wijtv7PLi0jhBBCCCGEEEIIIf6pLvlORDSedB7SiTVfLsMW04QWwa6OA+AW05Emhu2s2niM8toyDm/aTV2LnkRpUjiar2PAjaO5s7UXBw+lgYsHXnV6iitrsP2kH81UXk6Jkxtt27TEWFFAbk6Z48iPaZ3dadu8CQeXrcLarSvhOmcat+lJddpiEjNC6dw+huadW2BK2EmNsxeBAW7UlpvQumioyUth49bdFJWXcWjjTvQtetC2cStuvqEZK8Z/wYHsImprq0g/uIYvF6Ry5d1XE/KTv55LVBzhhsNs25tBVVEm67btp1JvxTW6Iy1sSRzJqMM/1A99mR6d5qzVaIQQQgghhBBCCCGE+A2X7MIq1roKsissdGvXCm8vf1zMxTTvMYQmge6UFWRQ4dmSQV3a0bmVPxsWTWXewpUU+nblgftvJkCfypfvfcHCVeuo9GjDf+4aTkx4ENqCfcxZuR/P8Ma4GorxiOpIm0g/nL2CMJ9YzYz5G6hzCyWyUQSdBnbDq7qQk9Yw+naObRiNqNHi4WkmM72EQTeOIC7YHWcfDywnCrC2HMrVA+MIje5IoOEA386ez5oNu9FEdKFDtBtFxWXYqvJYumA+8baWjBl9G42DvIhs25PI+uN8M2M2y5asIKnYxvUjn2BYp1CcLCYKcjJwi+pEa6WeLp6BNAmqZun0yfxwsICYpk3xj2jJZX270bGJC2vnTmTRkg1k1QfTp2trjCVZ1Pq2oVOMP5hqSM8qJ65PZxq5/fx+C3EhyMIqF44srCLEP5csrCKEEEIIIf4KTvUKx+tzNmvWLAYNGoSLiwtJSUn07t3b/vrPUqtWV1eHh4eHI0UI8U9x6vOdmJhIdHS0vRNx+fLljBw50nGGOBcGg4EZM2YwYsQI+486aqdiy5YtHUeFEJeyQ4cOERwcjJubG4sXL2bUqFGOI0IIIYQQQlw4l/7jzEIIIYQQQgghhBBCiAtKRiIKIf4SMhLxwjp7JGJJSQmZmZn4+6urMQkhLnXqZ7pNmzYyElEIIYQQQlxU0okohPhLSCfihXV2J6J6r9V5EYUQ/xzq/zdSpymQTkQhhBBCCHGxXPBOxF9aFOX3UqumNoTd3d0dKUKIf4pTn2/pRLww1Hs7bdo0brrpJkeKEOKfxmw2s3LlSulEFEIIIYQQF8UF7UTs2rUrGs25Tbuo/squrj4ohPjnUcOPGiukE/H8UzsRp0+fLvFTiH8wNYZ6eXlx2223OVKEEEIIIYS4cORxZiHEX+LU51tGIgohhBBCCCGEEH9/sjqzEEIIIYQQQgghhBDiN0knohBCCCGEEEIIIYQQ4jdJJ6IQQgghhBBCCCGEEOI3XbKdiPU2C/raWiw2R8Ip9TYM+lqMPztwYdmsZvR1Jk5PMOmox5lq1GM26H+xXlZTCWsWziG50OBIEUIIIYQQQgghhBDi7+OS7UTUZ+3jqZHX8emK41gdaSpzWTIfP30fz8zc40j5fayGKo4cy6DGfHZuv19V+naeeep1Ekpr7fvWyjQ+eeo+vlybYd+HGlZ+9gwfLI537J9hNpSye/UPZJWbHSlCCCGEEEIIIYQQQvx9XNIjEfOwsXfRKvJPD+CzkX74IIcPHyanqs6eYh+xqK+ltlbZjBZ7mspiNjak6euw1tuozNjHex9NIKmoUtmvx2wyYrWo59RhUfZPn+/YV9ksBowmkz1/t9BoIutyOJpTYz9WfjKTYxlJLF+5m0plv76qgP1HjDSNa2x/36m8rGetjW0zn0o3KlcihBBCCCGEEEIIIcTfg/ZVheP1OUtISKBx48ZotVqKi4uJioqyvz4XFosFZ2dnx94ZpvJsVqXoaeeSQ31UL5qHeWAzlrFy9Rr0GLCE9+SG7k1I2zKHd8d/yYLFS1mx6yjhTVoR6VfHyi/f5aOv5rJ4w34sXm7EL/6Wmcu3k5ZbTkB4FHvnfciUtftZuWgDVv9GlO+dxbsfT+OHhWtJNHjRvU0MuZsn8fyE5Rzes4kDJ1yJCchgQ144V3ePIHn7JopdY/HKzqfZZQNxLTzMwsPlDL+iAwcXTuSjSTPZuFI5x7MZcZGwfckPZJRVsGzubBbPW4+taWviwv1l0krxj6Z+vouKivD19cXJyYmUlBQ6d+7sOCqEEEIIIYQQQoi/i0u6j8rZI4hB/TtxbP9Oas1Qk76LjLJweneMsB+vy93JhC+/p+d/32HatG95ZrAPE79ZQXrGYdZuLuWB979h0kcvcHnHttw26kH6X34tb7zzPEPahmHMSSZX25xPJrzJ9T2a0bTD5bz6+ZeMf/U2MtetJL1cj6WqiMPJZQx/5CWee/g6BvbrjzHpCLkVNRw+doiQbkOIDcvhwNFsUpMS8Ytshn73EhYl6Hjxg8945Ylr2TN3BqmVSt2ryrGG9+TziZN55ZE2/PD1MvJkikQhhBBCCCGEEEII8TdwaQ900+ho2qkn5uwk0ktK2LvrILEDhxLiGLhYl32cbNd+9O4cplyoM7FdO+J7fAeF9a1p2ayKL996meUHj+Lk7IVTw1vO8A2jb/f2uGo1aJxNFKYn89lrj/HkmxOIP5BHkc0GOhdi2vWhZbiX/S3+zbrTxHqQ3Qe3kX7UiS7t2tG1VXNOJqRw9GgGgdHRSj572btvI68+PpZnPphJraYWfZUB39AYBvbohE7jRGjrdgTnxVNQbs9WCCGEEEIIIYQQQoi/1CX/tKwmqDk3d/Nj5Zp1HNTHMrRrxOmL0nh6U68vpbJWnXiwHlNFFfWuXngFhPDAu3N498F+bJ85gakrj2C0OYHNdmZ1ZWVXq23IqerYGt7+dCtXPfY+E956go6xPvZ09SQnV+fT5bl4NKJNlBfrFq+kJPYy2kS6E9M2koT9M9mTmEuXjq3wc/el91X388WkaUyfPoNpEz6iW5QbdXV1VNUZlVzqMSv1tCn1dHFpyFcIIYQQQgghhBBCiL/SJd+JCDoiuvWgYPFWAlq3IdTzzPyJHo17MSjiJN9Nm8PGreuYvXAXQVdeR7RhD9NmLCOjVEvTIG9MNgsevoHEUsWuPQfIq6w705mocvbD189A2uEDLFm6muSMCseBH9O4uNCmfStytu4iuGtrvNAS1aI7AfnHSLN0oU1cEG0vG4rn0UXMX7uGdWuWsGTVAdSnlq1FyaxfPJf1m9Yxac4m/K+4llb+DfkKIYQQQgghhBBCCPFXumQXVnHSueDvF0TLmEa4ugUQ19af5nFdCHDXonH1IqBRHK1jI+jctw+GvCMkp+UT2ulqHryhJxqzgbRDB0grKMU/7jLuuLEv3j6+RAU5cfx4HoGRjWkcHkBU4zjC/dxx8W5E8zATx1Ly8G3Rn6uu7ErrNk3xcfXAOziW1jGB2K/SSavshxLUKJbBg/sT6KbBycObqJBoGvfsT+emQcrx5rRp5smRQ8corjQR220AzQLd8QtrQlykL8eOpePZajCPjeiHi/ZnD1kL8Y8iC6sIIYQQQgghhBCXBqd6heP1OZs1axaDBg3CxcWFpKQkevfubX/9Z6lVUx/z9fDwcKQIIf4pTn2+ExMTiY6OtnciLl++nJEjRzrOEEIIIYQQQgghxN/FP+BxZiGEEEIIIYQQQgghxIUknYhCCCGEEEIIIYQQQojfJJ2IQgghhBBCCCGEEEKI33RB50Ts2bMnOp3OcfSPU6tmMplwdXV1pAgh/inUz7fZbJY5EYUQQgghhBBCiEvABe1E7N69+zmtzqxW7ddWZxZCXNrUz7fNZpNORCGEEEIIIYQQ4hIgqzMLIf4Spz7f0okohBBCCCGEEEL8/cmciEIIIYQQQgghhBBCiN8knYhCCCGEEEIIIYQQQojfJJ2I/496qwW9wcwffebbZDRgPX9PigshhBBCCCGEEEII8Ze5ZDsRrYYqEg/uZtu2bfZt14EEKuusjqPnT8mx9TzxzKskl+sdKf8/s76Cb958mJk7Mjn/NRJCCCGEEEIIIYQQ4uK6ZDsR607G88orb/LDxu3s37+XFXMn8uqTX3KkuMZxxvnhFd6Ka64cRLi3myPl/6fROdOj7+W0j/SToZ5CCCGEEEIIIYQQ4pKnfVXheH3OEhISaNy4MVqtluLiYqKiouyvz4XFYsHZ2dmxd4apPJs18dWMfXEc1w3qT/8B3ag7soD56W5c1qU5GlM1RxMOcTwtB6OzD35ebmjMZSTsP0xK5gkqLW4EBXgpaXqOJR4mOTWD7BIj/t5aUjPzMVbnk5BYiHeoPxo3b8L9vajKPkZ+tZWT6UlKvnnUe/ri4+GCk1Kf8tzj7I8/RnZeCS5+IXh6KvkHh+HposVUdoL9h5PIPJFFtcabEF93zPpyMvLLMRRnEJ+USqXZUZ+GyxPiX0H9fBcVFeHr62tfnTklJYXOnTs7jgohhBBCCCGEEOLv4pLuRFy+I42+Q/oT4u6CRutFuG810yZtoO2gAcQv/pLFe1OpyD7GqjVHadytMYkzPmbWxiz0dRVkFllp274RB+ZN5KsVB6iuLubwgRxiGxl489nnSK61YqrW4uOWzZvfLmNw3y5s/3ocr/5wjHpjFWn7t7JUKb9Dj04Yj6zgy8lzSS7Vk3H0KHUaDzbOfYXS4MuItqbz5dufsC2vgtqSEyzeeJDwZu1wK9jBsy88Q2GNjZM5CUyftZuY7t2I9vv9Ix6FuNRJJ6IQQgghhBBCCHFp+EcNfHMJCiTayUTV8U3MXZxA84696dG/L8F129ken0NmejGhvQZx+30P8OBNPdHm7WTJ6kzufPRFnntqHK+/cC9RPh5onCLocd09PPzgtUQ6n+kEtTlpCI3rzuiHx/LCq4/RtCiBQ2lpLJy+HN/+D/LauCd47dVxXNWtMfZ3WY0c2bCIDL/evPLCCzz52P+4PaKEpUv3UWsBp0btuPo/j/Lk2KcZGlHMrqMnUZKFEEIIIYQQQgghhPhb+Qd1ItZTm5VPlU8LfMjneJmJvIwE9h88RkCnK4mLasHQu29Ge3wF77z2FHP35mDKzuKYrTnNGnsq73fC3csTdcyjLrwRcSFe9lzPptPqiG7SAk8XDRoPT0Lca8lPLSQp35023aNRktFqXXF3c2l4g81KZaEev+Yt8VEydtK5EtY4kLqiQqw2aNQomgg/V7Q6d2KC/SkrrZKFWIQQQgghhBBCCCHE384/phOxuvAQk77fQ4erBhMb2YS4QE96X3s/jz3+KHfdeBO9Yl3QRfTmqRffYOywONbOXkm2VwwB1ftJSq/BhpWy/GIMll/vxrPYbKQmJ1JjAkNJPmnmcGKaN6JVeB6HdmahJGPQV1NZU0e9+gaNhrAod07u2UuJOvTQWseJzAoCYyJw1aknCCGEEEIIIYQQQgjx93fJdiI6abRoyxOY+N4bvPD8s7z74Xe49buTx27tgG90L+4eFsK89x/jxRee5/0ZayitPMmSrz/g9VdeZ9L8JCI7tiKiSU/uv6ExSz57vuG86aspMzvh7qazL5ZiL0erw92l4ZFmJ6uBiiMref+15xn33lRce1/FFR1bcv29Iyle8xXjlDxe/eALDmZU4OLiqrzXnTbD7mdwSAbvf/gazz7/ItvLQ7jhmm64Oetw1Z25/ToXF7ROp0oVQgghhBBCCCGEEOLvw6le4Xh9zmbNmsWgQYNwcXEhKSmJ3r1721//WWrV6urq8PDwcKScUW81U5ifS42hYeSg1tmLiKgw+yPFKpvFRMHJbPRmcPEOJDrEh7LCfMpqDDg5uRAcHW1/xPjsfNTzooK8KCqtJCAkyP5os5pPYXkV4cHuLH37IfbEjmF0r0AM9TqCwyPxddcpmdjQl50kr9xo73QMbRSJtTIXvBuOm2vLycovVe62E17B0YQpBav5llXVEBQQoF4opupiKuu9CfZ1b7gAIf7hTn2+ExMTiVY+j+rCKsuXL2fkyJGOM4QQQgghxP+xdx8AThR9G8CfJJfrvcBxBwcHHL1JhwOkdxEQBOz0LqKoiEgXBVSkd0RAeu+9t6OX61zvvZf0vLtJqC8iRxPw+X3fviYzs7OzS26T/e/sDBER0avitQ0ivnz5hiDiJZ9vMLVndVMaET0tBhGfL7VabTimRERPy8zMDFLpGzPSDRERERE9ZwwiPrFCnP5rDkI83seAFmVNaUT0tBhEfL527NiBxMREQxCAiKioVCoVqlevjmbNmplSiIiIiIgexCAiEf0rGER8vjZv3ox69erBycnJlEJE9OSio6MRHx+PDh06mFKIiIiIiB7EZ1aIiIiIiIiIiIjosV5oT0SxV4xMZpzZ+GmITdNoNJDLxSlOiOhNIv5963Q6w7mCPRGfHXsiEtGzYE9EIiIiIvonLzSI2KhRo2can0tsmjhGj4WFhSmFiN4kSqWSjzM/JwwiEtGzYBCRiIiIiP7JC32cWQwKiD0Rn2URPSqdCxcur/fCGUCJiIiIiIiIXh+8iiciIiIiIiIiIqLHYhCRiIiIiIiIiIiIHuuNDyLmpkTC78wZxGWqTClERPRvKkiOwJUL1xCblG9KISIiIiIiolfdaxtEzIm7geXb9yMzX21K+X/qglBs/P1X7D3tj6R8iSn1Qcq0MKz4fSrGjx8vLBMwf9V+pChNmffR67QoVKpRtFlo9EgLO4+Ne04hR6E1pRERvRyqrFhsWvoTvp+5AH6RWaZUPbKE8+fSn77H1N+XIiBJYUp/OXSqDOz9dQS6vtML01adwcvdOhERERERET2t1zaIWJgWhX2nz0Kt05lS/l9hfCiu3rZB72FDULek3JT6IE1OEo5fT0aDLu/j008/Qafmb8HxEUULYi7hh6lzEZxZYEp5EjrkJAfi6Nkr0Px9M4mIXghtfjoOb/0DC1auw634XFOqHvlpYdj2xwIsXb0J4WmPuGvyAkmklihbtT6aNGyCt3xK4tFnZiIiIiIiInrVvBGPM0f7bcSeI0fx16KfMG7KbBzxT0RheiQ2r9+CU1dPY8mvqxGSlo24q/sxc/pkjJ84CauO3IJeb+xXKDG3Rxmf8vARFu8y7sgLOYm1m08gW69Dcug5LFm3HpvXrsGh/Tswf95ynAmKx9mDW7Fn/y7MmjEfB69GIvjCbvw0fjy+HzcDO/wi8f/9I3XIj7+GZTOnY/yESVi5+7KhB05eQhDWCO0We0JOXLYDSdlK6DRKnD28ASeO7sUv0yfih1/+QkRGUYKXRERFoRfOO2ooFIUoLBQXBTRaIU2rgUJ8rxDOS6Zu2Dq1wlBGoTb1rhbOoxq1yrSekK5Q3Suru299rVC/UK9OaoUavb/Fyk0L0PfdyjDOwS9UI5RVKox1i9tX884LERERERHRK+WNCCLGXtmNH1cdRLE6HdGsZA5m/7IKaVI3NHvbFzVrNEDnHq0gCduPabP3o3zrbujdtTkC9y7H+rPREK6TgcJkXPc7jzNnzuBWeArMXb2Qcms7jl0MwNF9Z6B1rojmbzeCt081tO/QCpWKWSB4/yLM3Hsbzdq3Qa2S9sJ1tBma9foU3Zq4Yuva1YjLKjQ27g5tKrb+vhi5JZvjw149UcZeD2VWJBZMmYoEu3r48NPeqKw4j3lrjyKvoACn/5qIVedT0apLRxSPO4i5Wy6BD0QT0YugUSTh8KZZ+LB3K/j6+qJNmy5YvOUCIm8exNAuvmj/wVCcCDP2ZAw6MBvvtvXFxxNXIiVXA0VMABZN/xYdOnQwrNu9R19s2H8dBRodkgNN6/fqj5WL56P/+32x9OAN/DW9F3zfbonRK08Z6tQoCnBh73qM/LC3oY7WrTth3I9LcCks1ZBPRERERERE/743IogosbBFg7bd0aZ+TbRq1xHFVemI1+hR3L0YrOV2KFXKGZF+l2HVoBM61q2BajUboWd9Z1w9cRUFaqAwOxlXL/jB7/I1BERnwtylJN5rXQfbfv0WV5I90btlbbh5loG9vRPKlPeGk405YFUK7Vu3Rp2aFVG8mCM8vbwReWYLdhy5iNDTYQhXPtQXUWcFWycZ/P3PIU5ti0a+dYDws7ic5ol3u7ZGZZ9q6Ny9LbKO7EdwplC9ZzW827kz3qrWAN3eaYDoW5HIMFVFRPTc6DQIOb4G334/CzcibNDxg77o0ro+VIo8qLUKJEZHICIqBnlKY89AVV46IiMiEJucYRgjNi36BoLSzNC5cw98JJzDCmNPY+wPU3A0LBM60/qBl47h17lLcCIkCtn5SuSlRiEiIhIxGQXQ61S4tGMhho76FltOnkNCYiLCb9/A8rkTMHD8bNxKeOiGDBEREREREf0r3oggolQqgZOdreG13MwccoUO+abH6Qz0OmiVekjNrYzvpVLIzGWA1hjos3KvgX6jvsBXX4xE75YVYS6Vw9XTGzZSNVQenrC687zd/SzlsLKygDhdS0HcKYz9fD4UZZrhg/faoYybjbGMQHxE0ExqbnhkuuOISRjWsiSOLv8S3y84gHwVoDZzgoW5sazETAJzbQE0GghpclhbWhjSrS2soMnMA+eXJqLnTqdFdkIc4jNlsLcpB9+GLfHpyK8w8L3GsDUzlXkM9/qd8EX/3mjasDYqVq6Acm72KEiKwK2g2LvDOqjVetTqMRD7dq1FvxblcX+16pxAbJz/B6KypGj66U/Yfegkdi2aiOZelog5swc7z4VAOH0TERERERHRv+yNCCL+I5k5fN7yRsqxHQhMSENuZhwu+aegTM3KsBFH9depUVhQiIKCAiiUKijzY7Br72HU6zAMjv47sftGIswsrWFTWIj03IK7433doUpPR7LeCm/VqgF9XhoS4jMM43sV5ucgOiwFju7lYIVM+Ieno0ydzhj1wbtIOH8BSa414a08gwMnQpBdkIVbJy4gr3wDlHU2VUxE9DwI57X8AsXdIRH0hv+D4SYIZGbwrtUMvj4OiA3ZiKEf98LwcbNxPiITOsmjZ7W/S69EyNmt+HHEx+jTsy8m/bwAZ2KyoMlXICstGxpTMcsSFdGl28eoWakcXGwtTalG2pw0RKYXwMKyAj7s/y7qVa+A+u/2QqemdWCZl4mIsGio7lRERERERERE/5rXNogot3ZC9XJeMJdJYeteCaVcTL3/5NaoVKMcHMWehnJnlKvoBUszOcq1GISRPcpg0Y9j8cV3M6Gr1gMft6sCM0s7lDKPw9zvv8KwYcMw4bflOHTgMKLNquLdXh3Qu2t5XDp4AoX23ningQ1W/TYPRwIS4VKyHEo4GC+Gbcs1RZdaWZg59mvsDVbj7c4NIU26gbmTv8GZFG989snbsIQKAQdWYezoEZi06ha6DPsIVb2rYuzEoUg4MAujho3CjoSS+HzMB3AxB4qXrAB7S9M/j21xVK5QAqYOi0RET8TS2hYujs6QZGXixmV/pOZrAXU+YgP9kZIO2NkWQzFXB7i/1RWL/9iEX4d8gKrOKpzcMh9TFm1BnsYGtg6ATqlCdmYBNGoF4tNyoTbNeaLLiMG6P1ZiV4o9+s1Zjc2rf8U7NTwe6GkokpuZwcbC2LP6/8jlMJdIoEc2YmJSodQAqsxUJKZlQC01g7W1JaT/EMskIiIiIiKiF0+ivzNF8XOwdu1atGjRAubm5ggICEDjxo0Nr5+W2DRxpk5ra2tTChG9Ke78ffv7+8PLywsSiQR79uxB//79TSWoKDZv3ox69erBycnJlCLQ5GPvnFEY+csW5FpVQIcOLeEpS4ffoZ24mmqGxh/+jI2/f4SC0FuIsyiGiu42uLhqLPpPXg+971Dsm9ABv3zRB9uu6VCjQTs0rG6Pcyf2wD8sHZXe+w5bv++IWV99jFV+2ajf9h3UsE/Dsb37EZFeHINmLcGg+mkY0bM/AmzrYsGfW9GlugO0ynwsG90IYzeloMmYldg+qibmD/wAU/YFwLFcM3R5uxKkKf44cOQUFO71MGPpevSo6/of6TZP9O+Jjo5GfHy8YZIkIiIiIqJH4XUZEdGbyswGzT4ZjN5dG8FZGoPd6xZj0erNCFc6o37HvvhmVCfY6dSI8tuAft06o5lvcwyffxhS1wYY1KMTvKtVw7vtO6OUvQo3/bZjy4UE1GtQE66mjt9mLiXQurEvSpnl4uKOjbgQkQ+fcjWK1GtabumOj777HJ+09oEs6SL+XL4Qf+45DxSrhv4DRqJzTQYQiYiIiIiIXgXsiUhE/wr2RHy+7u+JqNXeGf1QpIciPxEXzhxHQJg4x7sMpbzfQuOmteFqZyFka5EdcxV7jtxERkEBpI7OKF+5GZrXLQXxAWRNThSOHTqA2ylA+bodUNkuCgdO3IRd2Qbo1rIuzApjDPlhafao26YpZOEXcSEkC9XfbotaHkoc3rkfaWbF0KpTV5R3tYBOo8StY2txKkyNEnU6oEeD0oZW5qXE4OzJ8whNShG+N6xRpc7baPhWWchlDCESvUjiuVcqlbInIhERERH9IwYRiehfwSDi83UniGhnZ4fLly9DLhdnjSIiejzx3Fu7dm0GEYmIiIjoH73wIOKzXMiKTVMoFLCysjKlENGb4s7fN4OIz8f9QcQbN26gQYMGMDN7eIqTJyf++2g0GgYjid5gSqXScNOhTp06DCISERER0T96oUHEunXrGh6ReRbiReyzXAgT0atLPP2I5woGEZ/dw0FEX19fWPzdjMhPQPy3YU9wojdbfn4+/Pz8GEQkIiIioifCx5mJ6F9x5++bPRGfDwYRiaioGEQkIiIioqLgiPVERERERERERET0WAwiEhG9wcQehY9bnie9TguFUo3nW+s/+7e2S0RERERE9F/CICIR0RtKHFM2Ly/vgSUjIwOpqamGJTs7GyqVylT6yWkUuQgMj4BCrTOlGCmSAjDtx19wIzkXBanhCI5LN+UYJUUHIilbaXr3/GRFXMDYb77F9aRcUwoRERERERE9b69tEFHseSKO13VnUShVeNJONTq1EueObUFoSlEuZvVQ37c9pUrDXi9E9MrT6XR3FzFoePjwUvz115dYv/5rXLx4yBBoLKrs6MuYOud3JOU8dA7VaZCakgqVTo/AI4swceM5UwagUeZh05JvseVqkinl+bFyLYM2bVrB08HSlEJERERERETP22sbRCyIuYRR/d7HJwMGYejQoZjw2wpEZJky/4FWlY8bp7ciKuPJe+CkRJ3FwmkTMWLwUGF7ozB55gYkak2ZRESvgaCgIGRnz0KjRn+hXr3VuH59sWFihWeVFHYFZ8+exfXbSXiikKROhfjQWzgvrHP2SghyVSpkx4ciIVNhyi5AaHSssaejOhuBly8a6r96Mxpi2NKQfzsCCTEhQvotZMMKZStXhr2ZzLB+RkygofzZi1dfSM9HIiIiIiKi/6LXtyeiVo0Cu+qYOH8JVq1ahZnfDUU5pwd7KKp19/oKalRKU7oSWlOXRb3mTpoKdx7K06pVpjQFNIZyeuQFH8GvM5bDusVnWCpsa+WyeRjRoxostML1rXDxq9OK6xjLP3L7eg0UpjT2YCSif0uJEiWgUFSAmxsgl5vD3t7nmWbQF8+PUWc34OdJP2HfBT8cOX4aIVH/9EixDsnBR7Hgl6U4dOI8Du49ioS8TFzeNhtbLhp7KSpTgjF75WpDT8eMwDPYtvcwzp45i4W/zcLh2xlCfghmfjsIP63eistXgxEbeRlT5vyGxOxCRJ3fjN9+/h37zp/DgZ1rMHX+X0I6A4lERERERETP6o0bEzHi/FZM+f5zDBkwHBNm70SSQgNVShD+/HUc+g4ain7Dx2G7XxSUBdk4uXslvhw1GB91G44d/gnCta0Sl3fMw+dCuQGfjsS0tSeQr8rCwS3bYN5wED5pWQUy4YhJ5RbwqFQLTvo8bFnwA76cOgujR0/BzvMRCLmw7cHtF2qQ4b8P40eNMvRg/Gr8AoTnFX0MMiKiZ1WyZEm8/fbv2LChBAIC3kL9+v1gafkMjwBrUnFs+2GU6PwDJn01GqM/aYsyxaxMmX9Dp0FaTCwyzVzRuvtHGPt1X5R1sjNl/j/7Cm/jw4/ehW/DuqhgmYZjxwNRKKRLdK6o2/ETjBrZE2VtTIHQggTsXLsdlk2HYdKYrzFZOBd7x57FycAHx2YkIiIiIiKionutg4iqpKtYMms6JkyYjOUbziA53g9Llu5E/Y8nYtHc7+EWvRfnwqNwYPHvuKptjAUrVmLJzK/Q0MseBVnpUBWri3mLFmNYB2ts3H0VhVqgVLXmmDR/EeZN7oPww3sQkRiLkBANatSuDIuHjpZer0NBdCAidGXw24Jp6Fg6HX8s2Y564vbnjUexmL04G5kBM4dKGDB9Nub/NgVVcQk7ToZBbaqDiOhlkUgksLd3QXa2FGZmmVAqxXDcM8jJRHC8NSo3KAk5JJBa2MPa2vhIsUQihV6nu6/ntfBaJxG+dcxRrmEntK5jhb/m/oBJf+xDWq7xxsqd2aLvjm+rz8OVvZuwYtFKHPO7iNsJBVCJ498KWTL3EqhUwt5Y7g5FARIynVC1vtgeYVNW9vCwUyA+lT0RiYiIiIiIntVrHUQ0cyqPNu/2wEcffYCWDStDEn0d+8/fxl+zx2PYV1NwKSUbKYGhOOpvjvYft4WLuRT2rh4o6eECR3dvtGxUB2Yya9SoVQWF4QnIlquRFhWG+ZM/x+gp83HjUiKShQtjC5kK+fl/cxHqUBzNGtYSykihiLmOfcL214nb/3IyLiYL20/OQ15mOg4vGIeho7/F7hNxyMjMufv4NBHRyyQGEs3N3aDXl4GdnYMp9SlZ26FsMRUiQ5INYyFmJoYjNjHNkOVW0gfqazcQaJp8JTfhPOKT3FGznAcgt0TrXqPx89cfQn9uP86FZcHS2grRtyMNYx5mJoYhJkmoJzsZh/acRrEOQ/HdiM/wlqe1oa6/ZW2PCh7puHk23FCPKisV4bn2KFXiH9YjIiIiIiKif/RaBxHFXi9lK1RAhQo+KFvGBXJrJ/hUa4FJ8/4wjJO4Zs06DG5THrZmqcjNLDCso9NpodPrIZFKYCY17r5MZga9Uo2soIOY9ttRtBnxMxb9NAa1y9oDVsVQp44LTh88j4z7xljUak2zqgh1yGSmnjfWzobtT7xv+0Pq6rBg+kKkVf4Ey5fMwYctfQxliYj+DXZ2jmjVagoqVfoOJUt6m1KLRiKVwUIunPcsi6F1n9bwX/8rvp/wA5bvPge1zNg7sETdTuhZtQCLvv8WEyZMwLgZO+HSqT/qlwTCz2/E+DHj8cvifcgvVh4lSxRH5WadkXN0Kb69U4/EDrAtDt+Grji3ZQUmzVqB67FK4bwtMfRytDAX+xqaSGSwlJsJ7SmODp8MgOLcn4Z6Jv26AnqhHZ1quJgKEhERERER0dOSTRKYXj+zmzdvwtvb2xBUS01NRalSpe4G2J6WRqOBXH7fxaKJKjMGe86GoUmbZihmZcyXWTkgSbg4PR+nglyXDr8L4XCtUBWuugjsPRQsXJBqEHL5GnJUZki4fQYu1d5BOVcLFMZcw44rGrRp4YkrZ6/BwaMEIi8dwa4DcWjVrzvqVymDwC0rcSwiB3JtAeIjQnD9RjBsSpVGhN8hKEs2QoPyrjATtp98YSPOxShhrjdtv6QTEm+eQJ5TOWgTb2LHuiOwr9cazWuUhHDJS/SfJv59p6SkwMHBwdBDLjQ0FLVr1zblUlEEBgbC09MTFhYWSE5OhpeXl+HcKS7i5Cl3FisrKyGvPEqU8DKUNTMzMxz7R/m786+Fowca1q4DT1cnOJesCN+61VCpSk281awz+nRugtLFnGAut0fVxo1Rs0pFVK5WA42btUa7RpVgIZXC2b0cqlSthGpCHa3btEClYrawci6FJk1qo5qpnt5t6qOEqwu8qtZH7WoVUPOt+ujxYRc0qOYNF7cSqFvnLZQRtmMmtF1sT6PadYX2OMK+eFk0blwTFX2q4K23GqB1k7qws+TZluhR1Go14uPj4eHhgezsbOTm5sLHhzc7iYiIiOjRXtsgokQmh52TKypX9IaV1HgBLLO0R82GdZETcRGBoYmw8a6KBpW84FWlPsqYR+H8xRDkSaxRq04duNtbwqNMVThZy6CTCBfZDiVQp34dVHErxM2AaNiWb4YO7WqjSrXycBPymrdrCnViIG4EhCIuKQNWpeujno8LbMzl8PCuCE8na5gJ26/VqN697ZepIlzwVkXZssURevMasiSeeL9Xc5T29hEufu3w6Mt2ov8OBhGfn0cFEcUAoVQqfezydwFE0d+ef6Uy2NnYGtYVewVaO7jAxcUFTraWsLG1MQT2jOXksHcy5rk42ZnSJZDKreEkpgmLnY2FUIeQaqjH+V491taG+qVySzgb1reHuaUtbK3MDWUf3I4Mtqb2iJXJrR2M23R2goXZa93hnuiFYhCRiIiIiIpCor8zkv1zsHbtWrRo0cLQ2yUgIACNGzc2vH5aYtMKCwthLVxMEtGb5c7ft7+/vyHgJQaA9uzZg/79+5tKUFFs3rwZ9erVg52dHW7cuAFfX19DQPFp8fxL9ObLz8+Hn58f6tSpg+joaENAsUOHDqZcIiIiIqIHsYsGERERERERERERPRaDiERERERERERERPRYfJyZiP4VfJz5+Xr4ceYGDRo805i04r/P342JSERvBqVSiStXrvBxZiIiIiJ6Ii80iNiwYUPDwP5PS2yaSqV6pnG9iOjVJP59i4P6M4j4fDwcRBRv4jxrAFAMMPD8S/TmKigowKVLlxhEJCIiIqIn8kKDiPXr12dPGCJ6JPHvW6fTMYj4nHBiFSIqKk6sQkRERERFwceZiehfcefvm0HE54NBRCIqKgYRiYiIiKgoOLEKERERERERERERPRaDiERE9K/SKHIRFBSKXJUWBakRCI7PMOUQERERERHRq+I/G0TUqFV4fg9yPzlxuzphw3qdBgqlGneaoNWoDI8OimNA3p9ORPSqUWXGYv3inzBhwgRhmYi5y3ciUWHKfAo5sdfx8/RpCErPR9CRRZi44Ywph4iIiIiIiF4Vr20QUavIReD1izh37pxhuXIzCPkqU+Y/UBdkYeOyiTgXlW9KeTxVZjRuBgT/f/2qTPjfDEB63pNtWKfMwxbhwnvN2UikBB/DV2MnIzijQMjIwKEl0zB61Fhs3L71XjoR0StIm5+K4xcjUK11F3z44Yfo2LIenJ5h/ivHsg3x84yfUbO4nSmFiIiIiIiIXjWvbRCxMP46xo+fjA37j+LMmTO4eM0f2U8YRIReh5zUKOQrdaaEx4s8vgxdPxiC3bdSoDWlCZUg+MA89B36NfYHpJrSHk8vbDc/Ix4Z+SpYF6+Adq2aoLi9BfLiL2P/kXQMmT4H3Vs2uJtORPSqkpjboYxPBVSsWAHly3rAHGqcObAGu/bvxu8zp2Dioi0IDw/G1hWz8MP4GdhyKhRKYT11RghW/z4TEyZMwtxl+5EhTuCSHoWjFy8i+0nvBBEREREREdFL91o/zmztURODvvwK33zzDYZ+2hMetoBWmYvAG5dw/vwlhCfnQGt6LjgzPlRIO4/zl64jKUdheFxY7GF4+eIFIT0QWSqNoVxuShQuieXOX0FsRj4MYUZzc7gUd0bo2UsoVBsr1Crjsf9YCswdjeuJVJkxpvrOIyg+y5QK5CeF4JKfUOf1cOSrjWFIuZUjylapAitlPgKu+iM6uwBB1wORJ7M1pNtCYiiXlXD7XruzFchNjb7bvph0U/uIiF42RRpuXbloOD/dDEuCWq3E1S0/YemRCDRs2xZuoZswdPRvkFRqi7Z1bLFhzSrEphcgNykVbnVaonePd5Efsg0bT0ahIDMee48dRYGKZzQiIiIiIqJX1es9JqI4rmChwjCWoEqthU6Vj8MbFuGPrXtwYt8WzJq2HMEZ+Ui+shNzf5uDbUdOYsfWHTh7Ixp5ibexZft27D28Bwu+H4sVJ0OgVxci+Owu7Dl8Cvs2rsTEBeuRUaAGJBYo26gpJNFXEJslPmasR3KAPzJKVsbb5c0NTcmOvYG5k6Zhxc6DOH7qIH6eswRXorORE3sTv42fKKQfwIWzh3AlMMlQPjPsDCbOW4z0zExER4YhPTcBATeCEBN+1pCeWaBCytXdmPvr79h2WGz3dpy6HITAszuxW2jf/o1/YNKCdUjPF9pHRPSSKXNScPnsGZw6cx7XbqfAcDvFqTSat26P+rUaolWzarBwqwZf35po1PhteNhIkK5Sw877LRQrCMTGzZsRGhCDQP8oQw9FIiIiIiIierW91kHEnMjT+PGbURg6dBR+XXYUceHHsWHbdVSs1wLN27dGCcUZnLkViK2rdsOuyRBM+/5bTJ86Fh3qloHepjgatu2Fid9Pwdih9XHhZAByzSxRtfE76PZOS7RvVRdZ568hNK/QsC0r91ro8JYGJ/wToVUX4sr1qyhZqS6s5RJAp8KtI1tx264hpkyaiO++GoM+HinYvus8rp89iAz3tpg6eTK+GPwpqpR0MdR3h9zeHe07tEflMvXw0aD3UEouM2aok4R274S172BMGy+0e9p36NyoMqo36oLuQvvata6H7Av32kdE9DJZFKuCvp9/iW+//hKfdqgBwwAMZmawsrQ0fLFY2TpA7upoSDczk8PSwgrQpGH9jxOw4ZoWXfv0RsOqpcS1iIiIiIiI6DXwWgcR7cu1wNR5S7Bq1VJ8N6wtbNPjEZSuQFSgH06duQqbqi1QTlKAW/E2qNGoDCykEsjklrC2soC9vT3Kliwh1CKFR4kSUESnIlMRic0r1uOv7Xtw0u8aUlLycXd6E4kUFXzbIvLkCUTEBSAmXYoW9XyMB1CrQVZSPpwqVIG9XChqZoES5VxQEBeD+JBkWFasakq3houzsefiP8pME9ptjRqNTe02s4S5JBFbVq7H2m27cfLClQfbR0T0Mok9wRWFhp7gCqXqyWaUL8xHQlISyjduivJOEsTcjjZlEBERERER0avu9X6c+SGy4uVQ0cUezXuMwNffjkH/3n3Q5K0yqFQiDtcuxEB88FdZkIucfOOYiA/LC7mE/Vez8fHocRjYozXcrEwZJnaeNdDIMxOrl22HunJnlLY1ZUilKF7KEgkXLyE9XyNcXCsQE5kNl9Il4VHKAVm3I5Cv1EKXE4/AsBjTSv/A1hmVSyTg+rkYiFMNKAvykHD1NPZezhLa9z0Gvd/2/9pHRPQySOTWKGmVisUTv8HQoUPx/c/zEZIOFPeqjGKmSaHkDh6oVNoNhr7VZpYo611SOK15o9v7b+Pcqp/w9ey9cKvtC+/i9jC3tEWlst6wMJPCytUbFT2cDXUQERERERHRq+O1DSJKpDJYmpuZ3hnZejXCJ+2csX7mF5g48QfMXH0A6TIPdP3sMyTsWYCxQtrkXxfianiG4fG6u6RmMJfLYFGiCspZBWLe1B+xcucpFOjlhgMkkZlDLpNCYm6DBrV9kJvngHbNKxjy5HJzId8K1doPRHPnUMz6bRrGj5+AU2kueLerL97q0AmeGQcxc/okTFyyDSFZ1saDLrb/zqPLhu0b98WwX2K6tSfeFdqduHehqd0LcCvfHeWthfZN+xErtp+42z4iopfJsngl/DBnPdat/hOrVq3CrxO/RDVPW/QaOhM967gbynjW74npwzrATnzjUBpDhnyGqq52qNh2EP5cuQKLZ47FFxMn4cuedVCsdF1M/OJLlHCwQJU2wzClTxNDHURERERERPTqkOgFptfPbO3atWjRogXMzc0REBCAxo0bG14/LbFp4qNy1tbWppR79FoVklKz4eruhvvCgdCplYiPi0KBCrCwd0OZEs5CPTrkp8UgPkMJiZk5PDxLQpsdB5ljadhaSKErzEZkkhpeZZyhNJRTwdzWFZbQwMGzGMzyMxBfaAlvV2thu2pk5BbAxdHBUG92ciQkDl5wsJJDlZeOyPg0MRIIe/cyKCE+www98tITEZ+WC6m1I0pYq6G0cIOTJZCUng2P4sUME8IkxGXDrYwH5Drl3XSx/gKhPXFiu2VyeJT0giQ3Tnivglxon5VEDQeP4vj/o0P06rvz9+3v7w8vL+GzLZFgz5496N+/v6kEFcXmzZtRr1492NnZ4caNG/D19YWFhbFX4NN43PmXiN4M+fn58PPzQ506dRAdHY34+Hh06NDBlEtERERE9KDXtyeizBwlHgogiqRyC5TyroiKFSsaAogiiUQKW7cyhrQK5bxhaymHQ3HhvxbG3ZdaOaCctyvkd8tVgLenM0p4FjME6MxtnA0BRJEYzBMDiIbXQnlH93KGAKLI3NbFsI2KFXxMAUSRBLYuHoZ0n1LFhdcl4WJrAamZhSFQKJKa26BkWQ+Izbk/Xazf5k67y5cV2m1mel8BZcX2MYBIREREREREREQvAZ+GJSIiIiIiIiIiosdiEJGI6A0lPpL8tMsdj8rjwoXLm7EQERERERXFazsmIhG93u78fXNMxOfj4TER69evD6n02e4TaTQamJk9OIEVEb05VCoVrl69yjERiYiIiOiJvNAgonhBK5OZZiB+CmLTxItYufzhkQ+J6HUn/n3rdDrDuYJBxGfHiVWIqKg4sQoRERERFcULDSI2atTomXqxiE0T75I/y4UwEb26lEoleyI+JwwiElFRMYhIREREREXxQsdEFIMCYk/EZ1lEj0rnwoXL670866O2RERERERERPTy8CqeiIiIiIiIiIiIHotBRCIiKhK9XgelUgGN9sHRMDRqlZBnevOUdJosnNy9EbcSC00pRERERERE9Cp444KIWmUugkJjkK/RmlKIiOh5UiT6Y8LgLvhm0SEUaIxpWmU+dv0xAUdCc40JT0mrzsKFfRsRmqI0pRAREREREdGr4LUNIubG38KqXYeQWaA2pRgVxl/H9F8XIzJXieiLm7HDL9SUI/ZwUeLYgQ24EZdjSnk6eq0CUTeOYe6kSZgkLNOmrkJIRoEpl4joDafTIClTjyu7F2Pr1XiIt2zEiVhyUiKRozDewNFr1VAoFIZFpdEZ03RaKNUaaNTKu+n3yqlgLGX0qHStWgWtIV0JjU5/t0ekWE79UK9IIiIiIiIier5e2yBiQWoEdp04JVw43n/Z+aCYm0ew7XKs6Z2xp8z5I+sQkJBnSnkK6gIcX/0rZm09h8rteqN3795oWdMBeez4SET/IRbulfBZrxo4tmQFQlMefPRYo8jFqb9+x7DPh2LIiOEYO28DknOUyIq8gLFjh2L2rElC+iB8+eMKHNq+Ct98OQx9+4zExqtRhvW1ygJcOrRWSB+BQZ98gQ0XbkOtVmD/yqkYPeUXfD1mEjYcC0b4lb2YPn4kBg8YjvG/bEZcvqlbJBERERERET13b8TjzJrCHBxd/xsmTZ6G1fuvQfkEHVJ0hck49NcSTBN7Ei7YhrhcBbTChe/5PSsxadJkzP9jD5IVeijTwrFuww7s370WP05fi3Pn92DTpXx8MvRrtGlUCZUqVULjLt1Qx80a6UHHsHHHPqxftQArNp5Fpljf3j+M9a3cgyShPr0iDUfWLzVsd8qUFQhIe4aAJhHRv0QikaNqi35oWy4Jq/ecQyFMJ169DpHnNmHp3niMmrEYyxfMRJ2cE1i0+TLylWrE3LoBW9/BWDp3GuxOzMWiqxaYOmcxvuntji27Lwn1APk5Gciw9MGMOUvx4+ja2LtsO2IK9SiICYJ/lhMm/zoV79fUYPWCdSj/3ngsmj8J3unHcSI40dgGIiIiIiIieu7egCCiBqdXTMLWyzq069kFnmZZiIr6pzG51PA/sgFHA4F23XvDt7wL5DIljqz8GXvC5Xj3vS6wiT2PP3ZfRl5WIjYt+RVnslzQo3tDFEZHwKFcI1QvZmGq65604BMYP3sDdGUaoXmdMji3cgb2hJkZ64u7gD92XUZ2Rhak7uXQuWdv1HQMwPLtfkJriIheQ5ZO6NT3E+hObsa2C/EwPFGsVSMhOBKODdvDx9ECZhYOqNO4EjL8/VGgAszL10XrqsVgZuaKqi3qoHqNarCWm6NsuQowU6khjoRo61oSrZo1hpVcCrcqNeCR6o/YNCHDzhW+jerBzsIMqvhb2HchHNsXTMSwL8bjZFQyUpI5rAQREREREdGL8voHEXOjcOx8Lpp8NgCNhIvNVm1aoKK3nSnzb+iEa18LS6TF+eFGVBZqt2yC4ooE7D98BWERIdi5dTtuxoUg4MZ1KJRa2Bavjc4dm6GiT0lYqBSARG6q6CESC1St2gztmtdGOeccHD58+W59t+KDEXjzOrT2pVDZRY9je7fgzLVIXNp7HSmm1YmIXjf2xeugf58a2PvnYtxOLxS7KMLSSoeCtHQoxDskej0UhTrIraxgJhPeC/8jF8qI5eQWQppcTARkMjPhf4V0gUqlRF6hGE7UQ5uXD62ZNSzMxWwJZIZKhJdW9ihbsRHGzfkDq1atwtp1mzG6Y0VDHhERERERET1/r38QUaFArsoKLs7GXdFptdBqjeNimQsXqJrcwvt6+uVDUyiDhYU1yrX4DN9/MwQ55+fh089nIiwlDzqpM5p26IzevT/A4C+nYcrw7nC0kkFibwNbqXBxK5XCxcMR8TdvIF3sUvMwIV/uYg9DH0WdFnqpE5q2N9Y3aLRYXxfEHlmC7+edRZUWndGlWQ042ohXxkRErympHOVb98J7pTJx8HwGIDOHj29rFI87hG2HjuD0iX3YfSkFdTo0gf0Tnu40aeE4unMDjp0+hTXrDsC8eSfUdDVlmliUbICWZdOxbukqnLxwClu3HkJcRr4pl4iIiIiIiJ631z+I6OiOt8oW4vyJm8guyEPAtfMIiMkyZHnVaIyC08JFbHiqYfbO0PNbkayqjtrlnJEYHw6dQ0UM+/wbVMwNx5VCNzStKcPtgCw4lykNeysLSLQ6w6yjd0nMUb5xV9S2CcKKTXsRm22cFTQl+BoiHp6d2cELTWqaCfVlGupzEOtTKJEeFwnzstVRt5w7EqOikZsn9rYhInp9yB1L4r3unVHa0crwXmrmgneHjMGQIUNQrYQlnCu0xLcThiI/9CrOX4lAnR5f4YOmZWFbrDw+7NIFbrbmkEhkqNWsM1pVdYehg2KJmnivVU1YyxzQcfAP+LhpKVw/fx6KUq3xw+COsJLLUFMo37paCWN5Gzd89sPP8HVNFs7/55FrZQdXO2N7iIiIiIiI6PmT6AWm189s7dq1aNGiBczNzREQEIDGjRsbXj8tsWmFhYWwtrY2pdyTEXoSsw8G4cv+/aBLuYb5sxYhXG2NylUrICfHDAO/GIgy1hpc270Wa/ecRqbGDGaulfDRwH5oVt4etw4sw7y1l6CRW6NS867o90F7WGYEY9mvP+Jqugz2HhXwWf9hqGEZhdnrzqPXkL4oZ2cpbFmP3MRw7F7/B3Zfj4eFFLAqURvDvh4E24AtWBZUAt8PagUboWROolDfL/fq+7TfUFTBTfw0ewUSUQr1yzvidnYZfDepJ4oZ9orov+PO37e/vz+8vLwgkUiwZ88e9O/f31SCimLz5s2oV68e7OzscOPGDfj6+sLC4v/Hbn1Sjzv/EtGbIT8/H35+fqhTpw6io6MRHx+PDh06mHKJiIiIiB702gYRiej1xiDi88UgIhEVFYOIRERERFQUr//jzERERERERERERPRCMYhIREREREREREREj8UgIhHRG0in00Gj0Tz1otVqDY80PyqPCxcub8YinieIiIiIiJ6UbJLA9PqZ3bx5E97e3pDJZEhNTUWpUqUglT59nPLOBayZmZkphYjeFHf+vlNSUuDg4GAYEzE0NBS1a9c2laCiCAwMhKenp2EcxOTkZMNr8ZiKx/lpFjG4IC7PUgcXLlxe7UU8ByckJMDDwwPZ2dnIzc2Fj4+P6axCRERERPSgFzqxSt26dZ8piChiEJHozSWefsRzBSdWeXabObEKERURJ1YhIiIioqJ4pWdnFnvBKBQKXsQSvYHuBKk4O/PzwSAiERUVg4hEREREVBSv9JiIYlCBiIiIiIiIiIiI/l2cWIWIiP4Vep0WSrXW8FqnUUGtNU7yoFGroH1EJ3mtRv3IdCIiIiIiInrxGEQkIqKnoirIQEBAGPJMgcCiyor0w7iZPyMmoxCBB3/HD38dh1aVj79++RxLjoRCbSon0qkV2L9qJhYfDnkgnYiIiIiIiF6O1zaIeH8Plvsp08KxbssBxOcqodMo7/ZsuUOtVuFZOrIYtqtU4KFqxQyolf+/vcfJCDqGrcdvolBo5/Gdq3H2diq00KMw6SZW/jYTaw5cwt6td9KJiF4hei3CLm3Gl31H42RouimxaMTehwnJSdAJ52RlTioiU/MhkchQtXZjVC/lCJmpnJEeBelxSM1RmN4TERERERHRy/TaBhHTgo5gzK8LkJKrNKUYqXMSsP/wKWRqtLi6YzqmbfEz5Qh5BVlYPudb7PNPMaUUXWHsFXw7qBvm7Q99ILCnzryNOWMHYuyae9v7J6m3/bDhaDAKlQWIDryAqNQ84ao6FVt/X4h01wZoXNEVqaGmdCKiV4hWlYErZwPQuGNFHDp8CcYzsQ7ZCbcRmZCC2wFX4ed3FdEpuUKqUUZcsGESh+u3wlGgMSU+RCq3RKkq9VHR09HwBVWQFomrl/3gd/32Az0e1dkJuHbloqG+gNgMUyoRERERERG9KK9tEFF8tC0+5V4wUK1SGGZyVmvudTMszEpCZFqB6Z1Ar0NGUjiyC4WrV1PPQXEdhUqDO2tp1MY0ldqYZuh5KOSLY3QpFGrotCpEKwpwest+JN6NX+oQefMqLl3yQ2RWoSHlTo9FQ/33XfjeTVeq7m5TbuOED8f8jj6NykCfk4noBC1KVKmIMmXK3E039MjRaYz1GfZTuCzXC3WZ3que8nFCIqKnoYi7jKtxZdFnwMdwDjqLwEzxjKaE38afMeTb6di2/yj2bvwTk3+aj/DMAsRc3Ib5i5Zg/9GjWDt/Af46FQ6VsaoHaJR52LjoG2y6nIT85FAsmjgOizfvwqmTB3D+epyhTJ6QvuzHyViyZTeOHtuHWXMW4ExYpiGPiIiIiIiIXow3YkzErMiL+PWbT9F/+GjMXHUA6X/XxeU+BcnXMfeHbzF00BAMGzsP4VkFyI25iuWzxmLQkOEYM+53XErIR37sFUwY+zVmzp6Gr75dKFwoF8CqVEPUsgvAtdB0Qw8bnTILFwNCUaxSeVibGfvcRJ7bhh++HS7UNQiDv/sJl8LTDOnBx1bj65GfYNDoH7D6cCBUWh3UhdlYMfdb7L4ciVM71mDzyWNY+uMMbD5yFYuF9L23UoVt5MFv6yIMHDYcQ4YPx+TFhxAXcAA/jPocQ4Z8ji/HL0B4PkcKI6KXQKfC9ZNnYdO4AbyLlUWlygqc9guDVi9k6SVwKFMTQ0d8iUnTvkLV/BBcuh6AHWt2ItWhHtq2bA7fmnJcO34QOQV3bqU8ihbR1w4j0qwBJkyahjHD+6NW2WKGmym3T23DRUUljJ8wGd99MxZ9KymwY9NJZD8qKklERERERETPxesfRNTn4NDSOUgo1heLl83BoNZeKPynK0m9CgEn9yPBphFmL12BGaN7oJh5HjbPX4hwt26Yt+BX9KqShx07TyJfoULYVX9oa3yA+b9/jqpO1pBbu6BFs7cQdPE8xLhdfqQfbqcWQ9M6pQzVKxL8sHDOH6j5/hSs+mMFxrSwxvylexCX4o+Ny7eh/qe/YdWccajvYWn8B9DpkJkYhlytBVr27Ideb7fG8Mk/oHtjb+QJ6dkFSsRc3oVVh5Lx+fTFWLbwN3zQuBws7Muj74+zseD3qagGP2w/cZsTDhDRC6dKD8PO/X4IPrcT03+ciZMXbuHQroNIL9BCJpOhdPkqsLeUQWplA3d7FZJiMhERl4aMxACcPH4SwdmOqFO3OmzkjwkiatRIuR0PlK8JFysJJGbWcHW2EM6XWuQk5cCmXE04W0khkcnhXq44VImxUP/z/SMiIiIiIiJ6Sq9/EDEtBmfDndH6A1/YSc3hVqYqSpawNmX+HTlKV6kFJO7Bj78tQWC+BJbZiTh9LRRXDi/DqOFfYPFhf+QV5EKv1cLa+y10auAFiURiXF0qR7naDaGO9UdEWjouX7gMj6Zt4W5uzC6MDkKkvCl863lCKpGjbP06cAw6gyC/6wiWNkaT+iWFKhxQuWpZmMke/icwbkPclHDZbHgNjQJBlwPh2LAtarjLIbdwQJXaZaDJycaJxeMxZNQ32HU8DukZOXfHHiMiejF0SAy/gXyP+vi834d4v/cHGDR0KDxVYbidlgutTofw0ACIw9WqslMRkeeAkuXcUaWsHSrW7Yovv/sOX43+HD1b1oGl/DFfQVIpnEo4QxkdjpxCLfR5KQgIizakO3vaIeuWH1JyNEJzVIgLT4VtqdKwNJ2DiYiIiIiI6Pl7/YOIcnPYyjSQaIx98BQFeVAqjOMg2tm7ID82BTmmzi4aZRxUOdZwdrCHa9X2mPH7QnQrE4vfvp+BW6kqeLh5YMC4Wfjjjz/w55qN+P3L92FnKRO2YQa5sYq7pK4+6F7bHgeOHsXFHC90aOB192BKrK2hV2Qhv1DcsB6a3DyhDivIbSyg10mEi2whXa9DVlY6tNon6TojgaU0H1mpWVAadlMPbXYUFv44HwnlPsDSJXPxcauKhpJERC+SOKPyzYsX4FylDerXro7KlSujlm8LtPLS4OiVCEh0KuQEHsRvP07EuBlLkFOlJTrWq4JOH3+GlL2/4bvJkzBl1hycCUwzBATNzYxzMEvMzCGXGW+cyMzkhh6G5Zq1Qzn1Wfwi1DVp4Vr4p5pDKjOHT4uP0L5UImbPnoIJEydgX6Qlur//NmzNDKsTERERERHRC/D6BxHtPdGkmQsOrN2Ak2dPYNf+Q7gVZ5zxxLtRRxSPOo3Vmw8aZvDcsHodFOU6o763OQL89mHbgauQudRCGRcLpFiVR4f2VXD8j1U4JFwg79+7D9cC4x+YgflBcpSqXx9xW07AoVJllLC9F2a0LtMYTd2jse7PzTjjdxqbtp+DfZt3UKtGdVSyDsSGtTtw/uR+7D55E3kPTi79aGaWqNaiNWyDd2PniRM4feIA9hwOhLO7DmaqDJw/th8HT4eaChMRvTgSmTma9hyJkX0awuLON4iZIzqN+B4fNqkAqZkFanUegs8+7oV+nw3Dd/27wtbCDB4122LaLxMxoOf7+KhXTzSp6Qln74aY/s238HK2RJV2ozDlgxaQmVvjw2Ez0bueB2yLVcPICT+i/4cf4MMP++LP5QswpHVF2DqVQu8xkzC0Vx/0+WAARo8Zg7plHEyNISIiIiIiohdBNklgev3Mbt68CW9vb8OYWKmpqShVqpTh9bPQaDSQyx/uBwhDbxQ7R1dU96mIctWrwyLuMi6GJsO5Znt09a2MyhXLwsnJC76NvBBx8RRuhUZCV6whhg7qChczQJsVC79zFxGaWIgmPT5C2+oeKFm5DoopruHClXBk64QL4Xr14GJrCWsHJ1QR6rOSSSGRmsHaTnjvXRIWVs7wqWSD8pUbwNVaqFS4eLYtXhE1ypVC3SaNkBNxEdduRcCxegcMf78pbGxdULtuecRfPw//NKBpmw7wKV8R1co4w0ouhVf5mihubwm5jT28KleEqyWEfRfTa8G7fDW8VckRZ0+eR2xSNko2egft6nkh8OolpOrc0bPn2yhZxgdli9vfeQia6JUn/n2npKTAwcHBMFxAaGgoateubcqloggMDISnpycsLCyQnJwMLy8vmJk9W9e8R51/xX8nSztn2FiY3XeukcDcyg7ONlJE+B1ElE0D9GhZC26uLrAyN/U0NKznCjc3N7i6uMDCTDyfymBva2fIM7OwgZONubGcrTOsDesJ9VrbwVVcx9EOFjYOsLE0bldmbgVXVzehPlfYW7ELItHTUKvViI+Ph4eHB7Kzs5GbmwsfHx9TLhERERHRgyR6gen1M1u7di1atGgBc3NzBAQEoHHjxobXT0tsWmFhIayt/2mMQyJ63dz5+/b39zcEvMTg0Z49e9C/f39TCSqKzZs3o169erCzs8ONGzfg6+trCCg+rac7/yrgt2kuLtt2wvCOVU1pRPSqys/PNzypUadOHURHRxsCih06dDDlEhERERE96PV/nJmIiF4RlmjQ82sM68AAIhERERER0ZuGQUQiInp+JBLx/4mIiIiIiOgNw8eZiehfwceZn6+HH2du0KDBM41JK/77/N2YtET0ZlAqlbhy5QofZyYiIiKiJ/JCg4gNGzZ8poH9xaapVKpnGteLiF5N4t+3Vqs1TMjEIOKzeziIKN7EedYAoEKhgKWlpekdEb1pCgoKcOnSJQYRiYiIiOiJvLAgYnBwMOrXr2/KISL6f+K5QryAZRDx2b0aE6sQ0euEE6sQERERUVG8sCDirVu3UKNGDVMOEdGjBQUFwcfHh0HEZ8QgIhEVFYOIRERERFQULySIKD7+FhkZabgIJSJ6HKlUCm9vb6jVagYRnwGDiERUVAwiEhEREVFRvJAgoq2trSmFiOjJiOPvMYj49F7FIGJybAikjt5ws/ubCbZ0KiRGhCG5EChXoQrsOPwt0UvFICIRERERFcVzDyKKE6k8y4ygbwJxMphnmZWa6L9I7ImYmZmJ4cOHm1KoKF5WEFGnVePS3qU4cC0NGo1aON/LIZHYoV6Hbmhd3xt3znwaRR4WTvkAsrbzMLx5aVPq/fRICTqEOb/vhl2NBujz0cco7WDKIqKXgkFEIiIiIiqK5xpEFAMA4kXnf1l2djY2bJgmXMz3QO3aDUypRPQkxJsQxYoVM72jonhZQUS9XofshFDEpuTir8XjIW/8NfrUKwmn4qXg7mIDiamcIYg4uQ9kbedjeItHBBF1alzbMQerr5XEpAm94fBsE0kT0VNgEJGIiIiIiuK5BhH/65RKJZYt+wJ16y7G0aNl0a7dBuF1PVMuEdGL87IfZ74/SDjs7VJICz2L9XtOI7vQBq36fIT6JS0eyE8X8tfdl19VEoiZP/6I41HO+ODTgfigT0NEndiC3ecjoLd1Q6t3eqFpBRck3tiHaxm2UEZdwo1EGRp17InWtTwBVSFuCuV3mcq3FMo3E8oT0ZNjEJGIiIiIikJq+i89B+KP8WvXtqFhQ+CrryKwceOnuHDhgimXiOjNlBJwGDOX7ULphm3RobYDNq3YiCiVKVMg5s+4m++ITcs3INmhAmpVrgqfKg3QqJ4PbqybjpX7k9Ci53toWcEMq+f+Dv+EPCTc3I9pizdAWr45GpVWYt7MxYhMzcaF9dOx4k75inKsmTsbt4TyRERERERE9GIwiPiCREYC1tYVERUVZUohInoD6VQIv3QE567H4tLhvdh17jpib+1BcJTib/KvIdZ/L8JSrVHOqxic3UrCp7gKJ49Ho8b7H6FZlWpo1uFdNJTG4GxwBiRyS9Ro2R1dmtRBq9adUFaeg+jk2zhy7L7y7bsI5WNxTihPRERERERELwaDiC+Itzfg6RmCChWEF0REbyq9DhqlFCVrNce7PXqg1wcDMe3XOWjsZRrk8G/yfUvfNwiiVguN1hz2DqZJuaRSmJnpoFDqIZFI4GJvJ/wXMJObw0KlR55aA7VY3t70FSaVQS6WV3B0DiIiIiIioheFQcQXRC5cH9vbx+LataumFCKiN5DUDF7VKkAeeR06e3eU9XYHlBKYW94JCP5/vkTIt7iTL7JzR4MawOltZ5CsVCA1IhjXcp1R3cfRVOAhtkL5mmL5s8bykUG4musklOf0zkRERERERC8Kg4jP0e3bt+HpqTa8vnoViIr6EJ98MsDwnojoTVOsZEW42lvDq9FHGNTNE8unf4nho8bicGgWzB+Tf0jIF/shWju5w6uEI2RyO7Tq9wPqyy7gy8FDMH7JQTTt+zmal7WHtYs3SrnYGLYHmQXKVCwDJxtHtOorlJdfwGix/KIDQvlRaF6OQUQiIiIiIqIXhbMzPycBAQE4fLgPhgy5BUtLY9pXXznjyy9vwtPT05hARPSCvOzZmUXGrw+J4VFj4Q3ufZkY0/4pX0gUk4XXhjePLmNIu1PeVKfwxrj6o+okoifF2ZmJiIiIqCjYE/E5uXLlKHx87gUQRYMGZWHXru+RmZlpSiEienOIwb+7gTvD6zvLnaTH5xsDf/dF/h5V5v7XAkOe6bUx76HyRERERERE9EIwiPgcZGRk4NSp6ejY0TA/ALZtA1JTgYoVdfD0/BP79u0zlSQiIiIiIiIiInr9MIj4nIiP2Ik9YY4dAwYOBKZNM6aLacZH+oiIiIiIiIiIiF5PDCI+JxKJmTg8F8qVE3sgGheRXi81PGpHRPSyiTcwnna541F5XLhweTMWIiIiIqKi4MQqz4FWq8XmzWugUIzGhx9mIS0NKFECuHxZHCtxAHr1mgVHR0dTaSKi5+/hiVXq168PqfTZ7hNpNBqYmZmZ3hHRm0alUuHq1aucWIWIiIiIngiDiM/R/v2bcevWcOTlpUMikcLZ+RMMHrwAlvfPtkJE9AL8G7MzE9HrjbMzExEREVFR8HHm56ht2+7w8pqLgoLRsLWdjp49pzKASERERERERERErz0GEZ8j8dE/Ly8vTJ06FZUrV0ZsbKwph4iIiIiIiIiI6PXFIOJzJj4CqFQqERMTw0HLiYiIiIiIiIjojcAgIhERFY1eb5iQQbxhIi4qtVpMeqyEG3ux5WyA6R0RERERERG9bhhEJCKiosmKwIxvB+OjfgMwePBgjBj1JXZcS4VGZ8p/hITA49h8Idz0joiIiIiIiF43DCISEVHR6DTINS+Hr2bNw8rlSzCitRvWr16F9AKtIVurURl6KqpUYg9FDutARERERET0JmAQkYiIik4ifIFIpJCayWFuXwzFbGSQSPTITwrGnzO+xWeDBqHvqK8xf+81qB7XRZGIiIiIiIheCwwiEhFRkWnSArBq7ixMnvgDtl0qwDtdu8NZnoc9i3/EBWVTLFi5AgvHvY/wrcvgF55pWouIiIiIiIheVwwiEhFRkUltS8K3dUc0q+SKgIhUOHoWhywvBddu26Bl72ZwksrgULIC6jjm4FpknmktIiIiIiIiel0xiEhEREUmtXSAT5WqaPbeYHxQMxOrlmxHhkYGO/Mc5GcXQBwJUa9SoUBrCXNzM+NKRERERERE9NpiEJGIiJ6azNwKzbt9BquAAzgQpkGrDjVxZeN6HLx0EYf37kKglQ/eru5sKk1ERERERESvKwYRiYioaGzc0KF9C3g5WglvJLDxrIVPB3WFLlOBmt2/wIguHrh6+AhuJVlgyOhRqOxmBY8aHdG9cRXj+kRERERERPTaYRCRiIiKxtIZLZr7wt1KficBNdt2x8edasLKzAJVWn6McePG4athfVHZXQw0Ah5VW6JXo/KG10RERERERPT6YRCRiIiIiIiIiIiIHotBRCIiIiIiIiIiInosBhGJiIiIiIiIiIjosRhEJCJ6A+l0Omi12mda9Hr9I9O5cOHyZizieYKIiIiI6ElJhItEvek1PSOlUonLly+jatWqWLduHWrXro2GDRuacomIXpzNmzejXr16sLOzw40bN9CgQQPIZDJT7tPRaDQwMzMzvSOiN434u+XKlSuoU6cOoqOjER8fjw4dOphyiYiIiIgexCDic8QgIhH9Wx4OIvr6+sLCwsKUW3TiV0NhYSGsra1NKUT0psnPz4efnx+DiERERET0RPg4MxERERERERERET0Wg4hERERERERERET0WAwivgASicSwEBH91+i0ami0HCWDiIiIiIjoTcMg4nMmTmSQnp6OMmXKcCwxInqjKfNS4H/5smEs2MuXQ5Cl0iDo4BxMXHfCVIKIiIiIiIjeFAwiPkfiJAZly5bFzZs34eLigurVq5tyiIjeIHo90kNOYP78GVi36RAOHTqEPWv+wsXEbBRmJyEsJc9UkIiIiIiIiN4UDCI+Z4mJiUhJSTHMeJidnW1KJSJ6c6hT/LFo0RZYVOmJcdPGYdy4cfh++hjUL+FsKmFUmBmPG4ZeijcQm5YHtTIPodGxUGl0hnyN+P52BPLVWqhzEnHj+lWh7C2k5qsN+URERERERPTqYBDxOVq7di02b96MatWq4cqVK5g7dy6ysrJMuUREbwC9FuE3LyDFuhr6tKkPW3NjstzGHo7m98aC1WtVCDmzHRt3HcKOv1Zi4txViIsKwNypM3A1UbzBokfCzX34ddZyhEWGYMX8X7Fq6y4c2rgCc/48gSwOq0hERERERPRKYRDxORF7HYaHh+PLL79E48aNMWbMGDg4OCAiIsJUgojoDaDXoiAjHWYWbpCbPeYrRCpHhQbv4MNendCloy+U128g3LwEOtcwx/4zQdBqVQgNCkKZ5u9AeeMAjgebo2PHTmjergFSz63HjTitqSIiIiIiIiJ6FTCI+JycOnUK5cqVg7Pzvcf5PvroIyxatMj0jojoDSCRwMJWjqzkRChUfx/o06kTsGfNRqz4ayMOnDiHhIQ8FEhsUKdZQ0SeuIDwhNu4fjMXzd+ugoKkKERnJOPs8cM4cTES5Rv5opg5H2kmIiIiIiJ6lTCI+JyIvQ7T0tKgVt+78BV7JpYoUcL0jojoDSAxQ5laTeGafQUHL/qj0BRHVOekI0uhMb4RFEZcwY5TCeg9+gd8/kkXeNgaH3V2LN8cvsVDsGndTiR4tUadElZw8XBHuRIV0HfkNxg37msMeP89VChuaShPRERERERErwYGEZ+TZs2aISYmBsnJydDr9VCpVNi4cSOGDh1qKkFE9CaQwMazNgYO7YKgLYswZsIUTJkyBRN+WorLSXmQSs1gJpVA7lYBFZ0jseTnmVi88RAyFFJhTUBu5QjfRpVx6ngQWrWvB3OpOcq3+AhNHPzxy6yJmDhxAlbsuAz2QyQiIiIiInq1SPRixIuei+DgYCxduhSlS5dGWFgYmjZtivfff9+US0T04oiTOtWrVw92dna4ceMGfH19YWFhYcotOvGrobCwENbW1qaUhwj5ysw4hMYbJ4+SWjigfPlS0OUkIV5pi3LFbJCXEomolEKY2xWDrVQD+5LusJNKoFXlISYuEx5lSsFCeC8qzExAeHw69JDAwcMHXs5P33YiejL5+fnw8/NDnTp1EB0djfj4eHTo0MGUS0RERET0IPZEfI5KlSoFLy8vKJVKlCxZ0jBGIhHRG0kcG9G5FKpXr25YqlbwMgQErRxLoHxxOyFbCrvi5YS8aqhYphg8vTxgJxW/ciSQmdvBu6yx/B1WTh6oVk2oq1o1BhCJiIiIiIheQQwiPkezZ88WLoKroV+/fujYsaPhcWbx8WYiIiIiIiIiIqLXGYOIz0lgYCBsbGwMjzC7uroaeua0aNEC58+fN5UgIiIiIiIiIiJ6PTGI+JyIMzG7ubk9MAZZgwYNsHv3btM7IiIiIiIiIiKi1xMnVnlOIiIisHbtWnz++edwdHQ0pInvFQoFBgwYYHhPRPSiPDyxingTQyaTmXKfjlqthlwuN70jojeNOIbzlStXOLEKERERET0RBhGfozlz5qBmzZqoVasWYmJisH37dowcORLOzs6mEkREL8bDQcTGjRs/UwBQ/GoQAwyWlpamFCJ60xQUFODSpUsMIhIRERHRE3muQcSLFy/+pycSyc3NxZIlS9CkSROcOXMGbdu2RY0aNUy5RPRPxPFEGzVqZHpHRfFwENHX1/eB4RWKSvxqKCwshLW1tSmFiN40+fn58PPzYxCRiIiIiJ7Icw0irl69GlWqVIGtra0phYjoyYi93sQeMXz8/+kwiEhERcUgIhEREREVxXMNIopjAIozEjOISERFJY4fumfPHvTv39+UQkXBICIRFRWDiERERERUFJydmYiIXqr0xHBkF2pN74iIiIiIiOh1wCAiEREViTorHltW/IIpU6diqrD8vnQtorJMmf9Ao8zDnpU/4Ghoninln+m0Obi+bwNmGbY3DUv+PIYn3BwRERERERE9JwwiEhFRkWjyknHwdCC8G7XEu+++izbN6sO1CE896/Va6IX/exK6nHisnjkef97IReP276JLpw7wsslFWoGpABEREREREb0UskkC0+tndvPmTXh7e8Pc3NyUQkT0ZDQaDUJDQ1G7dm1TChVFYGAgPD09DeMgirPke3l5wczMzJT7dMR/E7lcbnp3jyYnEQfPhaJNz16oXd4LxVxdYC4DFBkx2L1xBbbsOoUktSPKli4GM70Kty/sxoJVm3Hywi1o7d2RGXoEBTJXnD+wBQcPh8Klsg+KWcsRf+sYViz9C4dPXkG2eTF4l7JF8K4F+CvcGxPHDkCVMu5wL+GB8pUrwMlMB/8z+3E1NAoH9xxGutQF7la52LdxpWH7iWoHYfvFIckJw4Zlq7Dj0FEERqpQvqY3rCQS054Q/bep1WrDOIgeHh7Izs5Gbm4ufHx8TLlERERERA9iT0QiIio6ZQaCb17HlStXEBiSgML8JPw59zfclldF51Y1ELTjT5wMS0Lw3iVYsNUftdt2QdNaZQExUJEQikMXw1DD1xdOGScxd+M5aDRq5OXmo0rbd9Gqtgt2rF+BiNhonD0ThwYd2qGE9b2vK4lEeK1VIejgEvyw5iwq1G2AqsW1WGfYfhXD9kN2rMaJsFTkJCTCtnIDvNOxDTL9N2HD6WjoTPUQERERERHRk2MQ8RH0Oo3h7rxa+4Zeauq00Aj7p9U+t4m5/49OKx5DDXS6F7cNIvr3KLMScOboYRw4cBhnLoYjM/o8tu65iagAP+w+dh4xcX4473cde/bcQvX3+qFTg5po0a4D3m5YAdbFyqNj155o1qAZ3u/RDCkBkUiXm8OrQg3kBx3FsXPXEH42ArfzCqBU6GFt9f+9IQ3Mi6Fli3Z42/ctuObfwta997YfHX8R52+mwL5cXXghCrv37EV4YAwCbkRCYVqdiIiIiIiIntwLDyLqlPkIC/bHjRs37luCERmdDJXmBQbpdCokhAXj5o1AJOUonnD0LaOYUyvRvVNrdPluGVJzVabUItJpkJ0Sg5CQm4Z99vcPR2pWLvT6fzuopkPimTUY+E43DJu4Ben5alP6c6TJxelF36B7uw+xdHsAe/0QvYEsilfDgNFf4/vvx2LQx01hr9bAvERltO/eFV3f7YEvpi7EAN+SyMrXw85JDuMDxBJIJBKYy81gb21lSLG2soEuMx856Vcw6cvfEGFRGR3bNkNpN2voLW1QyhMIuHobjzwTW8hhbWdt+CLTidt3r3Rv+1MWYODbjtg0czLWXshFmy5dULtSSXFARuO6REREREREVCQvPIhYmHAD44d0Q8uWLe8urVu/g14fDsIP89biZnK+qeTj6RU5iLl5HNsO7kHik0zqWRiPlROGok3LD7DiUCCKEipT5aQgICAAQdEpppSi0akVuLxvJUYP+Qhd3hH3uTXatn0PQz8fg93nbkP5r17DapGZEoOAkEAEh8dA8QLaolYVIDr4Fm4FBSEwNr1Ix56IXk9mntVQxSIS0alWKFe5PGwkcti4FEP96lqc2nYOaWoV0pNiERmZ9MgbC6rURETlSdGsZXM4yRVIEM4dkDih6fs9kH7gD6w6chM5CjVUSgViQ24h6aHuhHLP6qhqGYXoFEvD9m3F7WtzEB0VC5+326BGSWskRcSYShMREREREVFRvZTHmfU6LbSQo4R3BVStWhk+ZawQF3QaS2dMwoQf1yJGoTGV/DsahJ7bhGF9BuKneX8hMdeU/A/0Oh20Wi10L7PniU6Fqzvm4ouxk7HtWAgsbMsZ9rlkMQVO7duMkV+Pw6bz0fj3npSWo1LHEVi3ew9W/9IfnrZ/85jgM5BbuaHX5BU4eHQbxn/WGBamdCJ6M0jkVvAuUxLW8ntfIRbOFTH8q88Qu/M7DBs4FAv2+kFl5oTW/cajDk7j84GDMO7XZYgqkMPVvSzsLWXGFS1dUL5scdh7NUSXugrM/Gok1pxOQv3W9eAgl8GlwtuYPvkDpB9bipFDBmLQkBFYuj8I4nwvjsW9UNzBytDL0dylAoYJ24/bNc6w/Xl7L0Bl442uPZrg7MrpGD1jO+yr1EVJV1uO40FERERERPQUJPrn+Hzt2rVr0aJFC9ja2ppSgPzIc+j36Uc4GFMcP61chf5vl0Z2TCBW/DQNizcdQ5ZdJfy4ag0GNfFCYsgVHL3oj8SUNFhaOqBRq3dRp1pJpFzbjMUrV+OvdaehcffGuz36oOU7PfBuJSdcvXoWZ67fRmFhIVxcy6JNl3dQ1t1G3DCm9v8Mcw5kYNSyVfi2Zx3cnTNa2OWcuHCcvHgRgWGxhnH7KlVvhpZtGsHBQoLbu6ah3dDfoWsyCpeWfwO7jJtYvv0kclUSNOj4IVpWK4acVGH9U4eF9bOgd3RF09Zd0LicO/Jj/TBmwGfY6JeF+l0G46dJI1GzlB3SIk5i8ogx2HIpGuXe+Q6bFgxD4bX92HMhDPaVm6OBTSJORlrgvd5t4CbPw7V9e3AmOBG21ZuiuZcaB474QeHRAIPe9YWtKg9Xr53DmWuhpv32Rut33kG5ErZQZcZgx/atCCt0RudOzZF97QROC/W4CvV0a90YbpYSxF/diS3HAqAq2QgDO1TFzUN7cP52ErSmwyOychOOc7fucCuMNRynANNxqlitCVq18YWDUI9IkZOGq6dO4lxAGNTicawhHMcW9RBwaClOBOfB5+330LNReeGQ65AZdxvHj5xBSGKy8O9rj+oNWsG3bgVYW8gM7d65fRtuFzqiU8cWyL1+EqeCE+AqbK+rsL1ipu3Rm0uhUGDPnj3o37+/KYWKYvPmzahXrx7s7OwMQyj4+voaZmp+WuJXg3h+sba2NqU8SKfTQSKVmh5Tvken1RqHj5BIIBPyReLf/53xUSVSmfDFI5SRyCAVVxa2oxXypDKh7N1y4mPPYtl79et0wjp3v62EuoXyYr16vQRSQ0VGd7dvKmOs33jXRiz3cHmi/7L8/Hz4+fmhTp06iI6ONszU3KFDB1MuEREREdGDZJMEptfP7ObNm/D29oa5+d1wHdRZsdi5YxvCs23Rtmt31C1bHLZO7qhZtTiunzqC8PgE2Pn4oqmHCvN+m47dJ64h7HYILhzfg31HbsCt7tuwijmCZZuPIy49DxrhYrCwoACW5RvBJ+MwJsz+E9duBSEk4BoO7tuLK7E61G3SEC6yHJzatQN+YYVo2KUrmlT1gKnfC3SqfBz640f8/tdRhIQEIfjqaWzdfgRJNj5oUtMbeWGnsXbvBei9GqJf29LY9PN4TJqzHkkuNdCncyvY5t7EjK9HYsa6U4iJisLNkwdw4GIkStdoCG3YISxatAu5HjXwzeQpaFfDXbg4lsHWtQzKWKZg6/EryEw2R4sPWyNh1xyM/20VboTdxqWdm7ErVIJ3u76FM8sm47tpc7HryCkcPXoOgTcvYf3mbbhWWBz93mmCjIvrhf3+A9duivt93bDfl2M0qN20IWxzbmPWlG+x6nAgcmKv4M+lS7H78CkcF+opcKoE3+qlcfvQ7/hq6hJcLCiB/u2qwm/3Rmw7eh6hYcE4dXAPDp84jeh8K7Rp1waBW3/Cb2uPGI/TNeNxSrAuh6a1vKFNj8D8Sd9h4uwl2H/kKM6ePYvAJOF4v90SF5YOwI+rz6CwbGu839Ab0RcPYOxXX2Hx2i04dvIkTp06iaPCf6Mk7mhWywf6jDD8IrT7j8MByIm7itXLhHYfOmlod55DRfjWKANzGS/832QajQahoaGoXbu2KYWKIjAwEJ6enobAYXJyMry8vGBmZmbKfTriv4lc7PL3COLYho/6ixQDf1JxEaOAJmJZQ5oYFBSSxdmV72Yb8ox13StnHDvx/vrFde7UcScIaChztyKju9u/Eyi8W6e4zf8vT/RfJk4iJwYOPTw8kC3OnJ6bCx8fH1MuEREREdGD/qWnuiSwK14GlUp5QgYtFEoV5A4l0WvQBGzetAtbN67B1z1rITnyIjYfuo7KXcdg9vh+8BTWdK/ii/lrd2Nqz9pwLNcEY6Ytxs6de7FhxSy08rHAuRN7cS4o/vGTeUjlqNG8FxYsW4c9e/Zi4ZS+cNDGY/uuQ0grUJoKCfRq3Ni/CQv3nIJTueYYO3IgqpbQ4fSa5fhzfxRq9fgGW/fuwZyhbZF+eT9WbD6EhPhYZKqA4sXcUKlMSVNFIhk8SpWETCbssTIFKVn3+v3FB92EVaN38OWADtCHncXyFTsRrnBEw3cHYcQn7aFKiIdGee+Rb4dyjfHl1EWG/d648he0qWiJ88eF/Q64b79TQnAzQYvOH32GphWKQ58diYNnLqJA+dAIhZYl8NnkhTh87Bg2zP4CVd3kkFl5oX2vAcK+mqNqs/fvHqdFU/rDUZuAHcJxSs3LwJnVv2Luur3ItCiGXgO+wHdjv0a7hqUhfejgqwvCse6XCdh1IQQOldtg5JdjMfS9t2GeEYrNi2Zj1/Xk+9odipvxanT68FM0q+gOfU4UDp29iEIFR1YkIiIiIiIiIvq3vNTHmWf8sRoDWvgYegTqskMxrt9nWHY0BJ3GLsfvgxvgwl8LsWbrWcRr9dAWxCE4LBe1u03BX3/0Q/K+3/HJBz9CU7cD/lyzHrVL6JAefgHrf1+A3VcSoZIrkRgdgaQcN3yz4k+MaeuIGX/3ODOUCDy6ASvnr8PlVA1ksgwE3oyCzK0jNp5djGLn5xgeZy4oUwO+uTE4kazHgJ9WY8pnvrAojMSkAZ9h3n5/OHl6obijNZQ5KQiLTUXNDyfi+zrJGP7lYsjfaoM/1m5EA897cdqUUwvR+KPJyEd1LDj8J+RbvsbQ3/fBqskA7Fw8GVXczHBx0zR8NGQhHBp9gkUrf0btYjKcWDQM/X7cDDT9AhdXfAtZ6jVsEPZ71+V4KOUqJMUI+53tijFL/8TwemoM/+wD7It0woT5yzCqY3WcWTwcn07dBL2w/qUVYxGxeRR6jdsANBPff4didhZQZYTgtzEj8MvOm2jw0TgsmjYCXnYaBB3fhJVz/8KlVLVwnDIReCsSUuf22Hh4HE788Dl+3xOBLmN/wcwvesLFQgdFXhq0enMsH1Ufk/bmo/W4tVjVVYkPWg2An6IMJq5bg4FNykCSHYhpgwZh4dFEfDRjJca1tsEXA/pgT7gDxs9bhtGda+Ds0pH4ZPIG6Jt8Luz3OBS35+iKbzI+zvxsXvbjzET0+uPjzI+XmZmJnJwc0zsioqIRnwgRe3q/rKcgEhISDD3MiYiehr29PZycnEzv/t6/EEQsD6lOjdBjazBgxA/wz3HD178vRlPdYQz6eh4c6n+AAe3fQtrtPZiz9DSqdvgBa9YPRtp9QcRVYhDRLgYzvhqAXw8n4J1u/dCmhhS7Vq/CoStafCEGDTs6/20QMe/2AXzSZyDO6GthRM+uKO90GzOm/4l0STOsvbQcnqYgYrZrRfgURiAi3wWDfl2FH3rVhUVaAAb1/RibzqSjwTtd0ayaB8QHBsWxuTxqvY165jfQ98PvEGlVBdOWr8GnLcrCXPji0OlycHDm1xgwaxNkVT/G3l0TEbVgpCGIWLb3j9g5YwicLDTwWz8RH4xYAffmo7B243iUMdfj2rox6D5mpTGIOOcjrJoyHLMOxKKzuN81zbB37SocuKTG54v/wOeNdMYgYqoXFv/xF3rX80DY7h/RVtgfbeMRjwwiulnrcXLtZAz7bgk0pdvh9xVz0aGKGwrCDuHTPgNwSlcDw3t0g49LGGYKxylV74u1R8bh8LjhWHI4BZ/OWI5pA5rDWqY3jGemVeRgwfD7gojvFKBH28G4qa6KRcfX491yztAr4jB32AD8uC0I709dhkmdnIxBxOSSWCi0+4P6ngjf+xPaDv4NmkbDGET8D2AQ8dk8Koh4/9AST0MMIlpZWZneEdGbpqCggEHEx9ixY4fhMe/7f9cSET2p2NhYjBw50vAk2osmjlU9b948Q9BSHMKFiKgoxGtx8bqve/fuppS/9/KCiJEOGDFhMt6r747U0ONY+usqHA9OROm3+2DRr1MRtaY/Bi++grr9p2Jyl+I4tPB7zN+VgLdMQcSMgwvwyQeTkFa6LiZM/RG+7vmY+s1Q7I1zwecTJ6GlbQB+mTwDZ8Ld8NUDQcQk9Bo3Ef3aVTUE+2BuDfntbeg87BdoaryPhT98gIKzi/HdzN1QWrd7IIiobdgPsxoWYsKv65FV0he/CCfmPjWkmPPFJ/h5yw14tB+IaZ/3gKe5HsFh4ahcrxWq2SZj3IjPsOJwJEqUb4JRXw1F3YouCL6+FUt+XYNbqRJ0HTMHc79oj2MzBxqCiOV6T8eOGYPhZKVD8KGF+PCjiYhxq4PRUyegZbFcLJk9BduPhcKx7WicntwW33/eF7uiHTFy4hS0tg8S9vtnnA5zwei/CyLu+RFth/x9EFEatQdD+47BsVgLDJqxHJM+bgIL4bsu/ujvaPbZj1BX64EFEz6C4vxSfDdjJwot22Ct3y+InzkK36w6BYfaHTDhqxGo6FaI27dTUatxO+yfdC+IuPpjR3zZoTc2RirQ5KPv8dX7daEJPoCZv8zDNUUZTF60Ch9XysHQz+4EEdfhg/oeDCL+xzCI+GweDiLWr1//mX9EimMiPuu4ikT06lKpVLh69SqDiH9j165dqFSpEooXL25KISJ6MmJQb+vWrejbt+9LCyKuXLnSEAB4GdsjojdLWlqaYY6Tbt26mVL+3su7TZEbiQXffobWLTugz5AZOBaagmJV2+DzL8egfhkblPL2gbMqD5cXfSU0vD8OhJjd9/ixDMU8feBZ2gbZEZfx9cBemH4iHpWKl4BFciDmjeiDgd8tR0Keg+FR6QclY91PI9C2ZUu0FJc+I3BB4YLSVlbIObcOn77TFTN3RkAitTSVv0diZocmQvm+nasCkSex4KdluK1wQtf+vVHVxRrR+5fgk87t0LptB4z86Q/czhQuuItVw9AxX6JlDU8khJ/Ct8M+QOvW7TFizDL4p+iE+kbju886weZRcxVI5PCq0RSN6nhAn3AFswZ2wzvdRyM0SQ1LS+OeWTi7oZK7ByxSgjF/ZB/0H7sE8Y/c7yejz03CxtV/4kREJsxkNsiIOIZfZ0zH9AV/Isa8BMpYWSPn/AZ8Jhynn7fdhkRiOk5SJ2FfeqFOWXskXdmL4R92Rpt2PTF9xTak3xu+0cDSvhL6fvEOvB1ycWbVWHTv3Aa9xvyCq8LxaNqmM7o0rPDU7SeiRxMnRBEfRX7aRbwTJQYQH5XHhQuXN2PhTQIiIiIiKooXPjuztiADt/z9oTRzRPFixVBMWErUqIXOH3yOCV+PRMc6pSCRmqF46VKw06cgU+WM5r2HoG/bikiKy0XpGk3RunV1uDh5obybI3JSsmBfvQne/7gvujYogZzsZMgca6LvF4NRy16HTLUdGrZujbe8bRAhbDdFKYNbceN2DUvpCmjftQ86VJQgJVeF0rW7YtSwLtDFJcLSvTLav9cCttlRuBSSAvfKDdGzfXNULeeKmNuJyC3Mgs6tIlq2aoFGFTxgnp0DrY0DinvWQrceA9GzRXXYWsngWKIiWjVthIruVtDla2HpXBzeVVqi/5jx+KLf+yjrKvao0yIpzB+hyQqUq90M7RtVhYWZFHIbN1StXAmF2QrAxh7tPx6G9mUVOH0pCJblm6F/97aoUcEFuVnJkDrUwGejhqCOow4ZKhs0aNUGNUuaI+jWLShsSqNVm9bwKWaD3KQwXA5JRvFKDfBe8zooTArCzegclKjSAM1K67B/70lorV3h6myOtKgIhIWFISy1ELVb9UDHylKk5ihRqta7GDWiK/TxibAoXhnthONUpWwV+NYrDUtrBZRaaxQvURNtuncX9qU8koPOIk7pimpN2qFdLS+UqNQI9av6AEo9dOYWKFOmMnr1/wqjh36MMm4WwuckC/7+t1Bo44VWrdugQnGh3cnhwr9DktDu+nivRV1YmTPU+Cbj7MzP5mXPzkxErz/Ozvx4ISEhcHV15ePMRFRk4sN+QUFBeOutt17K48Xi9q5du4bKlSvzcWYiKjJxiBvxGlI8h/yTF/I4s3h3OyIiAlqt1nBC0+t00N2/GYnEMMCsVCIVXxqJ5fQ6aHV6SIQTn1RI12l1QlnhtUwoZyiiF9KEOsV1pTJIIY7BpxXqFt4LZYQNGcbkM+SJ65veP8hYVmJYVyf8rwQyYXuGesXXZjJDPVrTts0M9eqN+yKubWqPob1390vYH0Obxf0ybMSYL7bXsA2R2GahjNgwA3F9oV4hX6xTJtZ5h2k9sW6JVIfbZ/diz/lQFKveAr3b1oO5UPTv9lvc/p12SWXicRD29KH9uf+9TGiPWJdQ/P+I6989TsK2xDbef5zu/JuI9RmPs3gcjPsJnUbYN0MlMDPt88OfBePxMO73/Xl/1256c4k3H8TPGR9nfnqcWIWIiooTqzweH2cmoqcl/q7l48xE9LooyuPMLySIKPZEFBtQsWJFU87TE5v3sma0IqKXSwwih4eHG3q+iH/nDCI+PQYRiaioGER8PAYRiehpMYhIRK+TVyKIGBAQgMaNGz/T7KDiyVCcbIEXsURvnjtBKn9/f8OjtwwiPpuXGkQU8jRajfgfA2NvamNP6H+iF9a7cW43zH06oIr7/49F+zC9TmvooS6TmT1Yv14ntEFn2u4/b1isJ+D8IaQ6voW6xQuw78hlNGz/Dko7mCPu1gls2X0RFZu1Qk58lDHdkbNS05uPQcTHYxCRiJ4Wg4hE9Dp5NSdWeQrsgUhE9OpRJAVgwvDe+LBvfwwcOBDfTPsdQemmzH+g1Shw/eQGBCUrTCmPl3h+DT4ZNBInIgpNQ0MYZYbsw/DBX2DDpURTyuPptSoEntmFE4FJUOZn4NaNq8hWa6HK8cf6hdvgWr8zvJ30d9OJiIiIiIjoQRxojoiIikQMyKXDC6N/noMVK1Zg1g9foLKLmKGHRqM2TNYg9h68Q6fVGNLUarH3ojFd7BloTDOON/tgmubu2Kmq/DRcDwzEqQPnUXAntqfPh9/uo7geFYy0PLUx6e66amju27bY89GQrrkXGLT3qo0JU6aiuqs1lOlJCE+2RMVaVVChaj1juptxEoX72y2251HtI6L/GMN5Tjg3CMv9D/OI4ziL5z8x76WfHoRtp1w7gPk/L8CRC7FPtn2hkFbcD9N5886i0dwZy7vo8mOvYcm8Wfh51W4k5yhNqc9Gr8jC1R1/YP68TQiNKzClPoVH7q84fvfT7+/T0CuzcXXnnf3JN6USvUDC+eHBz72wCL+J/n/eACKiJ8MgIhERFZ1EnGxJdncRO47H3TiIn8ePwIC+QzD+121IKBQu2DJjsH3RVHzcbyA+G/IV1p4IhUpZgGtH1+PrLwahT9eh2Hw1BtCp4X9gGUYI5fp+MgyTVx5BrnAxC5k5ytRvAF3C+bsXpXnxITib64DqpY291bXKfFzYvADDRw7GwKGD8e28jUjPUxnSj/wxDYOH9sXI73/FudBUQ/nsqIuY8OsvCLsdhPV/rMChc3sw87tfcPzcYUN6THoh1Fmx2L54Kj4ytXvNsUDcOLj8XvtWHDK2j4j+U5TpEZg9piead/sUay7Em1L1SI84gzE9W6BD74E4EJRtSn85dNocnNy0ANNnzsDSHReQ/yRhsbxELJ86CM2bN79vaYlPhi1C3FMGF/Jir2Hp/N/w61/7kJ5vvMHzbPTISQ7Bn3OmYeov87D/WgyetFadIgeJsaFIzFYaj0Z+ElZOG/zA/rZo2R1Df1iIU/7xUGtfRkDFuD+r5/yIqbPmYp/w3fc8jhLR4+hiz2Pox93u++y3QLtO/TBlyXb4x+e9/JseRPTae+FBRHFWY3Fcw/sXcZytO4v4XixTVIY7vobpfx+kSo/Exu2HkZAn/Gi4r2eKuNzfO+WpCWdajeZez5nHib2yHbsv3Ta9ewL6+3rSPOE2nkWc0L6tx67jWe4V5yUFY+2GHYjPfT53nIno9aBJC8Cf837B1Kk/Ytnak0hN88fy+WtRtts4LJo3AV4pR3AiKAJn1s7B4aRy+G3xMsz/6Wv4lnFAQXYakqVewkXhHIzsbI+NOy+iUDidu3rXxffzFmPe1M+QeGYXgpJzhC1J4FSmPuo7F+BydIpwntQgPOAWbL1qo0IxcdxCHaIubMKCbeEYPGUelsz9GTWyTmDB5ksIv7YXmw5nYNj0xfh97PswLzR+1+jUSsQkxMPM2Rsf9uuPtr5d8N2MMajpZmlI1+nycU5sd0JZY7t/FtrtZQ+3MkL75gvtm9YXSed2IyBJbB8R/ZfotWokRoUgICgEqbkqU6p4XslHVEgAAoNDkWU617wsUpkdmvcajh+++x5D3msMmycZDkinQUpsuGEM86DgYISEhBiWsIgU3Nurf5sEDu6V8OkXP2Dit1+gY20vyE05j6PXpWHf75PR/7MeWHoszBgkEfc37sH9DQo4jU0Lf0C//l/gaHDaSwimCPtTvKKwP+MxcexodKpT+on2h+iZqHIRFhokfPYDEWz4Ow/G9Yu7MOf7gRg1fgGiczWmgkRET+aFBxHFQV6VSuXdJS8vDzdunMXp07tx9uxexMREPFUQMT34KL75bSFSHgpeqbLjsOfAcWSotYg+tgg93u+D/gMHYuDAvhg9YS6uBCbicafK9MQYpOeb7lo+SnowfvrmN1wwXNw+XvT1g9joF21693jK/HT4bVmMQUOHGsYYG/zVWKw/EorCF9jTJTU2FGfFu6+m909DlZcG/5s3UMAu8UT/KVJbDzRo3hZdurwD33oVIIu7ib1nQ7Fl/kQMGz0Bx8PjEB8YimOXCtG8T0d42MjhVKwkynq7w8GtFFq/3QR2VvaoWbsm1FEJSDfTIC8tBatnfIEvJvwGv/PxSLozNqGZHRq1roNLRy4K5/xUBIWEomajRrAUv8GEC/r4oAjY1WuHym42sLByRoPGFZF29TICLwfDsl57Id0Wlk5lULemu7G++0ilMuGyTiJchMvufSFmJwrtLkAzod2eYrvdSqK8jysK0lOw5mehfT8I7TsrtE/FH95E9Hf0hvFXw8P8DQOV+/sHICktFyplLsKDhPeBIcgsMJ5DlMI5J9D/JoKiEo094jQaZKUmICgw0LBuUFAYckxlNapcRAjr3woMRmZmOiKDg5GYpYTMrQx82zVCSU8bQzmRRpmPuPAwQx23bgUgLinzgaEmDKzc0fPbhTh0/DiOHz+G1QuHoKRUgtyUSMN6IQmZUGSnCO27hZtCO1JN7TAS2hkfgSChXEBQNO6LqRrc2a+bYbEoKBTaHRqEm0I7YlNzcX8zjO0Mf2Q7dVJLuFSujSZvV4GDvcwwnEZchFBPQJDwfVCATGH74nqBkQko0OgNN4kig85h+5Z9uHA9EQlhwbglbF959/e0I9r2nY69xw9h/dyvUdnJGhlhZ7D7/G3hX0xYX1uIxLjbQjuEdgcFISG7wHBNoFXl3XfcMwzHPSGzABnxwf93nIJux0ItbE+Tn42IAOHfP+i24biJ9ehkpv1pJuyPnTj5hfFzEhFu/JzcuuWPpNScu8enMDsNt4V2iHlBQj1p2Q+OD0z0pCSSCvh64XocPb4HPw3vAluJHsEXduHcbbHntPA5LMgUPocBhs+af3gEshXi37oeBRkJCBT+HoIi4oXX8QgOjkSe8Pvn/vLi5zYxJfvu51aRk46w+z+3WcLn1pSnFdYLDhTOJ7djUKjIR6zwN3pTWD9CWP9Oh2CdUoGkuGihXqGcUEd4RBwUwt83Eb0aXvrjzOIdwEuXBiMiog9iYj7GsWPzDL0Ri0qrLEBUYpLpnfD+EeNwKfNzYFGtJ+YsX47lyxeiTw1z/DLlF/jF5wrnxPvHRhF7/emhFr7Ety2Zhj9P3YZarEfs7WjqGai90+tRJ/x4ES54Hx7FRPcPY2WJY2vd6Ql5/7haYlG9VonT6+dj6ckMjJg+T2jrEkwb3g631k7H+nMhhnV0WqGNhvVMY3PdaZuwDzqdOKaLse5HtUMcE0wc88UwVplQ/k7zanYejZ+GtoftfT0gxcXYzoePj4mw8p0xz8QfSE5lG2Py5O9R3sE4y+rdMcTu287fbZ+IXl9SSydUql4DNWvWQJWKJWBuYYsyFRtj3GzxfLsCf23Yhi/fqQpLWRbycwsN64jjh4mLOGmW3Mz49WNmZib82lQjL+oUJk/dhuofTcDCmePgW9HJkH+HfcW3Ud8sFLv37Eaw7G34lrs3e7KFuRaKrGwoDXdE9MJFuh4yS0tYmgnbU+uE86KQLJwbc3MzxQL/TCaDhdDuAqHdhrOh0OZCoX1TpmxB1Q9/MLSvSeUH20dEdL/CzCCs/mU43uveDm3atEH79t0w449jiA49i2/eb4mOfQbiYJDxhnTEyRXo824LfPz9IiRkC+fD8AuY+vVgdH7nHWHd1njnnfcw8beNiC/QIiPyHL4W1u/U4wNMnTwFH773CRbsvYEdv/dHy9ZtMHzJUeM5KzMZG+dMFfK7oUWLFkI97fHpgFFYeuC6cE6874eYVAYn99KoVLkyKleuhPLl3WGuVePc2h8M9fX/+Q+s/mkQOrZtjVadu+ObXzYgrkA4qeo1iLq0E9/374kOLVqi/TufYv6OG7g/xhh5eiU+EPar7ZDvsWz2BPTs2gEthHZ8PHQSTt9ON5xfCzNTsGnuNHz0UDsX779m+G2blxSEaUNaoUW3T7DmfBxUGdGY+20v4f3H+GXFCnw/+H20aCkez8FYuu8GUuKDMWv0IOwISxRO+2psmTkUnT6fibCUO+MpSuFYrDSqVK+NFj26orG7CyRQo0ChEn6v5uHEulno93E34d+rDdp07oxBE2biemweMqIv4NverdDxvd7CcZ+Mj9/7GPN3X8eueYPQqnVrfDJ1Hpb+MBid2rVG5+4f4Y/dZ7Fz4US836EdWnXqjjEz/0Jcvs7wBM+PQ1qjRfeP8ee5WCiyQ/HX7M/Ro3t7w+ekQ4eumL78CLJVeqQEX8HPYz/Hux2E4yYcm46dumH4uJ9xKsQ4NAdRkUisUNKnEqpXr4/O73dABalUOBcooFRqUJAZjlU/f4H3e3Y0fg7f74UJy3ciNa8QgQcWonenFnh/+BhM/XwIOvf6BiduXcLGuUL5Hh1Mn9t3MXXJQWQJv7/SQq9jxrhReLdjR8PnVswb+u00HA9KNjQjO3A/BvbuhJYDJ2Hdsin4pLvxvNBz8AQcCU4zXL9GHF+DIf0+EtYV6m/dCj17DcDynVeQf/89DCL617z0IGJBQQEsLTPQqZMOdesqkJ+f9FQ9Ee+XHXMVc777DH2HjMTPKw8iQ3FffRKp4SLVzMweDd/tg87lhR8rOy8jNzMaf/7yAwYPGIiBn47GvpBoXD+wBlv3HMGm+T9h3uYLSAw6iPGfj8DAgcMx+ofFiCr8mz57OiWu7lqAEf0Hou9HwzB9/RkU3PeotS4zCsunf4GJKw8gIzMDJzYLZUcMxsjBo/HXqXDkZlzDwYPheHfQMNQpZiW01QIlKrTEsE8aYN+GM0gozMe2xZPx3Yzf8MWoidhyOgyBJzfg21EfYcDI7zFt4ncYu/gg8nUqXNu18F471p02tMN/7yxMn7sQv04ajY/6DsMv2y5DKaTf3DMLP2/3Q07oKYz9UtzPgXjvnfYYPX8nMlMiseZX0/H5ZDT2BBtnQE0POoFp479E/wH90e+L33DBbz/G/b7AMFZZXvwt/PHz1+gr1PPpyG+w7EgA1OL29/2CH+cYt/9x36GYtfUSFPcdHyJ6/VmUqo+3vZKx4Y+NuHzrMvbtPYlErTPatK+Oyxs24PC1Kzh++CD8rkXhUWd8vcQato4qZMTF4cTRo7ge+OBFkpmFA96q6YmzG/1Ru3VNWN15Wk9mjvKNW8Itej92HDuJSxeOYe/FRNTo0BzVG9aAJnAXDhw/g/Mn9mLPxVjTSv/AtpTQ7hq4unE9jojtPnIQ568nw9JRjcz4BJw4dhRX/XkRR0R/Q6fF7eNb8OPiA1BZNMfCbYexdfWv8K3oLJzrxGyt4bfvfb8UodUIaYY7HoBKpUWltz/BunU7sHPdYrQop8LaPxdix8UYQ+BNvGGcmxSFnYeOQ+LhhWLijVy9sU7DjWBdPo4sn4LvZ69AYLoG5StWQVlPR4T47cJPUyZhx/W0ezeHC5KwecYwtBHHSmvZCsMWHTb2JhLaolWrcHv/H1h3IQXuxZ2EH4ExOLRpOc6EZKIgJQhLZvyEDRejISleBl7F1Tixfx9SMu/rGKDXG9qk8D+Gv3aegbWLBzxsFLhxbB1mrzkGhSYPR1cI7fxtOQLS1fe1czdmTJ2MHddSjTdyhP0V67l3w1xoW1oUdq3+E7eyzeFub4ns4DP4c/025FuXxdi5y9DNxwNSmRl6jF2M/fO+gU+xOz00dchMioT/zSs4unEbziamAXJ7lPN0Qty5bZg+azluW/hi1p+bsOCzpgjbvhK/rtyDdKXO8O+WlxwjHPdj0AvHvbijlVCd0C7hOEUd3oZtN9LgZGeO9NgbmPLdSMza5Qe5qzPMMmJxZNMKnA7OMLZAXMcwsYUWESe24sdF+5Ava4L5Ww5i25o5aFrZDYVpgZg/ZTQWbDqMQisXVK5cGc7meTiyYQHGTl+CsPSid8Cg/7pCxIQE4uaNC9i1YR9ChM+zpb07PFzNcfrP3/Hz0iNwafM1tmz7C0MqSrBp5nSsOxNmOC+Jf3+JV49hl38SPMqXQprfTkxbsBtZ2nqYs/EAtv81H82rFYciMxQLp32J+RsOIN/CyXBzwtWqEMe3LsG30xchJNX4udUKn31N8GEs23gCGlsX2OgUCD+xDmsOXoFGq4daaoN3+k7Erl37sWne17DO9cfPC1cgmMPIEL0SXnoQsW7dunBzm4SrV+1w82Zt+Pp+Dmtra1PuU9Dn4tDiXxHl+CHmLZ6Nfi08kZ/x6PH5pHIr+FT2hDohESqNNZr0GiSssxhfveeKNeuuoHzHT9GtY0u8P2IcRvRoAGubMvh0yq+YP3sKKmrOY/up8Ec++iucB+FeoTEmzFuMuZN6IeTgTkRmGu946nPj8deiGbikb4bPP2iNxPPbsPGyGt/OmIcpX3XGmXVrEByTimyUgk8ZcXrTO6Rw8PSAdfxNJGVokXP7Cvzz3TH9t4l4p4YaW5esR43eM7Dst29QzSoTt2MyDSfd4j4N8YPYjsm9EXpoFyKEduQkhuJ4QDK6jZyOWSOa4eTmLYjPUSI/Mx6hyfmwr9AcM2YvwIJpw9GwYnW0btEINhZ2aNxzoOH4jHm/GNasPYv0vFD8OWcZijcfgWXLl2Dy0C5wtdQhWjieUGVg67xpuKxrhXnLl2H+mM64sXYxbsTmCj90b+OEfyK6jvwJs0Y2x6ktxu0T0etJ7uCJd7u0h5epB7JIbuuOfhN+RB3bCBzZewTJMIezrR3qdh+NYZ3c4Ld3P67cToBjyZKo06QrKhc3rmvmXh09uzWCu2d9jBjYEnFXjiPZ5i2MEy5qK7vYwL5sQ3Sp5wNIzFCmblv0//5jtPJ2g0RqhoYteqK+tyNcKrXGt+MHIfPWORw+dRPV3h2FT1tUgGetzvhycAdEXTqBc0lW+GbMl2hRxR22rt54v2MnuNqaQ2ZfFh16tIK70ByrO+l2VqjT7QsM7VTC2O7QeBSv+y5GDWoltO8Ykq1qYdzMYajiapzFmYjoYRK9DjqFBIVZqQi6cAUy97fQtVNjODzBIHgOld5CA3ctLh7dg10HTyApWwt9VjoiQmJxJ3Skt3RE2yETsG/XOgxtV+WBsfU0uaHYu/k4spV2eHf079h78BgObFiEDxt7ozDcH0dOXUXenbs5ei0yk6IREhyM4OAQRKQ8eJEu/r6ds+kANi2ditruUuQX5iAuJQNJt8/h6LFw2LjXwXcLtuPAgf2YObI7XK3NTGveI3Mrj9G/r8Wxo/vw+1edYK9XIuLkGYSmCu3cchxZSlt0+WI29ojt3LgYH5naefj+dj5MZoUGPT7Hzn17MXv0u3Cx0iMuNQXiE5gly/nAWW5mGKrCpVRFVC1XCuZmd+48ZeHQH9+jc4u2+PDL3xBaKEXN9wahZ1NXXDh8GCExahQ3UyP04jlcSyyAUluAWwE3kJNnvALQW9ij9cDxwnFfj+EdqpqOuwSl6vXAn7sOY9H3veEoFbYld8OQueuxZdkvaOQhQ74iF7EpWYbS95NI9NAKnxNlTrrwObkKFKuBbp0bQRVzHocO+cPSrRa+nb8Nhw8dwtb536CWmxVCTx3D5eh0MUZL9MT0uhD8MuwDtGr5DsYv3oNCBw90HjQCjUrEYd+208L5whZOBbE4fdIP0QUSKPIicTEwRryfYKB1Lo9v5qzE0Q0z0Njb2XB+U+dlItjvipBXVfjc+kIbfwEHD9yE3KkavpqzxfC53b7wO9QtZo1w4XPrF5FsvEkhkJi74dPJi3H0wDYMbVsOMokGYXEpQo4e3vV94a0MxeG9O7Hv7E0olVrk345AVGbefTdfiOjf8tKDiObm5qhcuTUuXpRDo9EI7y0Mj7Y9tfRonAtzQqsPmsJJboUS5aqjlMffBSX1UCis4FjMRbge1SHqzG58+cUwzFx5FHE3opAnkUImfPGLY2OZyXRQ5Bfi7MrJGPbFN9h1PBppadmPPHFJ5eKdyXgsmz4Ko6fMxzW/eCSKPe20SlzdvQQHEsvimxE9UVyuRlTgeZy/cBSTvxiOr2esQkZBIjJzhF88GiXE6fYfoFYLJ1gb4RgJrx1K4O1GtWFraQ5l2DUEoYHwvgzMrVxQrXp5mJlJje1ITcQKsR2T5+OqX5yhHTILa9Rr2RUVitujZJnqKKlXIUZ1XzhUPP7qDOzatAnSWt3QrkpxaCU6RJ/bazg+M1YcRuyNSCSFXMbF7Mpo36oiLIRjXbZqBTjKxfFcBDmJuBrhjLYfNIOTmRzO3lVRyyoFV6IKITMXLshbdUPF4nbwLF0DpaBGrPG5QyJ6DZnZFUfHjm3hbi2enO6xdi2LPkN/wPjx4zGoWzNYm4vnJUtUb/OZIe3r4f1QrZQTajXvgypi1E5g6VkNH/duLJw3LFBNKPfDuG/Rr4f4OFh7+NhZCueSeujVqKyhrJmdO3zr14ONUK9MqLd+m4/RwNvRkOdSsQm+/Po7jPv2a7xTpySkhu8VOSo06YavvxO2/WkXNGr7HppXdYeNsxe6tu8AO0szmDuVRZcP2hmDiPelG9v9iand/VG1pAOqtf7U2L6eYvs6oIL9vSAqEf03SKXC+Uf4nYgCBTLSMu9OQqLTa6BVG4drkMnNUbbBu+jXvRHsNIFY+PM4fNJ3AGZs8oNSZwbZ/8fZ7tEV4Mz6XzB8zHdYtuUU4pMyoBJ+CGrVGhTmFt7tyW3lWBwNG7wNBytzw2/XBygKkS38xpaZeaJZ8+pwsZPDvlxV1KlRFVZqod2pabgz5OwDYyIeO4KFQ9oI509Tnvioc7qD78UAAP/0SURBVLW3UcXNDsW8qqNyBVdDsvi4tCY/D/l6KZxdq6BJo5Kws7NHtRplYWP9/5cWzuXqoH750pCb26NcrcYoIdSvVeegIKsQOcJ+yWRCO9+uDlexnWWFdtYU21mITKGdqr8LItq5olKNBnCyc0K1WjXhIHxfPBkZHIt7oXKVKqjWtBmGT5qJRVOHwcdCj+iUJOQJ/6IJYVdxZP8+nLqViJJlK6NSGXfIZcaDIh73Bg2aG4679M6BEj4T1t4+KGkrh4u7J+wggb2NJ6qUKgWXUt4oU8HNWO5e/08j4bqjdN3OwuekMRx0QVg883t8+ll/TN9wDjk5ucLxlQjHt7JwfEvBytoapRo1RWVn4TsvJw0pWYqHayP6B1bw9KmAKlWrov67PfDT/MX44dPWsE1LRnB+vnAOy0HAxVPYv/8AgtLNUb1adZRxtTFcJorcfOqhQaXykMvlKPVWJ/Tt3gROkttY+st4fNa3L35cf8b0uQWcnCujaWMvQ0ehkuLn1s0Zktz0Bz+3paqjdjlvyO1KoX7d8nf/nvTKJCyf+hWGTZ2NfUdvIFepRKF4zhXOf/n3X78S0b/mpQcR71CpxHEY7GFufm9cq6cik8NSpoNM+PEmUhbmQ6m4M+7JfYQfPMq8aFy7loSyVUvhxo4lWHPNEhN+X4hJgzvDwebOvUTTmVIoO2/KXMSV7olFi+bgo5YVjemPkBt8EJN+2ofG/adgwfSvUaecgzFDOOu6l/OBfU4YQsNjDSdNK3M7NOo8BHMWL8eKlWvw18r5aFq7GkrIonHmSuTdH6N6nQIhV27AvHJ9eNoJCcKJ1czMFLATfpzqhB+hhieChf3Kyc6AOBZhbsghTJq+Fw37TRbaMQb1yhkvrsUftJbmxv2TCj9YpGI3ccM7E50a1/dtxKEUT3zYyxeWEiUub1+KVZfkhuMzeUgXONoIv3jN5FAq81BQaDz964QG3P0iMDOHnTwLhXmmsc/UKhTorIRkM8P2re5sX9gPqUb3Cs38R0RERPRkzK1tUdLdA/KCDJzZfwg3o3Kgyk7ClYN7EZoqgaODD8p62cPaoybGz16HdfN/waDOtZAffQF/bNyOtAJL2Ak/z1Q5eYjyj0F2djouBYYj29TFUJOViEMH9uOWwhndp/yG2T+PQj13M5h+Ad4l/p6SixfWj2JpDYf/sXcX4FEcbQDH/3FXIJAQggZ39+JWKtS9pdRdqAHFnRZKKS1QStHi7u7uEg/xhLh77pJvd+8CgUI/ILQl9P09z7bJ7t7s3JF9b+bd2VkLc6WtGM2BfRdISM8n7bIPpy74kG1pTTm38lgWv7TknIh161Kjgt11ySkTpf2m7mqiTQ9kaMupzO3ssTMpIik1gBP+8WRlJrHn2DES0v58p0lKsB8+gRHK5xTHhf2HiFEOYF2hMi4utjgW13P/BeLVeoYo9Tyv1tMGV6WeVrd4i2ob20xpF6utdrVe1w9IUFrzyq/qfOfp6WnorrtI76Q9WGXT3r3sXr2aUW89Tx1XR20Aga2VJeZYUrnDi8xcvYkdO3ew6LefGf3hC3g6G/sJSsEWxe3x23Dj53Yjm0qNGDJ1ifJ3MpV3H21BTtQJfl+2mis55qhDIlISfTlwJIKsrCwijhzALylZeQsVcHO21t6jELfLxNTwYJU9e/awce4vvNGvI25q/8zKGnv1XDJxpMObY1izfQfbNm9k+o8/8vmA5pgbk3tqvFH/nlXWbvX4+vslLP15Gu8/3pq8mNP8/sdKIrPMlLgAaSl+HDwSTmZWNpFHD+KbkESRY3kqlvy7VY5poZSt/mphce0iQM7lE6zcfYo4j/YM/3UG377zMF5qoUKI+8a/kkS0s3OgevVXqFTpBSpU8DCuvUtOlenYwZmti1dy9OQRtm7fyYXIaw2YjPgwzp89y9lju/h5+m/E1uzJs22rYmdRoDQU0gk9e4xtu08qQa5AaZCZ4e7oQsjZUwTEZOLmpuxTmMmZw7vZfSjIWKIqneBLFzirlKs+cS1DZ4O1YwGJEWHs3rUb30DDnCeYKg2R1s8z+O1ubJgzjYX7I6jR8SEsz61ky9FjnD65jx27L2DiUI0X3+uN/4JprN57WCn3JFuW/szCI+a8MqgHjobSrrKq0pDaNj6sWLaJU0d3smHfOdKVxmeRqZ1Wj6TIcPbs2qM02JKMr/hryaE7+f33bdSoU4/EgIucDYpRgno+libK53PmuPL5nFA+Hx021drRqWIofyxawwnlc1u/YR+x6YakIY7V6dOrLgcWLWP32dPs3ryJkHINeKjejbUXQgghhCijbCvSrV93albK58K2n3n9yT507f0In01ZSZyVC036Pkoj50Iij21h/r5T5FfxxtvbQ2lzmmFuYYGV0gauXMkLfXokc0a/Sp+HH+fH5cconnZbHcXoaGuPaUo4i4a+wqPPvMf6Mwk3nUv2VszsvHn4qQ44WqSwbton9O/VlT7PvsMfR0KpVLcZj/XuiF1xHqzknIjKMuCV9zgW+X9uGDQxpXzVZjRrbEdm1AnGvNqfnr0e5btFh8nW/bmzr0v2Ycz7Lyqf06N88dMWMqycaa98hjXK16a/Wk/LVNZP+1SpZzf6PPM2S46EaPV8vGQ974SJC57ejtpciuu/e59e70/Qpu8ppiZCzNT50s3MtGSsVmMbN7r27Y63awGXtvzEa4+qD3TowZNvfcF2/z/fhnxPFBURc2IbC/aeIM+zJt61PbBUumbmFlZUrNWWvr1rkJN4lknvP6E9vOLJD6dwPilP+ez6075WpeJhD0LcJhOtr3v1b9+YzTNxa8bT/RtjbxrP6vGf8EivnvTq05dXx/5OVNpNhn0of7dxp3cwf89Rst2rU7uOJ1bK362puRXlqrWiT29v8pIvMuXDp+jVswcD3pvAmbhs2vR9mI51Kv/f5IOFnT2OSh2Lgvby+UsDePbD6fjEGvubQoj7wt+eRFRv+7CysrpuKVeuAi+88C0dO76Ik5OT4baQO2TvUZ+X+nbDyc6FHgM/op97MruVYFZUbwCTBj+Fu70VLt7t6FQlj32bN7N593m8e7zByI8G4GBnR9P+b9G7ngn7jvhTu/8bDHy+Iw6WNrR/+lkaWcZwOsyCx98ahHn4MU6Fm/L2qM/p1tADC3t3+jzejISj+9islLtj/1GyXNvw0cC2XD5xgLTyHRg68Q1qOdvi2fxx+reqS83WjylBsA2JEZdxaPgIn3zyBBHH9rHn0AXMKnthbWpB7W6DGPL1k0Qc36+Uu53LuZUYPHEYHas6YmJmQYvOfWlTo5z2D2bjWofPRn9KBaVhse1UBA2aNsfF3gL7qh34+HVDPVK1eryJt1IPj2aP0rGeMVlrX4nHXuirrLfBs9ljSv28yUjV4dmmNUSd1N7T/vOhNOz7Jn0amrHvqC/e/QYx8IWOlHfy5IMJ39HEOpwdm3eRYm6DV42mvNC3By52NrR7fjBvdbPj6OatnIuz4b1PPqCWiyUeTdXjVzYc364Sj77QTzu+EEIIIUSZYmJG/V6v8vVXb9O2oQPx0YEEBIdh69GcQZ+OZtz7fZQOdRHZSReZ/ulb9O3Zj8/m7cet1QuM/fR1vOvU4YXX3qR9bUcy02IocmvBwFf6U9nFXLst2cTBjUeffIr2texJj0nCrVEHHu3cBjtztdOvHt9EaTcbkgAlR6KpDxExVxatDHM7er7xBeM/f5kmblaEBAcQdiWNOm0fZ+g339KjjuEWRXUkn7mZCWlxEcY5Ef0JDA4ho0B9m8o2pSN/9VZpdX/1GMo6dTSeo3sD3vr4a9rVqkpadBj5hTV46dln8Kpoh7nS9i/JrHYL+rf2Uo4TRrppNXq+/DUfP9sGS3Nbuiv1nDBYqWdFa0KD/Q31bPOYVs+ede2Vw157v8VJD7XfUPL3qw9RNDMc19S0HL1eep1utSqjS0sk18oBa2vLq/UvfkvXUf5d6/Z8ha8/eIv25cyIDQ5UPo8YzB0aUK+Sq+FzV4+hjdi6VkDx5148WkstXN3PTKmLtkb5j1Zf4+uuvh/td+XvJMWHHz9/R/s7+XjObpybP6/8nbxBvQbNeH/4WN5/ticOBakEBgaSkmdHn2c/ZPRHL1PF8W6yq+I/qfj8MDf+Td7ARDkP+705lM+f7km1giSClThwOTyXml6NcbW1Ul6uvF75m1X/povlpPkz84v36af83X7wyzbsmzzD2M/fpFHDprw3fDQfvdAbZ3269neblGNDj6ffZ8zHr1HN2dxQH+28uVaeFm/UYyjnj3mVZrz5VHeq2ueSEF9Au0efoE21ytoI4JvVXwjxzzMpUic2uUcWL16sPcpdnffQx8eH9u3baz/fLbVqOTk5pXvwygOpgJTYdOwrlcMsP4mlE7/mUo23GftSyz/d7iLE/ar4/L506RJeXl5a43rTpk0MGjTIuIe4EytXrqRVq1Y4ODhw/vx52rVrV+r4m5eXp3S8ZN4/IR5U2dnZnDx5khYtWhAeHk50dDR9+/Y1bhUbNmygbt26VKxYkfT0dNSnAhcr1OcQHxtNUmqOEi9NsLMvRyUPN2yM9wnrshMJi0gkR5vf2hIHZw88KzoY2mm6bGIiw0jOKsShnBcV7HIIj4zHzL48Naq4Y15YvN2MclU8scpK4EpSNk4Vq1DJxZSoyyFkFVniUa0WLjZqiUWkxgQQmazDSimvtrvhLhBdXjZx0bFKOVnaCCSX8h5UcnM2JNEKdcq2MOKV+pdkZmFFleremKaHExKXqZRXRSnPiSJ9AVciL6NUg4pVauDmoHy/6PKUesZo5ds7uOPmakJE5BX0Vk7UVjr90Yfn8dXkBSR69ubnb17CLCeDvEJ75fUelFNeX5wQ0OoZo9Qzs2Q9nbQkYaEun+iwAFLzLbTjVrA1IVapR2KJeuiyUwgOj0Fn6UQdNdlgZqLUV0eS8hnGZeVjp3xuXi42JMYov6fm46L8XtlNnbnwzwp1yr9rWARJOfkUmVhi7+pOlYrK51mYRWSI8rkXKp97VeVztzV87mkxgUQkF1z9nAqyEgkJiaXQ0oGqtapio7TZYyNDlPoWafUtbwMx4QGk5Cnvx7M6rhaZhCt/J9n5+drfib2TcrxKjlfb87npSURfMWy3tLSlvHtlysl8vPc9R0fDObh69WoGDhyoJZL/bmp8mjdvHk888YTWps7IyNDacuRnEBQaSV6BJZ7e1XC2utmkrEXkZyYTExFLhr4IUzM7Krh7UMHZkty0OMKjE8DWlRpeHlgq55c+J1mJbwmGv1sLC+yd1b9bpxJ/t8nK361hu4WFjVKW8nfrZBhAos9J5XJ4NPnmDnhXU+KbuSnZSRFcvpKOpWtl6ni4KPskKeVfIa/Inspe5UmLiiI935zKtarhYv1Xk8oKIe6UdmFQiVlJSUlcuHCBAQMGGLfcmiQRy6D8zASWThiPj005bNIySbMoz8uffkSLCnf/WQvxTys+vyWJeG/cmERs06ZNqRut6sOv1KvXQogHk3qh4PTp05JEvIXiJGL58uU5fvw45cqVM24Rt0X5ntcX6inSRt/JKCLx4FPbsikpKdSpU0frlP9bSUR1Dk21fS0xSwjxV9TYlJCQQOvWrbXYJUnEB5g6x0t6bDCh8erVY3MqelXH3dXOsFGIMkKSiPfWjUnEDh06aNNH3C2Jv0I8+NSOppockyTizZVMIp47d05GeAsh/pJ6fgcFBeHs7PyvJxFjYmJo1qxZqY6t1+u1pTRxTwhxf1Jjhnp+nzhxgoYNG95REvH6SUtEmWBiaoaTRx2aNm2qLA0lgSiEEEII8TdTL3apHfLSLPeiDFlkkeX+XO43N6vjnS4Ss2SR5cFd7tbfmkQszm6WZlGv2t5svSyyyFL2FyGEEEIIIYQQQpQNf2sSUU0SFBQU3PWizselJhFvtk0WWWQp24t6fosHjBKvdfpC7tkcGUIIIYQQQggh7ht/axLRwsJCm/flbhd1Pi9TU9ObbpNFFlnK9lKa+frEv0uXl0lwZDT5+mtPKlXlxvowYcJULsRlkJMcTmh8mnGLQULMZZKz8o2/3b28rET8zp3T5ig7dy6ItHwZ1SqE+Gfczh0y6p0490qRLo+IiCiyCv7ZOKcvyCU0JPRvO25GQgQxydl3fNGpUKlXWGgomf/w53ErhvqE3Df1EeJGt3NnoBrXHmTZiRFEJWXKRW4h7hGZE1EIIcQdSQs7yYjvpxCTmmdcY1CkzycqKoa8wiJ8d8xk2JKDxi2GxOOynwez7OQV45q7oDRyU4IOMPPHCSxcskl7EM+aeQs5HpNi3EEI8XdTR5EXLw96x/Nm1A53Zmbm1SUjI4PY2CuEhFzWFvUph/n5d36xJDc1mjWb1xOXfn1czUu8zLTJkzgZlUqC/15WHrxw9XMvKirkzP4VHAxK0n6/lzJjLjH22y85oRz3Vv/KWRGnmDltImPHjlWWySzbcY7s27jJoEhfwMHlU/lh0yXu9JPKuOLL2GFfcCIi5Zb1Uj8XdVS8SpeVxJYl0411HMvPKw6SccMFsNLIuOKn1OdLjv9FfYT4N6nx6MaYFRERrsWr8PBQ7WEKd3PhIzv6HL/8MMlwbk2cysbjIRQYt/07ivA5uIx9/nHG342UeHl87QymrjvH9dFVCHG3JIkohBDijpVscCaE+2ijAgMikigei6F14gqv71IVFerQVhUWEBsayHl1JKFfuNLpNLwq9UqwVo5vQAS5yqrCghxCw6NJuBKqrA8mKeYis35ZgWndAQwdN4xhw4bx7fjPaeXuSkFGHCERVwi97Id/0BWtIXtjeepx48KMx1XKkxGMQtw+9Wnt6pOchw4dwBtvtNSW2bPH3VXC7N+kvg81Lvj7+xvXXKM+nVrdFh8fb1zz/yUnJ7N27RBWrOjPypWPsXXrDO0JrXdKTSKu37KexMw/d8MLjdNExPvvZ/lBn6vJKjUZd3bfUg4GJRvX3DsOHo0YMW4SrT2dMTGuu1FGxFm2XsyiY7+H6d+/N60beGF1m/O0FynfIYU3fEfcDgePBgwfN5k2Xi63rFfy+fUMnb6aFKV8fVYiO/aeolzjDvTt24nkPXMZ/8tO0u9RHtHBoz7Dx06m7V/UR4j7iY+PD+vXv84ff/RnzZrnOXVqh3Zx5E7lRJ1ny7kU2vTuS+emFVk78huWH48wtPP+Beq1lQuHVrHXP9G4poQiPfp/q2JCPIDMRiqMP5ea+kjo6tWra096Ua/EVqlSpVRPfVGpV7rV26Jvm7HjamJq8q98matB2MTU9G87ttoxV4PgvXx/ho69CaYm0vwR/yz1/FY7a05OTtrT3wIDA2nevLlxq7gTvr6+VK5cWbtNPC4uDi8vL8zNzY1b786t4m9OUhhbTvrTo0sPMi9tYPKE6fikZBPi58sp/3R6PdYLk7D9HMmoxtPt62ivKdTnc3L/akxq9qF6wRl++m4hlyJiuHAxjBrN6pPnt53ZC1ZwMSSKkzv2E+dcm5qWkQwf/BGHo1JJjMgkPzeQc3FufPj6AJytDfHKzNIaG3MTog78xovDF5KanUFKqjX2uvPMn7/8anmxTt7Udspg44olHD4fxMltawmwr0qHWh5aOUL8F6nz06qJMw8PD9LS0rQRKrVq1dLaMuqFguJF3W/hwtEEBLzB++/78+yzcTz6aByZmYc5etSWxo3bK+2TovtyUanfL+rPe/fuZcWKFdp3jRozDx06RM2aNbW4+dtvv3Hw4EGCgoI4c+YMwcHB2tQbFSpUwNbWltjYWK1dq06zo34exdT9IiO/VT6TWLy9Ezl9OpUGDZ7FwcHBuMf1bhVX1STitiOn6NC5L+VtTTizbS7zVmznUngq0bExNOrYDbu4E+xLKM/TnRoa3lOhnnMHV5FVuScdq1lyevsqFi3fwP7z0Xh6VyXDdw8+aY54lrfXkmnbDx/HsZwHtgXRrPptAWu37+ZCQLYSg2timZXEtu27iIny4Y/lx7CpZI9/gC+VPGpga15E4OHVzF68lgMnL1DoWp1q5e3IjDjL9hB7Br3anxrulXBxtCE/LYZ9hw8SH3yGBcvWcSnWlHr1qmCpvMc4v73MX7iEXaciyUwKIs2lOW09c9i1+zgp4er+67ngn0WNpjVRPgLSw08zb8Eitu/ej3+2A01rVKIgI4EDp8/iptQrN+wQ+32vEHR4Hcs2HyXLxh03q0RW/vw9C7afJyXHBE93R+XfxJd2jz1Lh/p18LCPZOv2cFq3rsOxjfNYvn4fkZk21KjuQUH0GdbuvUiE7z52HE7EySaCHScvE3lyM8u2n0Dv5IUuaAezF63lnF+m9rlZKJ/rgdNncHOviY3yua7+fSFrt+3CJ86M+sr7NslMYMca9Tg7ORCQQI0aNXC0Kd13s7h/qbFBvbBQPG2Pn58fzZo10+LG302NcWfPnlXOt3paPdR4rsZ2NYaXTBKuXbua9u0X0KRJotJvj1HOj3I0bdoTS0v1LL2eWqb6+pu1J3Oiz7M50IKBrz5Kw5pe5Ppvxk/fmBbl4lm4aBFbd56ksEJ1qiixIuLMdo74hLFvxzbCM+xwLgpm4axFynl2kgxrdyV+OJEdeU6JD+rr9nIxzYamNd3RZyex/9B+EkLOK7FtDacj9Mr788KaPM7vXsvCpWvZs98P2xo1cXe0xufQShIrdKVrnQokBh5kvlKP7SciyE4OJsG+CT1bVEXOPiEM1PNbjQ1qO9DNzY3c3FytD6nGkP+nzI5E1OWkERAZi05//VWF7MjTjBg/k0ClQ1uQFk3YlVRKXmyMiw4hPefveaCDLiedeT99w5aLt38F+04lB+zniyFjCEjONq65M+lxYdpVdm25HEuBvpDz6yYy9JfNZBn3EUKI26JLYs/qrZTrOYRxQ77m05d74un6f+a6VDq98SHBJJp68MRr7zL860HUsM5gvdIpS3Bpz4D+fenS3IrTe7aRroS5wjxHmvR9lS8/fw6P/CzMLN2wtPjzV5c6qsXOugrPvfchbz9Vi32L1pDgaiivawtrzuzZSra5Bw8//QJPD3iEhx+qzr5lR4kxvl4IYbBt29qrIw2Llw8+aI239xS+/FJHhQoQGwuXL0OXLvlKZ3k433//vdIRPc2RI0fuu0VNCKqd6fPnz3P06FGefPJJbRTz4MGD6dmzJ7NmzWLu3LlaA/rtt9/Wtr3++uta4nD+/PnGT+XW1KSQg8MrxMRYKJ+Ls/L7M9jb3zyBeHv0+G6awa/rwmjVtw+1HLPw8/1/UzYUEXV+M8s2BNK8W39a1XDDhGwizm7naKBhVI4uK4Ht+/aSkJlPptJhsKzZhH59e5F3eS2LdgeTr2zfPHcCi85l0bdvB9xMU7WRkQnpOVzcMJ0Zy/xo0bcfHeva88eMqZwKN8x5m6e0tS+dV9qUFy5pcxzmpsWw+Iev2BlhQa+ezfBfO4cF+0NJiTzBtDGzMa3Zlt6tKhDur0RfpQOTlRjI3PFfsSPcgj69e6G7vIbZq08Te/kI4779gaJqLenbpyMJhxYye7sf2akxrFPrlZFPgt8eJkyfRVr5lrSuUcQvE2cSmmVH02aN8KrVkJ5dW1LR0brERfc84iIycSznxIY5kziZ40Xvrs0J27aUrRejyQg/xaTvfybAtBZdOtQnJ2Af036cRVK5FrTy0vPdCwNY4FNEr14diT+zlD+U95WTdkX7nOLTE9kz7ycuZVdWPr9+VLMvJD8/jaVThrI73IVu/XtTp/AcU2etJiNfRkSJf0+fPn0JDHwIS0sTwsLq0qhR35smEO+ETvlbj8twxkUXyJQffseqVhv6tSqnnGe/E5BRQMjBPxg8czPl67aiWc1cVkydj3m9HnTv0Ab7wgxSI08xbuj35Hk0o+/DXcg+/Qdztl4iOy2OZT8OZr1/Id17tiR66zzm71HiVWYG6UWWtOnVn9aVopm1YMN185Jmxl1g2qifKfBsRb+2FQn3i0R/Q85ACHH3ymwSMUn5Yh86/ReSs6+/jaZQl0tElOFWtpD9CxkyZ9fV5FhBVjLzpg9my6W/J8mnjuhLiPQjJfvvmxHCppwXHdo0o7z9nT6UoojIo8uY+f2PLN2kziW2nBnzN5GZVYBztRbUr3XzKzP5yeGsXLeT6AyZRUIIcYO0JC5G2NCoc3UsTUywsHVVOs+GSKKNlVY6iNeoo4KUdaYW1Gjdl04N9cydPIRJK/aRlphKYHiCEj/PsHXzVs7FW9OwcV1szQsxq+RJI09ntUAs7SxIi48l92a3IZuZ4VDdG097pSGcm0lgRALxxvLOxllp5WXHnOa372cxb8VqDp4KICcx447n4xLiQbZr13bCw99h7tzz1y2//HKBLl2uXYCdORMGDVJOZ6UVWaVKHuvWrcPd3V0bcXO/LY6OjtoIQ/VW7E6dOl29wq6OFGratCmurq4kJSVp2ypWrKhtU99Lx44d8fb21n7/K/b29vTqNVj5DKoSEeFBtWod7+wOmhvlJnBwjz8NnxlEr+Yt6Na9O83ruxg33oISa02KrEhL8eNSZCZte3Whmsutb0O2q9GS2tbxbN2ylSClc33hZBDqpWlz+zr079dT+Vxq42xhvJMoO5Zd2y9Q67EXlPo0p0vvR3jIPp5D52OVwxaSGuXDdrVduW0vvlEp2oV7x7qdePLh3rRs0YsBnSrheymUkEvHSKnck6f7dqdFmx50bV9LG02pcqjTkaf696ZFixY83KcZ0fuOcPHwPmLcHuLpPt1o0bwjz3Svjc/mPSTmaC8xMDWjTqfHeKp7W7p3f4T6jpmEZ5vgVa0Kdq6eNKhfE3vlfRSmBrP056mMGT2EBcd19O/uyt5d54gKPs/2vYeJiD7B8fORyvsxpUr1tjzRvyMN6nliZWKKR+NuPNajLZ06dsOzhgfNO3ageYsO9Gjjpfx7J16bA05vqt2JFB5xgdgiZ7r2bI997Cl2XTDj8YHP0b5pKwY8NwDLU3s4FXeP7qUW4i54eVWlZs0vWLnSnISEekrManTXIyVTA/fz44TxjBg9kUCXdjS1DmLfqUh8jx1g83FfogN3cS5I6YmbOSkxtRc9u7SkWgU3inTJnPX1w8m7AR1b1Cf53D4iXNvzVL8etGjWQTnvG+G7ZTexykttvTvy5CN9aaXEkye7V8XXJ5x8x/I0reNFwPEdHPcJxXenD5GFxedVEfG+R0io0Jln+veieese9OxcF3OzW0VEIcSdKrNJRFVh4bWOZFzYJW103eVoQwNGozSqbhypWFg8J5dCHal48cJ57XUh8RnaOnWEY2BkLHERAVfXX9svhAzj3F2F+VkE+180jOgL+fOISNXNyldlJ4RwUb1qqzTcoqPDScrKp6gwn+hgf+NcXZfJKL6aosshJNAw35i6v96mHI1btcbJzPBPlxQdZNjmE0iacYSlWn5MfKKhfhf9DeWTzMGVa8n0fpGxw9S5xMby3WfP4uJohZtXHR5qXg01LZmVrNRZLU95XWJWFhEXDrF06VKOnPclMTMP/dX3fZHIxEzts8xODCE0Otaw3liPZGO9AkPiDA0s5f3F3Oz9CSHKLlt7qpXPJ+pyojYXYmp8GFfiDRP8l6tck7xzlwjMMnSxsuJOEhtbgQbV3DG1cebR175m7CcDyNyznsMxBdSr5kDDds/wlRKfvvric17q3RYbSyXOFbf5TMyp1qQD5VNPs+OUr2GOQ0VBRjJpecZfjB1SbBy08hq1e/pqeS/2bEH0iV1cMGvCsOHDeOKhRliYSkdOiJK8vesoTafGpKSot+Wh/V+9i00deVjiDl7c3VE6ocZfFOqUFCEhIaxdu/a+WjZs2KDdpqMm+sqVK6fdelySeitPYmKidrueegtiSWpiUb21+XaoHXC1/2piot42+Of24B3JzyM5wxznCjbar4bbCQ3tOzNzSwozc0pc/MhTr5loCVGPpv0YMuILrAIW8fIHozgTma60/dSHKhj+4dTR2nq98rM+lc0zxjB7Zyyd+/WjdYMqWpjVau1kh6OVxfXJR6WtnZdvhYOzcUSfmRlWlkVKNdU6mVKxQS8+H6q0K7/8kB6NK6OmHh3tbLG2NNeShA7WduSkZpGZlInOoYLyWkPphfprF6etLa2wNFdeqWwyt7bAVGlr5uUUYWrngqWFslK9SGWjlJeXTclnoqgXq1ydHFGbxObmFtjqTG76lGQTWzdaPtSTRx8byJCRg+lSwxFTp2r0eKQ//fs/zrvfzuD9fmoixQQzVydsixMqynHNlfLt1P+bW2Gn/OE7WKqfj/K+HJwM+xQzt6fjK5/y3qPNOD7/Uz6csIKMrDzyTJxwdDCUZ6K81qIom1y5Li/+Rep5aWpquEhQVKQ+IEv78a7YVapNt779eObFDxn55QtUtLXCtXZr+j32CI88+ixDJk6nZ217sDDHxskBc+XYJraVee3bMQyolsxPYz7mp02XyMtTzndbF6ysDPHBQokDxee7o62NEiPUCzMm2CvxJDcti6gL6/jki4VY12pDn84tcLWzMMQwlfJDbnImBQ5uSmxUyzNBr5OTToh7yfgtWbaFHljAuG+Hs3TLNtZs3kfYlWu3+qrzxajzzxQvxYEyI8aHn0aM5qc/VrJh8yrGTJvDxegMkoMO8MV7TzN3yXLWb1zAlx8NYeLsJaxcu4qfR33F/COBFCqBaO/CH5g6ZwFrN61hzrQxrDkaYCjYKCPGVyl/jKH8TWr5s7mglK+u/2HoUH78YwXbNi5i6McfsvhwCLmJoWxev5I1GzaxYNoIFhwL0J50enr9PCb89DurN6zht19XcvHcTob98BPJSsMk7PAfTB03iaWbNrLo9+mMnLNBGwV5YdMUpUE0hdUbNzF3+lg+n7JGWW9Ozfo1uXB2DycCYsnXm+DiYrjd5tymqQxfcRx9biirp09i/tJNLF+2hr0nzuBz6ojWiN6zcz+BUQnsWz2LWYuWsWH5QsaN/o2AlGzObZjCy4NHK3XcxG8zJ/DZ+58z74/lbFi3nGHfTOR4VDr5iWFs3rBS22eh8v7mH/3zhOZCiLLBxMRU6bQpDTMbN7o/8xBnFk5h5JhRzF23n9QCQ8fXo+XDPFozhR+HDtGe3Dds0mocew2krZcJwUeW8e1Xo/ll0X5yy1XFrUod+r30MjEbvmPI2DGMmTKdg5filHag0nEzXjBRG4F2ns15491H8FvxM1+MMDxpc8SE2Zy6knGtTiob9z+X55OIp3d1zCO3Mm3SNDYcDabQpHRz9grxoKlatRp9+85lzpzOTJ7syW+/debkSRMWLOjG1KnuHDhgOMc++ABlm5qgUufDrqrdGqzOq6MmE++nRU0eqqMC1VGF7dq10xKK8+bN0+YLi4iIYOLEidpcsp07d2bVqlXs379fayuqcyeqCcjbGYmoMjMzp1y5JkocUkc2VjCuvUu2TjTwNufs/nNkKB9wlN8xjvkb7qBxr98CuwvH2Kr8rtbzis9WfBKq0a2JJ+lJYeTZ1+XND76iA5Ecv5yGa4WKBJ44TXxBPtH+ajlxkJNFSFAYVTv0pFUNF66ERmmJyluyLUfLJuYcW7uPeKU+aTGXORFnSf3a5dWwrLWz9cY29i0fXGBiQrlaVckLOEJIbDp58f5sO+pHofG4cf5HlLrFkJ+Xxrljfjg0bUWdpt7oz2/mXFiy8neWbljfpDkuhq+Yv2Rja49JehaZOr2WWDCxdMS7QSOaNG1CdTc7TCrVp1m5OMJirfBuWBdXG1vUG3z+4lP4/3RZhMelU7NFH7766C1yzx7H36YujRx92LbVjyxdLuEnjxPp1pT6lYzfVUL8S2xtHTE1baLErRbY2NzGSXULFo7uNGzalCaNGlDeXomD3g1wTvAj396T+g1qYqUzx9bm+r/3opwYQtIc6PLke7zbrT6n9p+kqGo9UOLZ6eBE8gsyOX/oPLYNm1PO1viiG6RHhZFTsRZd2zdHnxZPWmqJab6UwznXqIHu8jGColKVPmgQWw/73HTAjxDi7pTZB6tkxQaw+XwM/TvWYcOM37Du9S1D336cZhXz2HM6hq59u2AWso8f569XGh772KQ0Bjdt2cZB3yu06/4oeSeXsDO1DqPHfEHfDi2xuLiBnZcdaOCez9bjETz76Rhe6N4Kv2XTSW/6KqM/e5XalkEsPmVGZ/cwfvz1AM8O+Y7XH+9J00oZ/PbrCep1aoHfkXU41etFwaml7Ez2ZvTYL+nb0Vh+sDUOyUc4kVKb4WO+onvTmgQcO4h5nc60rV+DGtWr4FW1BhWKIvhjZw4dW2azaOYuHv58HG8+2YtOrRtgk3+FLWfCebhVDZb88DPm3b7i2/eeomeb6pycvwh93U5YRe3ivFlLRn7yNt0bObFu7WGa9uhGk2YtqKALZs2839l5+DLlmzSkkq01Uec2cTyvLr29clm68Cht3/yUQc/0om4VD6pXqcCZ0Bw+GvoZ9XJPM2XaFlo89QpdWnqTcGYNie6dcIvfx8msuowY9imdq8PieTvo+tUE3uzfgdRLm4iwa0Lr+tWpUa2K0kFR3p/SuF2yPYuejzTHzvjvKf6b1PNbHqxyb/yTD1axdKyodCqb4eVWnvJedWndsCZeNevSuGN/nn+4IzXcy2OldNoatW9LHeW8r16rNi079KD/Q42wMTXFqYInVat7UatBY3r06UlDdwccK9WibavaVPWqTYP6DWlYrzoOTuVorHT61PLUq9fKVxblvOrQoW1jvDy9qF27No1atKJZjYo4utWgeaO6uDvZaFfHHJXGZdtWda6VV78mblXq0bxZQ2rU9KZDr4fp8ZDyHsrZayNnhPgvUpNpNz5YpVWrVkr7rQunThXy6qujOXjQguef/w5Pzyc5f95FidnHycrSK/+HrVurU7PmbLp166G1/+rUqXPfLWosVL9f1Nua1ZihjjicMmWKNnLy8ccfp0+fPlrd1ZGKJ0+e5JdfftHmQ+zbt6+WhCxfvvx1D1ZR27VqbFTLLF7U+cSqVm2pHKsLFSt6anHzVu3fW8VVdcod37BomrfqrnTKlfbh1oX8vnIjl3MdqeGmxMK27ajhVRNvt1w2zZ3BsnWb2XE2i35vvUNnb2diL2xl8tgZrNt1VGlXduWZRzpRraonobsWM3/NFkJyHaju6U6r1p2p65bDqqXL2HIskoruFbDxaEC7+s6EBEdSs1lrPJ2sr9WnZTcaNWtFXsBWZsz7g72nQmj5xNs83roqBclhbN+ykd3bt2vtbJ9EU2p7uRGr/HHUa9QGJ2sTkiOCiTLx1OZZdEk/y+KFi9l4KQ2vSuVxrdmChuXTOX42iNyYAP5YuY4rLm34/PWH8apWD2+nJBYtms/qtZvJr9qDd1/ogX1RulKvKJo274hVZhixpp60ruOJSUE2gb5huDVtTr3qHsQeWc3S/aFUr+lJSlw8NZuq78tGzS9gYulMzWpOHFz5A0vXbOdUdAEtWzXHJicGvyRrHmpXHxvl3zUjNpDQ/Ap0b1aborwM/IMjqNFUOT+UzyflSihx5lVoVsWCgLBImjZuQtC2hfw0ZxGb91+m+dMv0ad1I5rUqcSpzXO1h8acSnTkxTcH0rSyveEfXTxw7scHq6jU0dYlY5ajo7OyrZMSIzvj4OCoxaSb1dEwEvrmD1bJT43EN8GcTu0aYatdxDXBtnw1vCzD+GPJfNau20qsZU06Nq1GUoQ/KXa1aVvPHbOsCOZ/P52Fq1ZzPtqKAW+8RJtGDWlQPo0/Fs9n1aqNZFbuwtsv98bFJJPLkTHUbtQWV1szUqOCCddVpFfXRkQfWcHSTUdBHeFs707HXi3IDr2ArlJrHmrVEKesCyxZsJC1F1LwUtqRrtWbKf1td3mwihBG6vl9tw9WMVFefM/S8osXL6Zr165aY0p9fHz79u1LNVGrWrWcnByt8XajuHPreXfhSWa99xgjvlrCkzPH0KOSA5mXD/LupK18NWkYFgd+4NtTNZg94inUMXf5SoPou1FvUOuJ77E/MJtjVZ5ixMttsaKA8+sns+Bkdd57zIGv/jjGz6OGU94yj98nfEZm+8F82LsuaUd/5/0dTkzsnsKHs7L4ZdFHVFZiZlbSQYa/9isDpv7Agdmv4vX4VJwPzuaw51OMLC5/wxTmHypPK/sgLlZ7gpGvtMM8N535kz4nve2nPO2VxO9z1pNkZ4tjgh/HUjsy9SNHhv6czszFH+OpxmZF/MXNvDvvED9/8CSjvlrEYzPG0NvdUfmw4vntvffIeXImraLHsNnuLUY/1Vh9Ae++O48nfx5Fj4rKfhSRl5XGwYVDmHXEjTHTvyR5/WB+zhzAgjfbcmTdTNYfuox17VY888Rz1Cq4xHsTN/D5hOFU8V9Cr8820uXh1jgp9TGxsKJZv4E4nxrOTxmPs+SjXkrwPsp7E9bx2cQRNFE+9C3zJuPn9TTPVk9h/ux1JCr/lo6JfhxJas/8VZ/iaXhb4j+o+Py+dOnS1U7epk2bGKROtCXu2MqVK7XOv/pEUPUBAh06dNAasHfrr+KvEOLBkJWVpc0VqM5FFx4erjUk1eSZSk12qR3H4v+r1Abm3LmzSU01POija9duSluvkxa/yxL1Palu7BirneXizraaBFRHI9atW1dLJKpTtKjtWjU5cDPFzem/+iz+X1xVG/PqbYZqEYV64/Q7JqaYquOylQ6+oWyl0W8cYadS66mtLypEV3yvrzoy20zZX/nxunJMlHJMlP2VV+uMT2tVR3AXFqnv11TZV1/iONfXRxtxaBxpaKoc01Rbea0cjbJOrU+RVo7hdWq91Gqp5atzKOq1Oir7mSp1U/6fGLiVkTP28PmIMVRzVfoMSj2vjkAvWb5SnrlxtLmhnmqSVvn3UutevF6d5kh7n8p7Mr5vrT7qv2mJ91Xs6mej1kf9HNXPRVlR/Nlp9VWqW1yf6z4fdZvx2FfrU3TtMzJRyjMzHu9Px7m+GuIBkp2drd3B5ezsrF24WL16NQMHDtT+3f9uauxSR1o/8cQTWmyPiYmhZcuWtzz27cQsNQaoCcmbxj3l9erfu6nxfCmmlqu+TqOcL+bKosYP9Xw3U35W9tC2Gw+vvN5cOWfV1cb12krD61Tqea3FLW0fwzmpHrPIeF6pd6KorzVVp0TQjmO4M6VkvFGLUuflVs9tIYSBGjPy8/M5ceIEDRs2JCUlRRsUOGDAAOMet1b2zyR7R2q4ZBEVmqwEDUi8EkaiOolPMSXoqI1EdbFQFi12KJHEzcOC6NNnSclWglxhLtFRmbh6uGFpbE9eDYZqxCr+xfh/MzdPHDPOERiRqwS6QlKCLpPlUgPX4guLSvkVlPJjTpUsPwPXKu64e9iTFhpJdr7S8MmMI0j5GV0ul/ZuI6JcB0aPGka/NrUxUQKfWYXKOGSeIyg8RztOWkIK+VowVNg6U7tCND6nolGbwvnJ8dqVmcpuhqTBjd8HSrOIxJgk8nRFWNk50/Hhl3HITyfROMejytyskIb9PmPU8C+pmnCBVZvOkFukNBTzlS8QJTibVahGHTdX+rz0OUOHDeGDQW/Qo76r8dUmho9H/Y9y8KuHVyuivD/f/dsIdWmvvb/+7eoqf3jG9yGEEEKI+05xgq1kok3tSH7wwccMGzZSWzp06Kx8zd/Q4CgDituFN1JH4qjr76bDr34Opf0sSiaY1I61Vk+l4aom7a6VrXSEjfVXl6vr1eRb8foSnfrryilO7Cn/ufp6ZV1xx/r641xfH3W/4tdoCURt5bVytEXdX1ltKMewi1qv4vLVzr5hX2W7elxj8k/Zcq18476akuVf3fda+ddNY6FQ319x3Yrft/p+bnxfxa5+Nmp91M3Kf0p+dlp9S9TnunJKHPtqfUp8RsUJRNWfjiPEfUD9W77ZeXHblNcWJ9xLUsssPg+KE4GG8734XFJfV3xOGBOI2uoSse3qvsr5o7z2ajWN8UT9tfi8Un83U88tbfO1uFIy3qhlFMchIUTpld2zqfjL27YyvZ9rx95Z47U5uRZuPUJqgfFqiRKArjZ0jLSh2uY2NOr7Gh1sLjDlB+V1I0eyJ86J/v1bYW2mBLAbGiQlflN+N8HOqz2v9a7Asu+HMmbsKL5ff5mWr71ELUfj/mbWNOw7kA62Jcq/4sQjj3WkWe8+uF3ZyJSJYxg9ZxXnriilm5pTs14VcnzXMXXSdHafi9SuYNp5tdOOs3zqMO04UxZsJSG30NCQsqvCo6++SPi6nxg6djRjf1yEdfuH6V3PUQugJd+3ubkabFPY/sv3jBo9hrHK/uN/W0et3t1p6WJn3B+yYk4yduhYfvhlEZeToHodD5zcPGnulMr8ufO5WODN890dWTzxU0N9ft9CfI7O8Pqrf0k3fH7Kv5P2/up6keenvL/J09lxJlxtmRr3EEIIIYQQ/0V25b21J0K72v05qSuEEEKI+0+ZvZ1Zl5dFZGI61Su7U6jP5UqQH/F5ZtiUq4xNUR7uVTwoTIslLM0Kby8Xbc6rokIdCdFBWJSrhYutBbmpV/ALjdWSYK5edfFysUSvlBuRmKaU66ENvU6LCyff3gM3B2t0WUkEJ5lq5ZkU5BIWEkRatg5b5Zh1vNy08hOV8s1dlfLtbl4+FJJ6JYzQ2DRMrCw49sdUirp+wxudqxCplpdnSqUKzqSkm+NdpyJmNxynViV7IhJSr9XvShCh8TmYWtpQvaY3jtZmZCVHkWTiZjiePp/IiARcq1ciJzyUyGTDU6JL7p+ZFEm0zpVazgUE+YaSgwmWNq7U9PbC2kytb7hyjGwqV69JOetCQoMDyMhT59o2vO8s5fVRBS7UUepWqNQ3MjZZ+/wtiwrJTo4h06I85W0gXHkfqbkmVHJzJSVN+RzrVuLPswKJ/4ri81tuZ7435HZmIcSd+qvbmQV3dDvz7ZC4KsSDrSzdznw7/vJ2ZiFEmVaa25nLbBKxbCoiOTyEmDwLatXwIOX8GkZO385r42fSzlOCs/hvKT6/JYl4b9yYRGzTpk2pG61qw/FmDwAQQjwY8vLyOH36tCQRb+HvSiKqT0Mt1W2EQoj7TvH5fT8lEdXYrt7Se7ckiSjEg6v4/JYk4n2viMzw00z/6ReCEvSYFVai19uv8ljbelj//d8tQtxXis9vSSLeGzcmEdX4W5oEoPrvoyYYpOEoxINLHTWjPpFYkog3d2MSUY2xpU0GqA91KU2nXghx/1ITeZcvX75vkohqYqA0FyzUtqBa7j9RfyHEP0s9v9Wp/tR2oCQRywC9Xqe8N8PP6gSyci1a/BcVn9+SRLw35HZmIcSdktuZ/5qMRBRC3K7i81tGIgohyoLSjESUxxT9C0o+kUqakEIIIYQQ/x2SQBTiwXM/ntcSa4QQt1Ka+PC3JhHVzGZubm6pFjVDerP1ssgiS9lf1Ku2QgghhBBCCCGEuP/9rUlEdei2OidXaZZ7UYYssshyfy5yhfTBUliQQ2h4NNm6QuOa+1dBRhwhMcnolZ8To4OJT89FS2kXZHDZ5xKXo5OJiyyxXgghhBBCCCH+4/7WJKI6UaOaBCzNorrZellkkaXsL6Jsyk4IYcWWrSRl5hvXGOTF+TF50jQuJWYSe3Eb6475G7dAUaGO43tXcjIszbjmzhWkxbBuwXT2+iYY1xgU5adxZN1C/tjnZ1zz/8WcWMk3MzaRmpfJimmfMHtXADqyOb36J6ZOX8yhU+dZ8r2yfqe6Xggh/mZFRegL/3wBRpeZwNZNmwlJzlbiqF7Z5/rLGoXKur9jVH9uagxrVizTjiuEEDcqKipEp1fjj3GFSvlFnZuxtHJSw9myZTuJmdICE+J+JHMiCiGEuCM5yeGs3baVjDx1HN/1tMaj0qCMurSLpYeDjGtBX5DL8Z0LOR6aalxz53QZcaxZ9SvT52wlucShk0LPsHTuRBYcCTOuuQ1KQ7dAX4iphS3PfDSZN7rVxjw3lRMHQmj60ke88shDvPKZsr67st74EiGE+LtkRF9k5OQxBMVlGdcYqEnEbZu3EJ6WQ8j+Xxm2YCuFxl57ob6A9XOH8PvhSO33e6kgK4mzp44Sn5Uno7GFEH+SdmkTr7/6AvP2XkZvDBJZCcHM+vUHQhLzDCvuUnbyZTZv3EJCliQRhbgfSRJRCCHEXSvU5XFsw8+MHTee3zed5nZu/i3KT+XIugVMGjuWCT+vJkLpHBfq8rm4Zyljx47j53kbic0t0kYerl+/iX07VzJh4iL8kzKxqNOeqnH7OReVayirMB/fS2dJyHfBxtwwMjIvJYp1C35QylLKn7+Z+AxDYzYr/jLLZ49l7JSf2ecbi+FaeSEhl32ITM7G79Bmtpy5yPZlC9h2MgR/dX1KHiZKhz0v5jy//Pid9j7nbTxFVloIS2dOU44xntkL9pAqvWwhRCnodblERIaTb+yNF+p16HS660Ye5qbFEnSlxGjuokKSrwQSm67GuCLlNXrtNTp9oRaJ1ZGLV1+uxLGrIx3Vn9X91PKN+2rr1J+V1+h0euw9GvLtuCm08XTWHgJoWK+W/feMfBRClC367GSCgmNZtfAXzsVmanFEbRPGxkSQZ4xjV+OGElOK44ZhRHWh9tyD4vXF+12NR0Z/Xn99nFLXaSMijce4YaC2EOJvIknE25QUG0lyVv51gU0IIf7bdJxZMYX5W6/Qpm8vKlsm4+///25X1hNyfC1r98TQqvvDNPNyVr6IcjmxcjpLTiTTtU9PHOJOMXv5YdKUDvOaWRNYE1RI375t8XCxxdLGnfbtqnJm13GylP6wLi0MH78cHnq4JVZmaqM2jgUTR3A82Z0eD/egSsZhps/fRlZOMsu/G8ep9Gr06FKfrMgQ0tMLjCMkF3EsNA3PmnWo7+lJ41YtqVfZnjPa+lQyIk8yZfwvZLs1pXfPDthmZ5EYHYV1reb06dmVxAvLWHYozJiUFEKI0slJCuO30e/xyptvM/ynFVzJLDBuubWC9FCWTB7CO6+/wcCPJnAmOpbz66eydF+gmh8kLymEqXNmExiXRW70SSZ+/RlvvPEWH3w8kUtpuYbto79m4g+Tefe9Cew4so8x308gKD6b3ORIVkwfzqtvvsFrH3zKD+tPkV8G5r4VQvydTKjYvDtP1M5i8fytpOddHxPy0q6w5qdRDHzrDV7/4GO+X3OMPCVuRB7+nU+Gj+DHcYMZ+P57TP59CxuXTOedt17nzTdGciYxU3t9QUYi25bNUNa/yXvvjuRkbBp5qdFMHzeMcT98xzvvjGWvbyQ+e5fwzeD3ePOVd/hhudo2lN66EH+3MptEzE8OY8ns77SRJury/ezFBMfn/GWSz3Dl49Z7FOrzObB7NT4xGcY1BvrcdNbNGc+SI6HSSRRCiGLZMezbH06Ll96hR/OW9OrZnca1nYwbb0HpzZoWmZOccImguAI69ulCZZMUtm85QFB4JHu3bedSdAC+546RmV2IlXMD+j/ck6ZNvHE0Vb6yTC1p3LkLOXHHiUrJIfrUVsLc2tHIzVIrPi/8KPuCbHn61adp26wtTzzTl8y92zl54SQnLjvw3KAXaNuqC/16tsXZ0UJ7jcbEFMdKNfAsXx6veg3wrGCvjb6hSEfg8X3El3+IQU92p1XrzjzzVEc8a7WhhkUM27ZvJ9Q/gkvnQjCMjRRCiNLI4cTyaZzO68QPs3/mk8cbkZmQY9x2K4WEn93J8SgPRvw4h+++fJnqrlZkJkUTm25IQBYpbdzoK1fI1xeix5knPhvBzz/9QA+vCBatvUCusj3s1FHiKnZm5syvae1hbxgZmZfO3vlj2Rlbl6mz5/DTkJeI2TSX3T7xcmFdiP84U3Mn+g38APuIDaw4HnZtDml9DocXj2NzuBcTf57DjOFvkrjtdzafiSEnPY6zZ4Jo+uJwpnz6FIfGf8wxqw789MsMulWLYLU2RzXERQRgWqsvM2fN4rk2OSyev4+0vAJizhwiyrEVP/08hPoFF5ix5BxPfjKBmVPeInHPYs7F//+LLkKI0im7ScSUSDYdDKRW+648/HBvvK2imDzoc7YGxBn3+LPwA/MZ+dsurp9t5hp9biaHts7nXOT1SUSV+lAAvdy+IYQQ1+TlkZxpRfmKVlrCTZ2nq6jIMFmhhbkl+swcrjXllJ+zTbGytMar3VN8/c375Jz6hZc+moBfVDq5OjtaPNRdief9eW7QV4z8+CUq2Jli4mSHk+X1sxJae9SjQyULTl04zV5/Ux7p0RIb44O+C/N15JiVx8HB8PVmZmWJtT6DrMRMEswq4eJkWK/XKzW7nZiu15OdlEaurTPmZupBTJQvzlRWfzeKhYdS6NKvL01rV76tooQQ4v/KSODo2XxaP9mVCpZWVPCqj3d1R+PGWzGlnGdDnAr2M+n7nwnOA3sLQ1z+s0Lylf3Pr5nBOx98yOKNl0iITlDWgbl7ffq0rYOlhTmmxS/OSubMpSLaPtEFN0tLnD1r09Y9n0uBSUoMNe4jhPjPMi1fh1df6srReb8pfehsQ1jISeX0+QJaPNoVd2tLnNyr076KHl//OKWtaEL5pl1oU9UJl/I1qNm5I60aeCntQ0ca1q9DttJ2VJOIFeu2pWfL2sp6S2q3bIIu8BJp6nOe3OrQu209rJQ4lRJ0nIOnTvHjiM95b+h0AlPiib9hXlkhxL1XZpOIKjPb8jRs1oxmzVrx6Guf8vaz5Zg7fxtJeXrCTm9nqjpKccwMdl+MIj78DEuWrGDFonl8/+smriRfYe+yuUxU58yauISglOufPqfOrxBxYjVTJ49l0pyNxBjn1BJCCGFkX45GNXScPHiJrIJ8Qi8d5+zlRG2TR4PWFB0/wN7Lyajz3kSd20Bwqjcd6lciOSFCaXQ24f1PvqJJdjAnUm1p09iG6MvZeDVuRFUPN6yV7q/Szrw5Uzta92zKnrkbiXdyp4GnvXGD0gmu3ADvouNs33OZHH0uwUeOEl+5OfUb16SK3p9jZ6PJz4xn/+HjJN/wdOmbMjPHs351Mo9txO9KGgX5aQQeP4fv5XC8u/ahZTVH4sKijDsLIUQpmZhiaWqCiRI3VbqCPHKyDRe3beyc0EUlkGy8alFYmEhanCmVyrniXKM9I2cs5pXmefwwfLzxKfYmpGdkaJ16Xb5aTjrkJrBsyiROmbbjp1k/8+7jLTExMQZbS3Msi38uZmaGrWU2Wek52sWSIr2O3AJzzG+4uCOE+K8yoVbLJ3mkQQa/L99GujrVgakpNkrcyFTnvFYDUGEheUrcsLQyV+KN8gorC8zUVyq/mNvYYKHeaaKwsDTcVaLKycsjX2eIg/qcfEwsrTFTd7MwV/Y3xCkzayeadHqaSTN/5ddff+ePJYt4tJGztk0I8fcp00nE61lRq1UzLC4d5HJsHpmZWdTv1o8Odc1Y8PsC0q3cadnYG++GzejZqTH2eZnkOVWic59+1DQ/ya8bTlwbgq2Iu7iV76ZvwbXZQ3Spb0Wwv9oYE0IIYWZlRw1PdyysXen15hvYnFnIO++8z/JLOXRr2wgbc1PK1enBN+80Y/uEDxg0aBDDF4TQ96OPqONcSJLffsZ/+g5vfvo9+kZ96da4Ft0HfoN36ho+HPQGX0+ZRUiW0km1sKGal4dWnsrEwppq7m5YKK1IG7emPN7JnXpNOuFsaYq1SxWqVXDEyrU2H3/zDok7xvPOoLeZfRLe+OxVqlWuy6C3O3P8p894c+gPxDs0opl3Ja0RW969Bq62FuoBcKvqhauNoXOsrbdTR06+yCcv1ue38Z/z1nufsSnMiief7MDheeP4aPwq7Go30+ZrvFXOUwghbptdOdp0rszx1Ss4evY0u3Zu5VCQ4UK3e8tu1MsN4Lfluzh//jzbVywm0rUTvRs7E+W7h9Vbz2FVsSl1nU2IyzbBq14zIvZsZpdSzu5dSjmBajmmODrqMCvKJvDMQXbu9+EvH5RiW4nufZsTuG4Zu86f45BSzvG8inRs6q4lA4QQAisn+irtwarh+9nvp/SobcrTvV9LIrcsZeeZMxzes5WDmeVp37wK2k0dtyEn+CAbNu/gzNkjLN92Ce9e3ahkZ9yoUgJQpcad8UzYy5qte7nke5Jt20+TWfwAKSHE38ZEaTj8RcvhzixevJiuXbtiaWmJj48P7du3136+W2rVcnJysLW1Na65JvPyQd6ZtJWvJw2jodJ509ZFbOObTzbxxpwZ1NYHs27jRi6HhLJtRwajt8yg8tEZfHvam99GP429EmAS/fbyx7aTxChB52haJxYteIUlI16l6lM/4um7kK3pLRn+0cNY5acxV+k85nQczIe96mqdTiFE6RSf35cuXcLLy0u7Grlp0yYt4STu3MqVK2nVqhUODg5a57JDhw5YWVkZt965v4q/KnV0oamZmTpekEL1yXnqN4mpmdI9LTKuVxmeAGqYitYEcwtzw3rtSXqGp+qZKK8x1y4tQ6G+AL2x7Wdmrt5OZ1LiOAYlf1enmSgyUY6p7Kc9nU95rZpgNOynHFc9sIkp5uZ/ro+pqal2S425uVJj5bhFJuaYmZpoTzdVr6CrZar1KV5vePqf4Yq4iam6rsj4u1KG0iLWq2UZjy1EWZGVlcXx48dp0aIF4eHhREdH07dvX+NWsWHDBurWrUv58uU5d+6c1q61trY2br1zfxVXc1Oj2Xr4JJ0e6oeLVTb7VyzgcFgWFRu2w8Mki4adu1PN2Zr0K76sXbaGiEwwd63NM8/1p4arDYmBB1m8/ACZJpbUbt2L/t2aouzN/uXzORyulNOgHZUdCmnduhOWiWeZv3oP2dbV6FjHgSSr2vRq7sKBfcep07E71Z1trtanY+d+lLc1we/ASlYfuoylkxu9Hn+BplUcJIkoxA2ys7MJCgrC2dkZR0dHVq9ezcCBAzFT2i1/t0Klbztv3jyeeOIJLbbHxMTQsmXLUh1bbXMVFBTcNO5lR51j48U8Hu7dGnt1ZKAS32LObWOFTyEvPt5bixtBh9ewYn8A5vbl6P7YC9rdG8nBB9kVbc/TnZtRmJvC7j2HqdamK7XL2xHnf5Qz2Z50qF7AgYNn0KfEcSkqlQrN+zCwV3NM81Ov7W+cuzrBfy/LNx8iJceEOp2f5qlOtbU2nBDir6kxIz8/nxMnTtCwYUNSUlK4cOECAwYMMO5xaw9QElFH4NoZjNlhx6hh9Zn51Uq8HulLW+dEpkw5xLt/TMHzahJxAKGb5/LTumj6vNgXh4BN/HjQgxmzX+APNYn4+FRcjvzKQbcBjHy1HeZ56fw65kNyH/pGkohC3CPF57ckEe+NfzqJKIQo+ySJ+Nf+ySSiEKLs+y8lEYUQZVtpkohle9iE0hhTg5tel0/IqQ1MXBdC/1f74xwfTViuDd16dsXZLJfEuFRtdzt7R3RpmeTk5RJ/OQDz2q3p3qI2KdExZGaVmPPQ3BzP2m5EHT/ClbRsciLPsOdUkHGjEEIIIYQQQgghhBD/LWU2iWhqZUfFoiAmD/6QQYPe4Zd1oTz/5Tc829YDh5od6V0nljGffMTK0ym06NwYe3NTXBt2pl7aDr6duJwKbbthd3k5H3/1PTG2tahfrzLqLFhu7tVxsLGlXu+X6FczjnGD3+OLRSfxbtoeV9u7H1UphBBCCCGEEEIIIURZVWZvZ1YZ5rYqrr46t5XhiU8qda4snTpJlzZfVpHyP8NcXdrcXcZ91Z/V12tzYxWCuYWZNjcWJubKOhOlDL1ShrJBnVPLVHktZtrcWEKI0is+v+V25ntDbmcWQtwpuZ35r8ntzEKIOyG3Mwshyor/5JyIQoiyrfj8liTivVEyiah+AbRu3Vr7TEtD/XJRL7IIIR5cJ0+epGnTppJEvIkbk4jt2rUrdbs2Ly9POuRCPKDU8/t+SiI2a9asVMdWy9TpdKWKe0KI+1Px+a22AyWJKIQoEySJeG+VTCKq8bdTp07GLUIIcXPqKJPDhw9LEvEWbkwiqhdn1DtZSkMd1WNhYWH8TQjxIFFjanBw8H2TRGzcuHGpLiirbXX1PZU27gkh7j/FaUBJIgohyozi81uSiPfGjUnEzp07G7cIIcTNqZ3DQ4cOSRLxFuR2ZiHEnZDbmYUQZYUaMx7IpzPfw/ymEEIIIYQQQgghhBDiLv2tIxHVqx+lnU9LvU9bhlAL8WBSw48aK2QkYunJSEQhxJ2SkYh/TUYiCiHuhIxEFEKUFaUZifi3385cmnlf1Krl5uZiY2NjXCOEeFAUn99yO/O9IUlEIcSdkiTiX7svkojKa/TKol6UL82jsoqUzoLyRXvn86Pdo+ML8V8gSUQjJWYUKovJPY4bRYV6ikxMMb3TOCaE+JP7+nZmtbFSmuVelCGLLLLcn4sQQgghlM56QS5hUVHk6wqNawzyki4zddJkTkSmostKxM/notbIv3DhEmGxqehvYyhAkV7HgeXTmL7Zh3zjutuVEXOJUd8M5nhECjLJkBCimD47uUQ8uoBfaDQFxoCUlRDMmCGfczAk8Z7FDfUizPZfv2TqujPkGdcJIf4d9/WciEIIIYQQQjzoMqIvMGryaIITso1rDIp0+URFRJKt05NwZg3vfj6KpevWsX79Zk5ciiD/+pzjLRSRGR9OVFKW8ffbZ2HnSrMWLanoYHXLEUVZkWdYueMU2UonXwjx35B6aSPvfz6CxWvWKvFoJb98N4Hvpm4grkCPubUDjZu1oJLDvb0N2sO7BfWqlOfvH9cphPgrkkQUQgghhBDiX1ao16l3AWqSo/y00T0BEUnoDau025Fd6/dk8Lff8u23X/FMj8ZYFuYSExdLypUQw/7hieiMu+emxeB76QIX/MPI0hlK0eVnEBl9bX+/wBjyjMcsOdIxMCZVG0FkYVeO5u07U9nBmry0K0QlpBB5WanbJV+upGRTkJ/JpYObmLtkPaf8lOMUXK2tEOJBpgQI59oP8enQYUo8GsWYYe9iFr6O37f7YGrrSsuOD1HVxZbC7GSCw+OIjgjC1y+aXCXIZSeGcVGJMz6+oUrMMAagvHT8fS9p8cc3NJ4CZb8CJYZdvKjEsIs+xCRn41W/NS1rV0R9WoI2EtLXEK/8olO0kYqF+gJi42JIiwvVyi8uRwhxb5mNVBh/LjX1JK5evbo290JCQgJVqlQp9RwQ6oNVbjqvohIQ9IWFWsDQFmXVvZofQZtvAVO1rSaE+Bup53d8fDxOTk7a7c2BgYE0b97cuFXcCV9fXypXroyVlZUWf6tWrWrcIoQQN6e2nyIiIqhUqRJpaWlkZGTg7e1t3CoCAgK0+RDVOQxjY2O1dm1pH/Z3q3Ztbmo0246cokPnPhSF72fSyCmcSUwnPMCPE5cSeKh/H8pn+LHFV8/DPZphrfzbqd+bGZHnGP3NW5wKzybI/yh/LNpH+aatqWyWwoKx37Dm3GXioiM4e/wclkqHv4mtP9+8/ymXErK57O/PzjXryavZnOrWGaz4fiyrTgcRHerDlr3HcaneGNfsAL75bip1mnUj9ehPfDljNYkJcRzbv5lV++NpWteR4xuWsuNcDJYO5ahbrxbO1nc/H7oQZZk6f2BycrI2h6DaHvPz86NZs2alftDo7VDj+dmzZ6lXr55WDzWee3h4lOrYWmJO6W/fLO7lRJ9n48VcHu7dGgelv29tXwHXAl8WbomkeV1nJk6bSJWGXbEJ3cjrX00jIjWN5ARTytnH8NvshZwOCsXvwD6CTKvSwNOCfb9PZdaOc8SG+3L0dBL1qxcyf+p0tlyMJNT/AtGZjoTun8CerMa0qwxrfhjH8pN+RIf4sn3XAey9GuGmj2LskDc4EJRFSMBRls/fgUOjVtR2szfWWghRTD2/1XlP1fmw3dzctGcVxMXFaTHk/ymzIxGzI0/z+VvP8+JrA7UHMbz16Tcs3+ZH5g1zyZSkXs0Ij0vjr+/8yObA/JH8tivA+LsQQgghhBD/gMI0Dq1Zg13Hj5gwbCifvtqPquWNtwQW6gk/upyP33iDQe9/zdJDIRQoq7OtK/DQgLf5dsgonm6Uz/ajwYT77ORsUnW+/HYCQz5+kzZ13a9eHM+yqkCXAW/x7bBvePPRKhxcvocLB9ayPcKVz4aM5tuhwxnU3II1i3aSnG94uILS19CSCaaV6vPGe4MZ/eV7OCZdIMrEnUcGPEy9tg/zyXvPUM1ZHoYoxH+SEl/sPSrilp+NOvBZXzyyWvmPKe48+voHfPBaG878sYxI8wY89fgAunaqwsVd67l4YjsbT+n56KuRjBg+im8/6MGl1YtJrtyPyWNGMHrEUF7s1RCLQh06JQ5dOb2ODQHWvD94NMOHjeK9LhVYu2QnCXlKfDN3pvOjAxn+7Xhe7WDBTiUe5hpqKIS4R8psErGwIIdEs5p89f0Mfv31F0a93Y3Ts4Yz/0igtl19Cp3a6Clu+BQVFRK8bwHf/LKDdGWbskZpixm26/WF2khGgyLSYsOISDVMPX2tnGv7qGUVl60+ecqwzvAUqkKlgaetL7xWohBCCCGEEP9XRgqXQsyo08EbKxMTLGxdcXKwNGwzNaNqu2eYNnsOv84YzzPtq2u39VWqXA1vdydMTW2oUbkiyVHxRAdEUFCrNZWczDGxsKdihWtPhK7kUVXZ31l7cmr5apUpig0nPiwJq5qtcVf3N7XA3duDgpgQcks8iUUd0VSjdiPK2Zlja1ced6U+cdnyiAMhhELpB2ddSaPIrRr2NzyA3rZ6LWq42kBeDqFRccRe8WHzhvUcDsiibtOG5AYHke7ZnOqVrJS9zXGxNeOiXz7V2jbAUQl/ZubWODnbG+ZlVbrYmVcSMavWCs9yFmBiRsValSmMDiErFyqq8c3DVdnXihqe7qRGJ0oSUYh7rMwmEQ2UxpWFhbLY4Fm/J++/34mt89cSkpbPmY0/8/7AQbz6wrtMWH6IcN+9zPt9KXtXzuTrsfOVABbAgu+/5c3XBzHo5U/ZFhhnLLOEwlT2LpjMu68q5bz7DetOhZGbk86BJT/y9ntvMuiddxg6ZxMZuTqSA/cycdJI5kwbyaC3BvLJ+D+IV9YLIYQQQghxW6xsqVK+iJiQBO3Jy5lJkUTFxhs3KpQOs4Wl2va1wNzM9E8PO1FvcVY5VHTVkoMZOXqKclPwDwnX1qviYsKISs5WOuMFxIXGYal0uitWdSY76DRxaUrbtXi9e1WsjfnLYsXlq9Sf1Evm6q2ORfm6a3M3CiH+W4r0JEWfYOWOENr2bI/LjTMaFIcNS2uqe9jj3aAPg4cMY+iQr3jj8W541axIXsgZYlJ0SkzRk5qei6d7OgHHgshRAmGhPo+MjGzDgB6lLLtK5ckPvbZ/fHAUZpW8sFVzkCWo8co43kcIcQ+V8SRiSaa41q1NpQQ/4lMLqejdlmEzZjF9xNP4bVtPVsU2vPbK03Qa8A7jv3mFynYutH/qDWbMmsXnT5Zj0dLDZBhLKpYZfZKNW6J4Y9Jsfhr7OW2qWBO8byFzdyXx8cSfmDnlWypfXs+vW3zIzsni0PGTuHR6mx8nfYPlxY2sPxn1f26dFkIIIYQQwsQwd5l1Obo83YXgNdMZNW4MP63cTUJu8S3CJiT57Wba+PGMGzeO3zceIj1faQGXSOwpvWZMTM3wbNWF2iYn+G7sCMbOmMfZKJ3yasN+ltkRrP1tOmPGjmTWkQwee6kvTTs/Qb9q8Uz/bjRjlfXLLxYq63vhYqnWy1i+yfVJS3Uko/q7Y7VGeMQf5bufVxCiJieFEA8+JdakBx9gxqQJjBszmklT1+Dc6zVe7lJV6ZWXjBvKz8UxysqVni8NxPLsXEZMHKfEuIlsPRFBxWYP80itNKVvPUKJbSP4eYM/HZ8fiMvlNYycOJ5RYyew9Xg4RUoMUst2v27/kSw4mUt/JY5VsFbjX4kopR3b+LMQ4p4psw9WyU+JYNPhYDr27IybjWF7/pWL7DyUQZdnO6MLuciS339k6fp9nD6ZTaeBj+AcfZK9seUZ0KMRJgXZ+Oxdz7RZc9m7/xRh8RV57Ln2OFBAwMFNxJTrQNe6lQk8uZq1B/xwUd6Xt3t5LmzZSFKdvjzdoRY2VjZYZl7i0PlCmtWyJCjbgUGP9cLJxo6soOMEWXjToaGHdquJEOLP5MEq9448WEUIcafkwSp/7Z98sIr6FORmjVtQzd2Ncp51aNmwFpWr1qJx+z688Ehnanm64VCuKq2aN6F2zZrUqlWLmtWq4elZlQb1GuNe3hkzU1PKVfWmRWPltRWr0LRlC7w8vfBu1IrnB/SjRf3qWGSFczw4n+effYp69RrSuVd/Wtcsh7mNE/VbtcbLvTI1a9Wnc8/+NKvqrNTL1VivCji716F+rZo421mqFca7WWPqVXPHzrEiLZrXoZpnNap6lMfS7AEaoyDEHfgvPVjF0tmTli2UeFSjFrVq16N9t770bO2NhakJFko8adq4OdU93LBV4lbzJvXxdHXQRi/Zlq9G85YN8XSvRr36DWnSuA7Ojmr8aUMNpR1bvUY9WrRuSs0adZU+QX3c3TyV/Rpp+9Wp14JGtarh4uyi7N/26v6devSjlRLHLGwcqVunIZXdlJhmZoJj5Zo0b1QLN0ebB2nklBD3xH/ywSo3KirM4NS2o+i9W+EYvY0R4zfT+rUR/DTuc1rUdDbspF6JUD4sCvM4seoXFpw0Z+jUmYx8+xGlQWRs0BXlk5Giw9bKFivnKnw07Q9GvtiIDb9MYe5WX0zM88lKy1KCs7Yz+QUmmFtZKgFaCaYWhgCrXmyxMLOgQJ1VVgghhBBCiL9gZmFNNa+qWgLOxESdk7AxLZo3p2FVN6p4eWFnboaFQwUaN21GixYttKVOtUpYWlnj4eGptDuVxqfSALUuV5lqlZy00ToOFbxo2qwFzetWp5xHDTzL2WlNYbX8SsbyG3i6GCqgsLBXym/STLuYV8PNTltnqFc1LM1NsXZ2x6u8Yb2yAY9qXrhYmhvKq9WY5g1rYmdRusEDQoiywdyuHA0bF8ejZnhXrYC5cdSfqbkVVb1qYKPEA3M7V2orcexaGtIEF8/62uuaNWlEBXvDFrW8Blp5zalVyVFbZ1+xRon9LHBx96ayi+FBU2q5N+6vHtejclWsjBWxcnGnhhLjJCoJcW+V7SRibhKBPpe4cO4UG3+fyaIwVz54tzf2prZY2ReQeiWa/Xv34huUpO3uXLE6RZGBnAyIVBo8eZiZZBF18RQ795wkM6uA7MRQfI4cwT/Pm5ZNK5ETf5Ll6w6TY+1FKy9nUrLyqd+5C5bn1rD56DFOHdvD9gspNHuoOUpcE0IIIYQQ4r5lZmmPp0clzGVYjhBCCCHuQpltQli6VqNfh5pc2rud9Rt3EGPRlHHjBtPM0w6H6p344JUW+B/ZQ3K59gwZ/zo1Ha1xadiVl9uYcvZYAN79BtGztp5dBy9Rs+/rvPpsB7JDz7NxfzAPDRxEVy87irAjI+go6zfvIb9ab957tiPVWjzOF188Q+jhXWw/6EvLZ77g6XZVsatUlz4dWmNvqXykJmbU7diNrg08kNyiEEIIIYT495lQvmZnvvrqE6o43/DEFCGEEEKI22BSpN4MfY8sXryYrl27YmlpiY+PD+3bt9d+vltq1XJycrS5aIQQD5bi8/vSpUt4eXmhzom4adMmBg0aZNxD3ImVK1fSqlUrHBwctPjbuXNn4xYhhLg5dS6cQ4cO0bRpU8LDw7V5cfr27WvcKjZs2EDdunW1eRHPnTuntWvVuc7ulrRrhXiwZWdnExQUhLOzM46OjqxevZqBAweW+hkBt0Odu3DevHk88cQTZGVlERMTQ8uWLUt1bPU7Qp1fsTRxTwhxf1JjRn5+PidOnKBhw4akpKRozzgZMGCAcY9bkySiEOJfIUnEe0uSiEKIOyVJxL92YxKxdevWpX6witohv9mDVYQQZZ8aU4ODg++bJGLjxo219vXdUtvq6nsqbdwTQtx/itOAJ0+elCSiEKJsKD6/JYl4b0gSUQhxpySJ+NduTCK2a9eu1O3avLw87amtpenYCyHuT+r5fT+NRFSfDF3akYjqE+XVmCWEeLCoMUM9x+9mJKJMqyyEEEIIIcT/oSb+1A55aRa1DHVUz822ySKLLGV7ud/crI53upiamt50vSyyyFL2l7v1t45EbNu2balu2Si+YivzMAjx4FHPb3UeBhmJeG+UHIl4/vx57eqzEEL8FfUK9MWLF2nevLmMRLwJmRNRCHEnZE5EIURZcd/Oiah2aEsbNNUh1DIPgxAPJrVxosYKSSKWXnESUW20hoSEaF8MQgjx/6i3qVWrVk2SiDchSUQhxJ2QJKIQoqy4b5OIMieiEOJWis9vGYl4bxQnEV1cXIxrhBDi9kkS8c/KUhJRX5BLVEwcFSp7Ymv+9ycshBB/JknEW8tLjyMy24qaFZ20Nv/NpMVeJs+2Mm6OkrQU4u8mSUQhRJkjScR7S00iyuTXQoi7lZqaioeHB3369DGuEf98ErGIzIQgNm45S5tHHqGG6+23f9PCTvLZ0Mm8PHYWXaqXM64VQvyT/mtJxKLCXIKO7GTL/gtkYYJDuaY8N6g3bhZ/Pmbw1ol8c7oii79+FSvzPz+WoaiokOWTXyC4/nCGPVLfuFYI8XeRJKIQosyRJOK9lZSURGZmpvE3IYS4c+pIZrXjKwz+8SRikZ5zO35g2Mhd9Bn5Pe/3qq98Nxq3/R/qSMSIiCjcvKpjd5MOvBDi7/efSiLmpbFu7mR2xpXj0R4PUd62iPjgULz6PUEDxz8fM2jLeL48WZFlQwfeMom4bMIzBNQfxcjHGxjXCiH+LpJEFEKUOZJEFEIIcT/7p5OI+vwr/DZkDKbNGnHyrCUTJr+Oq6mJ0tLXE31+Jwu2ngELB1r1eoKutW05uG0NR/3iMHGsyeMPtyTA35f2HXtRwc6coCNrWHUgCGxc6PTwM3SqXY7EgP2cSbRBH3GCM1GFtOr5BN2beiIpRyHujf9OElFP1J7ZfLspl2+GvY+3i5V2waNIiVVFJmYU5qSwb/MyTgRlULVpNx7r1ZIrO4xJxCHP4X9gKzaNH6N2BQtyYi6wOdSMx9rUZdXkZw1JxEdqcGHvJrafCKKgyI0+rz1F08pORJ3ZgV+KBZFBAZSr24W+Xepx9xFZiP+20iQR/3wZoIwozM/icqCv9lRBdfELCiUn/148SKCQ9CuXiUvLNf5eOmo9Q0rUMyj0CvekmkIIIYQQ4oGRFXSUCxYt6PtIf5qYnuNYaL6yVk/YgcV8v+AwNdv3pHWj6hQkRLJ51kRWntPRtltXvF2tyIy7zJpNa0lIz+HCxunMWHqRJj2V/WtasvjH7zgdkU6czy7GTfuZROemSoc8n5/G/4R/rIxgF0LcoYJ0Du/1o077btQ0JhBVJqZmmOizWDNzPIeSytG1UzPCtq1g/ZlIpYddLJuzO1fhl2BYkx11jlWHLlFYYlxTQWYGKQWmNO/ai6blwvl5wQayCvRcPriUz2ZswLlmUxrXqoSFcX8hxD+rzCYRsyPP8NXnX/DL4uWsXbuGuTMnMnzoQoJTc4x7/Flq4H42HPJFbZLdWg77F4xl9q5g4++lk6MExq8HD+ZnrZ4b2HXwAmkFxo0l5KeEs3rDbq5k5hnXCCGEEEKI/wRdJkd2HsW9eWPcbCrQoFE5Du44SnZWAtvWHaFGv5d56qFW9OjzMN3r5bHjcDYvvTeIrm3b8eTzj1KrojNaPz4rll1bz1HzsZfp20rZv99jdLKN5/D5K0qr34zanR7luV4d6N3rUerapxOSlsU9uyVJCPHfUFRIbk4hNtZ/noe7KPYkq7ecIzrMnz0HjxIVc5QTZ0Mo1N9+pLFwrECLBjW4fHovZwLD8d3hQ6T6ejNH2nfoRe8ebanp6SKjqIX4l5TZJKLK2r0J7309hOHDhzN+7BAaWx3l5zWHtZF+Wckx+Gqj/wKIz8wjNyuZo7s2MHPxVs4ExZBbkMuVy4Fc0vYJI1N37fpIUaGOgkJDoLtajm8QKdn5WkOrIP0Kvj6XtJGF4YmGK7i63HQi41NIiL6srQ+9knr1iot1JaWeX6n1HMq7r/TGOe8KYZGJ6JRt+Uq9AiOjCTt3iKVLl3L0UoB2nOS4aFKSlOP4BhKfkUtmyfej/C4NPiGEEEKIB0NOYig7jxzjwLIfePPNt/ll1UEO7d9BdHw6SWmF2Lraot7ZjJoqzMwgvtARJ2czLXFoYmKqbDMOBSrUk5tvhaOrjSGpaGaGtZXS4c/VqztSzskZM6UgcwtLbPUmZBYo64UQ4k5YWFHZwwz/037k6q/1oTX5eeitPejcpxe9e/Vj0Dc/8OFjzTA3M8YoldKR1ekNsUevK9DmQ7ymiNiL6/nsi/lYVGtO9/ZNcLY1N/SrLcyxdXbAojjeCSH+FWU6iXiNCVb2Vek3oCMBGzfin5DDxd3LWLx8LYt/+YGhPy8nJjqYS+fOEht4nL0Hz5ISG8z6dctZvnotv00ZyqLjgcayrtHnhrDqh4n8tkgpZ/FKDlwKJe2KHz+NGMUPi5ayet0yRk2dzaWYDJID9/PtJ8/z68I/WLV6rhL4pnFOWW9QpN1zri1FRSSFBzD9++lcSsjkzK6l/PTHOs4cO4i/vz87t+7BNySKddM/5pmvf1Dew2YuBkZycc9yw/uZNZ2hM1eQknOT4YxCCCGEEKJsUTrQsZfPkufxCHN+ncucOb8y79ef6VUuhQuJRTRvZMqxtQdI1OnISIklLNOJOrbn2LY9kJzCfCIDg0nIyDaUZetKi5L7x4ZyItaKBrXLGZKKQghRWib2tHvqWax81vD79tNk5Bdq8yfGB5wjxqEOrTySiEm0o37zJlRydMbRpuSYQRsc7K05f9aH7NwMjh07QmyyMX4ZpUWEkOlWm16d22KSmURG6vXbhRD/rgckiWhgVakiVQszydNb0qDDY7z04lM8/+RDpB85TbxzPR59uAd1Oj7NB68/TMWK3jz53PM8//QT9O3gxZYlR0kwllMsOz6asz6ZdHh2EMOHf07Phu747VqBj0VTRo8ex/Cvv2KAayQr150iSwc5TtXp+cKnfPvlEDq7hLP/YrQ22jAz7BCjP32P1998j6nLjuJQrzUDGsGiaVPYe7SA114bxCPPvUzz1p147+O3aFurPOSZUatJD0aO+pRuzWrSsMOjxvfThYzjJwlIv/Vt20IIIYQQomwo1OsICgymSpsuVHKx0R5KaFvBi27tq+ETFEfnV5R2pdMFPn7zDT4bNY0gavH+Fx+Rc2AKb7/+JhOX7iIbO7wqe2Bh5Xj9/hMWU/fp9+nZoALWTu64K+VryURTC9y9PHC0lBsChRB3zq5KG74Z/jZ5xxfz7puvaw9GnLjiNEX2VXjpww9J2z1aiU9vMHbRVlLzTLFycKOmOu2CiS3tHn2KtB2TePuzEfjqvGjpXUmJSyY4VqxBBQdrqjTvTgPTo3z56TccSbCnUcuaWCmBy6acpxLDbOWCiBD/sjL7dObMywd5Z9JWvp40jIZKMFFH+6Wc+oOPpkYwfNbLnJ69mNNp6djlp7J9VxZjt/2E59EZfHvam99GP0mm32F++3U9iTY2OCT4cTy9E/OXfYwHWWwY/w6nvL9k+CNVObhqBhuOhmJXrx3PP9KfkD++46jnk4x4uS1WFHBhwxR+P16V9x935JfdwQz96CNcLXLZMGU4x6s+w+ftdHwycSOfjPnaUE8TMywszCiIPM5rb7yF2/O/M/XV5uSEHebdiZv4YsK31LfVsWDS56S2+YyP+9SD/ChW/biEUylp2OnS2LEzg1Fbf6JnRUfDhyFEGSRPZxZCCHE/+yefzlyoL6AQM8zNrl3fV590WlBogqW5qWGqHePUO2bmFtotyeptgHp1+h0TUyzMzbUyTM0s1LuWb7q/esugeudh8THU5GWRqRlmcmugEPfEf+fpzNeocURXfEuzsZ+rRhS9Ll+LN2pAslBikLKnsl+R8rNanyJ0Srla+DLWz0L5vyEOmmu3Phcq8U2n7KA+rEUJXphbmCtFKMcqUuJdiTgphLg7/8mnM98oK9mfJauOU6tbV5xCD7P2SDIvfT6cD195BE8nQ3Ayt7CgMF+nxJ9cLu7eSni5jowZ/S3929ZVPghjLlWXTkSUCW7lXJUABk0f+4LR3w6m8pUzrNx6HrsK5kSfOU9qjhIVC/OIjs7E1cNNnaJBa7QVU6+mXEvPKsHTwlJLqFpqgTWH86fOU6dBbwrOH8Q3OV95rRmm+XolMF7L6apJFVWG/xHWHErgReX9fPTKo1Qxvh8hhBBCCFH2qcm/kglEldp5VhOIhp/NDe1IZVETgio1OWhoW5prbVD19+K26M32V+dOLHkMUzNzSSAKIUpFjSPFscbQzzUwMy9eZ4hLavwxJBBVhnlZ1e1q8lBdVIY4aCjB1Bjf1NdYqDFOWafGNUkgCvHvK7tnoRKN9AnnmTf9e8aPHcXkib+RVvcRPn+pFXYValPFyo/Zk6bw26pdxKcbro6Uq9UcC59NfDdvB3ZVKpB1aR1TJ09n19kwipTAFn16LT+Mm0WUe1d6tnUjM+Y4Y4eOY8acpYSmmFC1TjVaPPwq7SzPMHnaBEaNGsmuGEce7t8KGyXgXZ3UWqEmALXflP/oEy/w+49KPcePZ+aCVRzd/gdLD4Xy2CeD6VsznKm/rCfPvhJNHZL4/beFnAxN1upTzKJCHbys/Zk9eQpzV+0kLl1/NUALIYQQQgghhBBCCPF3K7O3MxfmZ3M5OJC0bHXWQROsbMvjXacq1maG2z9SovwJScjD1sUd60IdbrWqYKvPIcrfhySTCtSrVYFI9fV5pni4uZCcYYGHazYhERm416hFZVc79Dkp+PtcJkcp31Ipv7ax/NyUaC5dvqJdIS5frQFVXS3R5WVyJSWLKpUqKhXQkxkXRZpledwdTLkcFGCsJ5hb21PJxZpknSN1qrqgy4wn5IqOet7upERf5nJcDlVq1MQiK4YChypUdLQ2vJ9o5f3E52Hj7I5NkeH92GslClE2ye3MQggh7mf/5O3MQoiy7794O7MQomwqze3MZTaJKIQo2ySJKIQQ4n72dyURbWxstO88IcSDo/j8vp+SiC1atMDc3Ny4x52TJKIQDy5JIgohypzi81uSiEIIIe5HNyYRW7VqVepkgE6nK1WnXghx/1I75ZcvX75vkohqYqA0FyzUtrpa7j9RfyHEP0s9v01NTTl58qQkEYUQZUPx+S1JRCGEEPejm41EtLKyMm69O+r3njoSUQjx4FHP7/ttJGJpjq2WqY5ELG3cE0Lcf4rP7//005mFEEIIIYT4O6kXvO52KXazbbLIIkvZX+43N6vjnSzFbrZNFllkKfvL3fpbRyLei9s+1OyohYWF8TchxINEnWtFjRUyElEIIcT9Rh6sIoS4E/JgFSFEWaHGjLudE/FvHYmoBi01AXi3izpnTGnLkEUWWe7PRT2/S3MFRAghhBBCCCGEEP+cvzWJqE7UqCYBS7OobrZeFllkKfuLEEIIIVSGBxiUXG73VqGiokJ8j67jYkyOcc3tKbruePfsxiQhxH9B0Q0x6w5ubszPTGL/gV0kZumMa4QQZYnMiSiEEEIIIcS/KC8xhCmDX+K5V17j9ddf59NhEzgfe3ud8iJ9ARcPLONsVLZxzf+XmeDL6l8m8sFrryvHe4PBX/9CWIEkEoUQtyfVZxMDX3qOVwaqMeR1Rs1aTVyWceP/kZcey+7dm0jIlCSiEGWRJBGFEEIIIYT4FxXp8ojJceaNbycxe84cpoz8gkYV1Sk/ro32KTmNufrztfXGdVf3VX8yrrtuP8NafZwPU0dNwd+1PWNmzmH2rJl88kobLJT+vLpP8WsM+9/s+NfWyQhGIf6b9FnJZLi2Y/zPvzBHiVlD33gMN3W6V2P80GKGYVfNtZHP19YWx5rr1xXvd/3rhRD3D0killGF+dmERsSRqy80rhFCCCGEEGWXCRaWllgpi/qQQjMTiPc7wA8jP2Dga2/x9aTlRGXr0WXGs33+ZF587XVefetjft3mQ54un8DDaxjy2Vs8++hbLDkWonTG9QTvW8iHrw3itZffZfisLaQVZHNiyzKSq/fn46e6UM5BOZ61DV4NW+Bhpefgsil8PXE633w5jF/XnyNcPf6oD68eP1I5fm70aSZ99ak2gvH9jyfik55nrL8Q4j/F1FSLWWq8srSwoKiwAL/9S/n683cY9PLbTF9xkuzCIrKjzvHzhC95deBAnn97JEdCEsnPSGLn8hm89ebLvPrySM4mZVGUl8L23ybwzsDXefmZ95l3IBD91YsXQoj7RZlNIuYnh7N07jTGjx+vLdPmLiUkMe+vr1goQejaVdRbURphB1ZxyPeK8ffSyU8JZ/nVek5g7tJdJOUbN5akXYm5/SCZE32OMRNnEJSWa1wjhBBCCCHKqqLUYP745QetvTjr990kpF3mt+m/49RzMD//OII6GYfZfiaAM6t+Yl2AK+N/nMUP477goRrO5KYmEJzpwOejpvDJgPKsWnuIbH0RDh6NGDz9Z34c9xappzdyJigUnwtJ1GnSFHsL44GLKW3RjNBz7A0s4N0hQ3ilswN/qMfv/ply/JHUVY9/OgxdoSOPffItP//0Az29Ili49jySRhTivyc16AAzJk1UYtZU1u3zJ9pnJ9OXnOXJTyYwc/KbJOxZzLm4WFZ+/x3xlZ9g+i+/MPGT56jhYkV8uC9FNXoy46cptCt3mZU7A8jXmVKz0wDGz5zF5A+bsG3ZFhIKZMCMEPebsptETIlg/V5fqrbsSM+eXalmGsrE1z9nW1C8cY8/Cz84n1HzdvPX0zUU4H9oPdt9Eo2/l05BShTr9/ng1bKDUs+etG5cC7ubPE8iO/osoybOxD/59uezUR+7L9dmhBBCCCEeADblaNqus9ZebNeqNlZXfNh6xI+Ns0fz/ifD2HoxgEj/QPYcjqfVE32p5mxNuYpe1KlTGQdXD3p270YFJxeatmyBSXQc8aY6ctPTWTvtcz4eOolDByKJzS3AzERPbl4BN21E2rjSvn173F3tMU3wZdtRfzbMGaMcfyhb1ONHJ1Fgao7Phl9494MPWbj+InGRCdzs+rgQ4sFmW6EGnbr1UGJWFxrVciMt8BgHTp7kx+Gf897QH/FLiCHm1BH2hrnzyIDWuNraUr1BPSq5OOBWtz09W9bFxtqd9q28iQ25Qral0icOPcfkbz9i6PTVBJwMJ0lGIgpx3ynTtzOb21WgSauWtGrVjgGvf8abTzvx2+/bSc4rJPzMDqZpo/9mstc3hvjwsyxZvIJlC+cxbe4WrqTEsm/5PCYp+0yavIzgtJs80a5If62caXM5GZasDalO9t/Lj1MnMX7iZFYeDdZ2zYwNYNuBIxzcvJDxEybxx84LV6/Kmtsq9WzZSqlnSxo3qIa1qVruTn5Qy536K8eDQtizbhlbN65izq8LORmSQOhZ43al/nsuxaBOO1uoy+Pw2pnXyjfG1CJ9Pmd3Llb2VfafOZ+L0RmGDUKI/wx1lLUsssgiS2kW8e8ysXKhftPmWnuxScMqWFla41mjOYOnzNLmHFu8ciNDnm6OpWkm2Zm5xiSg+m+n3lVogqW5uVaOufr/3AJyY08wevhi3B/9ghlTRtCtUXmwdKRhEzfO7j5GctG1ET5X//1NTTG3NEedjREL5fjVmzJ4smHOM/X4Qx+pwvIpEzle1Irpv8zkvQEtUQ4thPgPsnT2pKnWF29OzcouWCjxpXGnp5k4Y44SM35j6R+LebSJq9KJTSU7xxBvimONpbmZFrdUFuYW6PPyCTv4ByPmBvDc4IlMHTKQ6hXVSRaFEPcbE+VEvmetxsWLF9O1a1dtXgQfHx/tSqb6891Sq5aTk4Ot7Z8DSOblg7wzaStfTxpGQxfD9rSANbw5eAuDZ/6IzeUtRJhXxSr6OAtPpjF88ECCVozjJ78qfPPR8zR2yefQaV8cKngQfWAxZys9wbiXH8KcLDaMf4eT3l8ypFsOPwxbRNXHXsGNVJyq1sA915fvp2+hwbPPUs8uk9Xr9tLu+c/oZHmGt4ZOpscLX9HMPYPZM/by5Igx9HQI5r1Rixjw9hvUdrLBrpwnbhYB/KiUW0UptxJp2FeuhEPMEb6YfYTn33uH7k1qk+SzhzDTqthcOcHCEylKI/AToldPZOEpUwa81o+0U9uZvDqOecvHk7L+O1Zdsqf/C13RBR9h/Ykcvh72KTXK2WifixD3o+Lz+9KlS3h5eWFiYsKmTZsYNGiQcQ9xJ7Zu3UpkZKTSIJOpboUQd87a2pqXXnrJ+JtQbdiwgbp161K+fHnOnTuntWvVz+lu/VW7NjfWl69GzeTxL0fTtXo5bZ0+J4l5Iz7lkktvXnq0PklhydRt2ZSUI7/z6+5cnnz7MWxSE9CZuhFxaCyFXWfySuty5Pms47kRvoyb3o1Zg2fSdNBgqqUcZsTX63lv/e8MqJzFj0MnccWrA0/3aY2jqZ74qCgqd+hB8PzB7HV+kfGvtsEsN5nfleNfdOrJS481MBy/UVUOzRnHJY/HebaFLcvGTyau1SfMGPYwDlqthfjvys7OJigoCGdnZxwdHVm9ejUDBw7EzOwmt6HdY+qDSObNm8cTTzxBVlYWMTExtGzZslTHVu96KygouGncSzq+gDeXpDLz+w9wtzAcIy3sOKO/nEy1597nodp2RIYX0bFbPTZN+oJT1l14rn99UkITcHe3ZtXG1bzw3kTquVnhs2wCk/3r8VnXRCYvCOG1NweQtG8e362xYsHh72lgZbhAIoS4d9SYkZ+fz4kTJ2jYsCEpKSlcuHCBAQMGGPe4tQcqiZgZsY1vPt7IoF9/om7hZdZt3ERISChbd6QzevOPeBydwbenvflt9NPYK2WrIwr/2HaKaJ8THE3ryNKVn+BRIon4VQcY8cEQTLq9zWev9qCStZ7ds0axWdeZcR/1x84kl+NLxrMqsgXv9DJlwrpzjP3yK9yscvlj3NeEN3+b9xpn8saHo6nQoCXuypdJtVYP80jjIsa9/41S7jt8qpTrbmdJTvhR3p24iS8mfEsjVxtyE0JYv3Ejl0PC2LY9lZHLP+GQ0rj0+mA8r7aqQHaI8v4nbOaLb55l8dBp1Pvse15T1pvkR/Hju1/h8tYPvNymgva5CHE/kiTivbVy5UqaN2+uNVyFEOJOqJ1ENf6+8cYbxjVC9U8mEdWHpezYc5x6nbpT3diuVWWr7cEVCwhMNMW1TjteerQbTpaF+OxbzpojIVg5VaLXY89iHr4Nfc1HaeZpS0GcL8t3J9DnmfbE7vuDlUci8ajVHHfzAqp16UZjN3v0yvF2blrN8YAEpTdgRsX63XhpQGuijm8l1LoZvZp7oqYFshND2bB8AQGJJrjWbsuLj3XHLPYk81bvIduqGh1q25NkXZf+XepgZaiyEP9Z/6UkYnbkWTZcyKV/37bYlxiOHO+zi6WbD5OWa0Kdh57hqc51KMyIY9u6pZwJTcepZkue7NKYAP/zNG7TBzd7M2LPH+BgYgX6tq3AvtULOR1jSstm9UlOtqD3s11wM5ML5ELca5JE1BpbOoLWz2T0VmtGDW/ErK+XU6lPT9o6J/H91KO898cUPK8mEQcQtvV3flodRvfn+uAYtIWZRyoze9EHeJDB6hHvcKnJMIY/5k1cyFn27djAZt90HnvxA6wPzmJvuScYN6gD1iYFnF07mSXnavDuI/b8sjuYIR9+hKtFLhunjOCo19MMbq/jEzU5OFFNDhreR5FeZyx3I1t8U3nk1a/oUz6M9ycZkojeBecZ8cUy3Hr3pJ1rMlO/P8w7019j08g/6PPDWPpUdiJDef/vTdzIF188zbyhv9Ljuyn0r+qk/DXEMvvdTyl8bjrvdnXTjifE/UiSiPeWmkRs1aoVLi4uxjVCCHF71E7iunXrJIl4g38yiSiEKPv+S0lEIUTZVpokYplP66tPNC4s1BF2ZiMT1gTz8Cv9cY6LICTblt59e1PBqoDk+DRtX1s7B3Tp2eTl5xEb6ItZnfb0adeA9CuxZGblKY27Qu1KyaUwW2rUqEhhdjhJZjV5+o0veLaGKUdOBOFRz52oHRsJTc5Cl5fM2UtXqNKgNjY3PuHuBoVq2co/VKHSgCzMjjCWO5hna5pz5KgPejMrLLPyySzQkXMlguAsa3r3642blY4ktf5OFWjslcnJw4Hk6gsIunAM34hkZX1l2tRNZ8/606Qr5SeH+HFWX5mGNeyMRxZCCCGEEEIIIYQQonTKbBLR1NKOCjp/Jn7+Pq8PfJMZq4J4ZvDXPNe+Mg41OtDDO5qRH73PshNJNGnfADszU8o17Eyd5K0MnbCU8m26YBu8lI++mESkVTXq1nYnZN/vfPzpdGy6PEf/pq5kJ0UwZ9RXDHrrY3ZdKc+Tj3ekca+3ee+R8kwd/jFvvj+EBM/evPRwI6xtHPEs74yZcTS3Y4VKVLC3wszSlgr6ACZ9/gGvv/46X477ifNB18rdGV2Opx5ri3Nlb/o1s2DWhMkcSKtGj9qxjFLq/8fxBJqq9bd24+F3Xidvz0+8+fYHrA/U0bF5HaysXej39rfUSFjPu68P5OtfdtD1tbfpVFWSiEIIIYQQQgghhBDi3iiztzOrdAX56AuLq2+KhaXF1SfEFekLyNcVKqvNMaMIUwtzZY8i9MprdEWmSr0stJ/V16vDvPV6sLBQb+nRY2Zugbk690JRIQX5BRieJXWt/KJCPfkF6vOS1eItsTBmDnU6neGJeKpCnXYctZzr66keRz32n8st1Oso0BmOr9To1vVXX2im7lOo7Gt4gt7V96swt7DErMTcFELcj+R25ntLbmcWQtwtuZ355uR2ZiHEnZDbmYUQZUVpbmc2G6kw/lxq6kGrV6+uBauEhASqVKlS6qCpJubUpNvNmCplq0k7w2KGSYm8mYmpcZuZqbKfqZZoU9YqP6vrlH2V34pfrz7N1Nxc2cdE/b/6u7EgpUA1SXdj+cX7qUvJZN11T0VV9iku5/p6miuvv0W5Wj0Mx//L+qvrlX3U4xUf/er+6utLfhBC3MfU8zs+Ph4nJyftvAgMDNQeDiLunK+vL5UrV8bGRp7KLoS4M2pD0t/fX+LvDQICArQEopr0i42NxdPTU2t7qcnAu13U7z21bXyzbbLIIkvZXtSkW3JyspZ0s7Kyws/Pj2bNml3fR/ybqMc/e/Ys9erV0xJ/GRkZVKxY8eq2u1m0qbiUpbRxTxZZZLn/luLzW73g4ObmRm5uLnFxcVoM+X/K9EhEIUTZVXx+y0jEe0NGIgoh7paMRLy5G0citm7dWrtYWxrqZ32ri+NCiLJNTSIGBwffNyMRGzdurLWv75baVlffU2njnhDi/lOcBjx58uR/5+nMQoiyrfj8liTivfFPJRF1mQmExiShs3bFu3IFzIsngi0NfT4J0ZGkFdhQ2bMSNlZl/plfQpQpkkS8ObmdWQhxJ+R2ZiFEWaHGjAfy6cz3ML8phBD/PTlJ7FzzO99//32JZSoLVx4h3bjLnYo5voyn+veg36c/EJOWa1xbGkVkRJ5i3OuP0XfAB2w4FYPeuOX/Ur4j1O8J+aYQQgghhBBCiL/f3zoSUb36Udo5IK57WIkQ4oGihh81VshIxNK76UjE5CA+f+clftsRYFyhMqdBx8Es2/Q1VYxr7kTErun0fmMc6Y1f4+j8UXi5lnYOxiJ0iQHMGTmMrVFV+Wz0ELo0Lnd1vtdbKsomcO9GVu7bRfWHR/BCG0/jBiHEnZKRiDcnIxGFEHdCRiIKIcqK0oxE/NtvZy7NvC9q1dQJHuVBAUI8eIrPb7md+d74yyTi/ng69H6EVrXKY4o5blU78tyrnXG6VfhX/i1KJvFKfk1E7P6RPiWSiFVcrjUs1Wl3ru2qlHF9IX8aMXhtnp4idEojVac+Jd/SAjPTa+Wo+5Q8vuE1yt9Oxnm+6PICK66k8/Gvh/imX9US5Qkh7oQkEW+uLCURtTipxMB/Ogoa4rMa79WR4SXiuvLLtchdYr0QDzBJIt4+NXZIXBDi33Nf386sBofSLPeiDFlkkeX+XMQ/xNKFh55+i2HDhzN8+BDeebUzjro8ds/9ku69+vL5b5s5uOw7nuzfhz4vvsuCAwHkF6ovLCQt5jwLv32PAd178uRro9gblKWsvSZw5wyeebQ7/QdPZfe2Zbzz8gC693+SUXO2EJdluDFZn5/L+QOb+ObtQXTvruyrbB877Q/8otO07WnhZxjxdh/6vfIBG87HkRsfwMRPnqb7s2+zeMdu5gx/j+49e/H819M4HpVFirL/6A/fYVPoFfJzs1k44lUe/vxHolLuxe3VQgjxzyvS5RMdFqhdhFcX/6DLZOUbN/4fhfoCdi0ZzRafVOOav6bLSiL4cgiZ+SXTfApdFuHBl0nKvL0DFxXqOLTyB37cfInkGF9GD/mCYxEpFBXlcHrtz7z/2lv8tmozI4vXG18nhCj79NkpBPr7XY1ZIdEJ6Eo2EP9CdsJl5sydTkhSnnHN7cgnNigAX+14fkQnZFzXHhVC/HNk9nohhHjQ5adweP1CpqlzIk6dxsojwWrvj7SYAM6cOcPGBT/z1ehJ7D18nONbVjJl+HhOxuRRkB7N/EnfMGT2MvafPc3eDbP5buYfJBuTg6rspAjOKWUc37aUsYO/ZNWWA5w5vIefR3/JT9svKYfRc2Hrb7zzzof8umodZ8+e5ciRPUybOJhBw38kKCEPfUEOl33PcObCJRIzCygqyCM04AJnjuxl9vhhjPt1OWdOnWTbnCmM/2kFWWauNGrVispOdkoNTKhWvzldmtXG0UamvhBClE15icFMGvIh381dxKpVq9i0Yx9XMm8z7abE8+RoP5JKxOa/knhmNS++9DKLj1w/B23c2VV8+MEHzD0UYVzzfxQVkR4bSmRSFmY2TjRo0hQ3Byv06b6sWXaOJ0b8yLPdmtBIWV/B3uofHyUphPj7pF7ayLufDGX+8hVazNp93IfbvP6gtPtyiY4KI093ezFOn5PG7pXfMfnHhSxfuYrli5ezdMN+UnTGHYQQ/yhJIgohxIMuL4X9q+YwbswYxoyfxIIDQcYNCn0+5spXwfs/rGL26DeoZKHnStxlgiLjibywh9WrTpBvX5tXhv3OutULGdDEEzP9n6/9FmVl0/njKWzbsozBT9ZGnx3H3lV7CFc6k0unz8IvLp/mTw1l+fodrJz2FW3KFxGwcw1rjgRRcKs2ZHYqTvW7Mn/ZH3w+oAXW5HAhIJBC20o88dogGjvYYGZpzUPPfcKXL/fF0VqSiEKIssvEqRavfPQFI0aMYPD7g6jlalJihKIfkfFpFBrjZW5KjGEEkF8g8Wm52ig/XXYSAf6+yvpQ0gsM6cH8zAQCtZE7/sQkZWojd4pMlA5ABTfCd+8mNc9QYJE+lQN7/MkuSEWnN6xTRywayvPhclz61ZGEeWmxBPgpZQZFkq3OQ6GwtC9Pm87d8bQzIyowiMj0AhKuxKC3Kaet93Iy3A6ZlxqDr69a7wCl3jnkqfVTfy9RPyFEGVBUhFPth/js2+FazHrziS44K6f5tRGKgSRmFxjiRqGe+KgQLZb4BIYrccYQN9QL0Wo8CAi8Qp46H0JRISlXwvHTYlYIafk65TA6LmyYzdKTVrwyZBijRo5g1JihvPlkBxzRcSXmCmlJ0Uo5hv11JY+fZTi+GhuDfNVYJiMYhbgXynASUZ175frldqm3fZw5vJmw5Nu8XGJ0t8cTQoh/lZULHR59hU8++4zPPvuEp9vXMm5QmFlRteNLPNHrIfo+8iQt69kqndQiCgrySY8PJy6riOp1uvLuO4/yULeevP5KL1wc/zzXrVubJxn01OO0atOVxwc8gUeRnuz4UBKi4wm4koGVdV1e/+AlenZqRY8XBjKgayss0xOVhl4Iube6kuxcnR5Kvbt06cPTjz+Es4M5+Tq1QWncLoQQD5QiLf6qi9bWVDrep7fM5vuff2X5koVMHDOL07EZZIaf5MfxY5mxaBULFi5k3R4fstIT2LF2MctXLmHSZ58yefVJCgt1BO1bwdzFq1gyby7Dp80lOkNp+5qY4d6gDS55fgRdSVNb1KRHBuOnc6FtQxfU2UZy066wbMpIpv2+iJWrlzBh8vccDkoiT1m/cNxXfPfb76xdu5IdR0K1mJwRc4mRk0biFxbNpTMnCAj3Z/+WfUqn/TgjlPUBcVlkRZzix3Fjmb5wJQsXLmLtrvP47lfqp7wPQ/1+Vep3J7c3CiH+Vcq5X7JvnJ+ZyJrfvmPOkiWsmjuDsdM2EF+gJ/zwMkaP/54Fy5fz008LORueSFroGZasWMmKlb/y9VtfsMk3Hn1WInvXLWTJ8lXMnTyGiasOUZAZyrad/vR58TWauBuek2BiboGTswtFaZH8MPQt3p04RylnFwGh4ayZV/L464nP1xNyYKUSZ1awdMFChn8/m7A0iTNClEaZTSJmR57h87ee44VXX9MmrP1i/E8EJRs3/h/63AyO71pMYPztB5CUK+dYOHk0b782UDneWwybsIw4uYwhhCgLSs6JOORrXu3sbdygUHqL5k5O2Kr/t7TBxtbeuEH5gjAz024/y83LJCOvkEJ9PqFRUeTl//kCTG5aKlnZyvqCXFKTU1Cjq5mVNebmZpgrZReRSVJyBuoAl4LMdFKzctCbmmFlaa51WG9K2WZnZ6d9UdnaOyv1uflXVoFO7mcRQpR9uvjzTBvyMa8PHMTQ8SuIjj3N4sWHqdXlKZ55/gka2Ply8OR5di9dTEb1x/lu7AjGjxrCs93qYmJmQ5WW/fhmyChGftoNn6PnSVGiZ7XWj/DGoOd5/snumPlf4GxUknYs63Le9GrlwvGLQegL9QScOYhJlXZ4uFihjgaKOLaarWFOfPbNGEYMG87rzcxYtWgHvmd3cjrei8HDJjL007doW6fS1Riu0xVgZleB3o89QZv67Rj46UAaujmgV9YX6dPYs3QRadUe47sxIxk3egjPdW+Id6tHr6vf6chkNS8hhLjvFRFzei2fvfmG0jf+kFmrTxF8ehOrD2fRvf8zPPniI1hcXs8pfx+Wzd9Fi+e/UeLVKOX8/4jmXuXItXKl0yMDGTF8AgP7unDwaDD51kp79bEXeeH5Z3jx8cb4bDxCREYCCcl2VHRzvOmUCPoMUxp1eZLhI96kUtwh1hzKpFv/p3nqpUexDFGOH5aHZ0slzrzxIs8+0R3L4AscD46T0YhClEKZTSIW5mcTT3UGT/6B2bNnM27wW9TUHkp67WpIyUZIyask19ZfW1fsZvvlhR5i8uipZDboz9RfZvPLjO94vV8tTAoM+yv/KbH/n19/3TplEUKIf1TJORGVZfailUSlG7fdiqkZ5ap4U8VVT0TQTqXhN4ZJE0Yx5tfNJGcb9ykh4+wOJo4bz6SxI5k0bQkJZhbUaNuRGp41aFmvEvm5ofw0cgyjx09h3Lcj+GPPGSw9qtKubTNs7+IuZBNssHMyo1CnY+/KWfywfDcp2UpQFkKIMsrcrTEfjvpOadf+wojBT1A+JYozEen4n9jG6jVbSLCtSRWLAs7566jbqQF2Suw0t7TFyckOOzt7GtauhYWZOZU9vSAmmeTCJPatXMWsOb+yctNOLoelkmW8VVkdjVi3QzeSThwjJCGCc8FZ9O3RAiu1l67OmRudjJV3W9ydzDExtaRyncoURAYTcTGcglpt8FDXW9hTqeK1C09/KSOVs35KvTs2xN5CqbeFLY6OuRxYudJYv11K/dKU+knXXoiywQSP5o8yaebPSsz6nkGPNqUw5jJBcbEc3LaW1ZuP4lyvBeXjAzidXIWWrSppF5XtnJywsTTHzaMadSq7KqVYU6NKJVKiE0lJC2Llz3OZ98cSNu07Q0J0Crk21lgXpZB0s8anqqIHDau7YaKEtgzt+HEc2raOVZuO4Kgcv4JlEodWLWfWL7NYsWmHEmfSlThTcjZYIcSdKsO3MytMTLGysrq6mCoNn6iz2xk/9D0GvvwmI37aSlJ+IQXJoaz+ZRQvvTqQF9/8gjUnwpQObSandizm4/cG8txjH7E1MF7NTHJ20y+8p+z38vPvMGn5UXJ0aexcuRx9k1cZ1LcF9rZW2Dg4UbNpK8qbZLFuzlhGTP2Rjz4cxsoDgYSc28GEG46f5r+Lbz9U1g18i0+HzSEyTwKXEOIfVHJORGWZNmsBSl/y/zCjUu32PPlET8opcXDvgun8PGc3lSrXwdnJ0rjPNUXVK5F6fAPfzfyNw5FQrc0A3ni2A462Hrzyzbs82bYiWf7b+fG7cfy4dCcZtlV5/sW3eLyF+119EZlZeNC+bxuczAo5t/l3Zm88TKbEViFEmWaKpaWlsV1rgamr0jn2dKbbM5/z7YjhDP74Ux7tXI+qFVMJOKm0ZZVOs64gl8wsw5yIJsVDArVEYBH5EedYvi2IRz8ewZfvPEdN1+uv2Fi4NaBHw0J+n7WUlCoP0aiCYfS5OrTQsZIj2UFniM9Q4mqRjriwBCwrVaGCpwtFcZFk5BZSlJum3T54W9fHrWypWikV/1MhWr3VByuk+h9j2bZAHvlouKF+5WReWyHKFFMzLI39cEsLc+wqeeJdpTavfDSM4SOG8cHrr9G8cU0qW/rj55eGEjXIzsgkT6/XYs3VkKX+UFhI1PFd7ImvxMffDGfQYx1wsVFaiDbedOzkztblGwnP1mmxTp3qITMzU7u7RXu98T+2FdXje/PyR0O143/4+kCaWYSwfLMP3d8dxjfvv0jtCn+ekkcIcWfMRiqMP5fahf+1dxfwURxtGMCf87gnxEkCgQQJGtwLlEKVukKRekvd0SLFCm2hSoGiBYpLcSvuJCFEIO7udzn9djeXlvJRihRK4Pn3NyU3uzc7F9i53XdHoqIQHBwMhUKB/Px8BAQESD9fD6PRCJXq/092fXEa1qxeifNp6Thx8BCS81Xwd83FrCk/o9XzozDisfaIWTUXFaEtkLpoMrZVRmLcuHdwT/swuKoVOLljPgoCH8H4d5+Hc852LE10Qv/IIKFkJbo9PhT3tXbAwp83olnbIOz95SCaPPYMWlrnYahlFi6ADi6diR3mtvhyzEsIt8vA11Pno8Xg0RjxRHucWT0X5Q07IchGgfp3PYKnBnRB2t55OCNvirYNPOp4BJfo+onnd15eHpydnaULiISEBLRu3dq6la5GbGws/Pz8YGtr+5cezyaZEoGNItCxY8c/UqeOndCudQSc1SY4BzRDp85d0KK+m7S/Ra5BSNM26NKuDfy9PNG8TQfU9wtEaPNWeOLZ1/D0g+3h7OqN9h06oUuLhiiO24kV204ADfrjmwlDERrUAJHdnsTrI4ahU6i70M7J4egbgS7deqFR/QZo2LQZunfvjSEvvYPnHukBB4285kJSZYvQFp3QuX0b+IkzcyvUCG7S1vpaA7PJDJm9F9p16IyuwnFtNDZo0Lwjmvt5o37LDnjsiUfROtgTCusFKRFdGbHtNQs3b3FxcWx/LxIfHw8PDw/Y2dkhJydHuq5VKq8v0PV317XGigLs2HsEYZ17ItjVTsqT2XrBUXsWy35ZjqjYKOw+nITg5m3RJMQNR9Yux/boKBz8fT8qlf4wZO2FObg/WvjZwZQfj5V7CtD7sc4oPrwGO0+mIfFsLKJP5aLFg/0RVH0O2zLsMbBzE9grqrB9bTTuef5hBDlqcOr3lajw64t7OjSDLnYLVh88hpMHduFohgL3PfM4WjX2xLk9wrGPnMKxqBhEnzkHx8Y90TlYju0HjqJT13vgIc/F1k1xiLivLzwM2dgs5vd8GBHCd8LRdSuwTaj3IaHe5epAKHP3YtcpoX6xZxB9sqZ+zetdetgi0a3OYDCgqKgINjY2UmDt7NmzaNWqFeTyG3/XJ177nTx5EuHh4VI9ysvL4evre13HFssUvx8u1e5ps6KwIaoa/e9uB0dxuhnhu8TO1Qdlx1di1f4jiD66D0eTgdadOsFHkYM1q9bhaNRR7DqQAG9vN+GaPxbNI3vD016J/Jj92F/ogbvbe+LotvWITkiSFkKJSbHBfc/1Q4vGQag4tAoLth7CmROHsWfXbiSUyNAw0A0H9h5AUGR3NPJ0FI7vjbITK7H6d+H4x6zHbxuK/NMbsONkOs7GCO3g8QyE39sPrfxc2c7QHU08v00mEzIzM+Hl5QWdTofc3FypDfknMuHNV/L88IosWrQIPXv2lJ6iiqsvdRIaDfHnayVWTavVShdvF6s4/zuGjfoZA557Bo1d7WHr6I96pRvQ9/k5CG0bLlwUmVFeVIAuT76K9NUb0e3zyXgwxFF6r6GyCN9PfhnBj3+PAU1dkLf7OwxfqsD33z+D8v17sHzjWiQmZ+PICVt8teUjnBw9A96vTcazkV7S+2uZdGWYP+EtFHV4G28PaIqyw3PQa9CPaBj55/E7v/oVng3R4rcNS7D9VAZyYlLQ9q2pGP1MB2is5RDdiWrP75iYGAQGBko3shs2bMDQoUOte9DVWLFiBSIjI+Hk5IRTp05Zc288cWW9+LQCyB290LyBv9QjnIhufWKbq9fr0bx5c+labc2aNRg2bJh1K4nWrVuHsLAwKZAotqvida0YHLhWl7uuNRurkZ6RDXe/ADio/nwAb9JrkZwQLU0joRFu0JuE+EMl3K+XZscjPqMMcpUNgkLDIC85D7NrKDyEG3JzVTHiUqsQEuaLamm/cmicveGiNMEpwB/21UVIKlcjzNdFOm5uYbHwGetBKbegMCMOeqcQ+DrbQF+WizOJaTCYAbfAcDSUhi6bUZabhsS0PJjt3BHkLHwmGx/4OsmRmpWNAP8gqMyVSD5fgHqhwbAxa5FizVcrZEK9E4T6lAr11gj1bgJVWZL0OWrr5yjUz03NHolUN1VVVSExMREuLi7S9djKlSulufuvt1PNlRCDfXPnzsXAgQNRWVmJrKwstG3b9rqOLQYYxIDkpdo98cHHuXwTGgYLbYc1T6QryULc+QzoTYBLQBga+ThJq8ynJ8Uip0QPtZMXGtf3QmFhHjy9A6FRyqErzERGlR2CfOyRJe5XZpaCGlqh3QsO84d4dIuuBDFx56EVC5Yr4RUoTrmjQWZGJpx9AuCsqanFX4/fWDi+M8pzEnE2rVg4trfQvphg5+MHD9trj1EQ3Q7ENkO8Djxy5AiaNWuG4uJiqVPgQw89ZN3j79XpIOJLk3/Dh5M/RTPrE9viE0sxZGIUxn0/Bo2E6xzx/fKKZIx8dRzajPoajzX1EPayQF9ZjJ+mvYoGj/+AvmGOKNr3EwZ9r8O0T3wx5q1teG76J+isScJrry/Gc/NGw7JoAlYaBmDqh/egJgxZU7a5uhzzJ7+Lsg5v4427w1B28hcMmXAKY78fi8a1x6/OxGevTITy3qF4897GWDv+Q8Q1H8ogIt3xas9vBhH/HbVBREdHR5w+ffq6LxxFYo+Z6+11Q0S3JvHiUbzZFW/UxBtEBhH/380MIhJR3XcnBRGJqG67niDibTWi1i64I9o5xWH5is04e/4Mdm4/iiKVL+7uE4JdC5ZjX2wM9u7chajYDFxq5iyzzBYqOz0qC/JxYO/viE0oBGT2aPfYILhGLcLEWStwPDoWMadOYNe27cjQWt9oZRfUEe2d4rF8+W9/Hl9rhKerFhqlCQkn9mPXvgTr3kREN444jEZc2fhak3iTKw65u9Q2Jiamup3E81u8sRQf3hARERERXak6G0RUu9XHw/f1RD37P3s6alyD8Oq4sQjSncDaFeuRZVbA1d4J3Z/5AM91kGH7ipU4FJ8Ou3o+iOzYH/XdauakUfm2xIP3tIJ3UBe8+mxLRO/ZjFynSHw4/nmEONnCOaAtxs+ehFZ2WdiwagVWbtiKNKOnNGSkZee+iAxyk36RGtf6ePWzcQipPikdP9Mkh6tHKB4ZPhjG+N3YE6fD4E9GoHu4z1+6fRMREREREREREd3K6uxwZiKq2zic+d918XDmzp07S70RrxXbX6LbV+35LS4c4unpyeHMf4PDmYnoanA4MxHVFXfknIhEVLfVnt8MIv47bpUgovi+6x0ieT1l/BvHJ7rd1Z7fDCJe3sVBxPbt21/XPLHi7128Ib+ea2MiujWJ57cYdDt37twtE0SMiIi4rtWZxTLFxPmxiW4/4rktOnr06J09JyIREf1JvJitqKj4SxK/IAoLC6VUVlYm3dBeLZO+EinZeTCa/voMSpcTi8mTZyIqtxzGinwkxJ1FbGyskOKRVVQJ8xU8shJXCt266Av8uDMBRmvelSpJOYqRn3yK08Lxiejfl52dbT2nY5GcnGzNvXOIN+NiMOBak3gjfr1lMDEx3ZpJPL9vtYeYl6rn1SbxM10qn4mJqW6n62mzGEQkIrpN1T4Vr03l5eXYvn0Rli4dhWXLxuLkyb3SCsxXqyT5CEZOnYzMEp01p4bFqENySjp0ZgsyDizE0LfGYOGKFVixYjUORafBeCX93i1mlGSdQ1axFlfbTV7j4ImIFs3hccFcuRcrTzmCNbuj8NeaE9HliO3Hjz/+iDlznhbO59ZSWry4Lw4ePGjdo24Q28TMzExMmjQJ8+fPl17XEn/evXu3tO3AgQN/2VZLvNgWL7qvNYkX7ddbBhMT062bbjW1gYJrTeL7xQcfl9rGxMRUt5N4fl8rxRiB9efrJnZ/DA4OliqUn58PPz8/6WJJvBC7liR2sRRvcMXyLrWdiYmp7ibx/BZvTPPy8uDs7Cy1FQkJCWjdurW1RaGrIfYMEttccQhzbm6uNERcvPC7sKeh2EanpLyOpk33wN39KE6cKECTJvf97ZBlsf0VV2i+mLYwBRsOn8FdPfrAxU6FoswEJGfkoqSoAAdOJqBNjx6wzz+NfZURmDp+BPr16ILwIE/AUIXcojIYy/OQnJaFCqMKzo42EJ+B6YozcD41A3lFVUiL3Y8Sj0h0DLFDXmEFTBU1+5dXAg4u9hC/8sSejueS0pCbl49K2MLFXg25Ug0nL1/4uDhBX5qFgiozinPSkJlXDLmNPVTmKhzfNB/T1ycJnzsEHs4OUMo59JnuTOL5LfZIFldrFi8m4+LipPZXnM9LbEPE67jatHnz93Bz+wD335+Ee+81oUcPE9q2LcLOnbtRVRUBT8960vA5nU53yyWxDRTbRfHnBQsWYNu2bejXrx+qq6sxc+ZMadih+P0zdepUaT6zLl264OTJk1i/fj1sbW0REBAgtZE5OTnSz+Lv6nr8XbtKRHWf2N4UFRVJU0SI7c7Zs2fRqlWr6xpSfKXEa2ux7QoPD5fqIT449vX1va5j116vX2+7R0S3HvH8Fu/FxYerXl5e0nWSeP0ntiH/5IbOiSjOz3U9EU6ReLHFhovo9iQ2XGJbwTkRr9+l5kQU21/xxr5WUlISdux4Fk88cUb4kpDj0KFn8PTTX0o30RcTvxr+bk7EwvhdeG32akwa/TnUqVsx7YufgUZt4Kgvx+5TxZj64zR4xczD29tcMHfyc3AW3iP+/RbG78Ynn42Hd3h3WAwFiI6zw7tTPkRL+2L8OPZTRKt9EezhgqSj+xH41Hg8F5yIjz/9AY07dwf0ZmQk5ePBT0ahh2cVlk6bgqNmZ/jYy5Be6YhXX3kFwdUn8eZ3azHu4wko2TkWn23XIbKBF7JSElDq2hOjhrTAxpkf4/tTGjz6zLN44dl74Wt/7fNGEtVVtef3xXMi1q/vj337hgg3nUXWPWv06mVCly5G4TyGcLEpXu9BaKsBW1tg8OAIjBgxGw4ODta9by3izbSbm5sUDN27d69Q1xF/zBdbWlqK9957TwoO3n///WjSpIkU4BO/m/bv349PP/0Uc+bM4cIqRHRFuLAKEdUVYptxrQur3NCeiEFBQdKFmhgEvJYkliM2XuKT4EttZ2JiqrtJPL/FhwTsifjvuJKeiOLv2dGxFX77bRvKyhqjTZvRwnv+vmfN5Xoibjoah95dW2PPTz+gqs0IjHnzCbT1s2Dv4SR07HsX7HOOYta8lTh+YBfWbzsMk0dDBNiUYMPReAwcPgbP3dsN5cfX4LQ8FD7Fe7El2gkffz4a97RrjJTj+1Ad2BEtXAux9kAmnhoxBoMe6gnXkv347YgRLuUHsDrWAaMmjcKDPTrCIXkr1h+3IKKhBluPxuCu7n1QlbgD+6tCMfbdEejTygu/rd6BZv0fRhv3KhzTt8Ckj56Cp5oPqOjOdXFPRHERkczMr/Hhh8no06emt2Ftql/fLAUQRWfOQLgpBp57DnBzA777zoJ27fqjcePGUnBMDCbeSklsB8WHVWKPoLvvvhs+Pj41H0QgPvROT0+XgokPPPDAHzfK4nvEBzLivLHiE/n/sieixahHVk4+VLZ2ULHnNNEtjT0Rr4zZZEB+YQE0NvZC/W5eu2YxG5Gbkwe5rS3MlYVIy9cJbb0t5LCgJDcdqVl5kMGEnCJrfu0XH9FtSDy/r7UnIudEJCK6Q4gXkh4eAVIvRJWqHHp9lXXLNSopwOlUO7To2RAamVyak9DR0XqhKVchtPvTmPH99/h+xljc3zZQGobsGxiKxt4OUCgcEOrviYKMXKTHpUPRNBKednLI1U7wrWdfU4bAt37N/jKFAt4hvjBmpSIvpRhOTdrBS9hfptQgsLEPtBmp0F+wRoxCoUTD8NZwtVPC0akePM0W5FRf/SIyRHeKRo0aoWvXz7FypYdwUQls2lSTn5EBiFMfCteaEj8/4IMPILQlNXlijxtxaLA4GkWcZ/BWSuLwZfEBt7jCcosWLYTPtEm6aK4lPoEXt4sPsVJSUqy5NRfWYm8icf+bpbo0G+u2bER+ud6aU6O64BymT/ochzNKUJCwF6sOnPnjM1gsZpzetxIHzv+15+jVs6A0+zTmff65NCfk55N/Rkxe+VXPS0tEdw5tVhR+nD1NajPENG/tHpRWWzf+g8rcBHz73XScK7iSN1iQdnQtfl73/+WXpR3Fdz+vQ/YVHthQnI4Zn0/E7sQCpO+fi3cmzkGBwYTK/JP4YcLnWLZ2Jw5tmmPNr1m5loj+H4OIRER3EPFmWS4Xe376wN7e0Zp7jWwdUN+tGjmpRRAvtUry05FXUFizTSRXQq3RSE/jVYqarxvx+LVkMiFPeO3s6QhdRgaqqs2wVBUiMTXdugeQm5GEXPHi0GxATnop7Hz8UM/fFsVnTqKwwvRnvrcv1Bd17rnw6bZM+E+8IRafplv0Jqm+RPRXvXvfCyenr/DAA16IixuNr75ywfr1A3Dy5AcYPToYxcVAYCAgjmFxcACWLw/Eq69OR7du3aThL0888cQtlR577DG0b99e6iUpDusTe12OGjVK6rm9ZcsWvPbaa1K9Bw8eLAVBv/vuO2nbvHnzpDkRn3rqKetv5sbTCje3K9etRN5FQUSRyWiQAoe5sTuxZHfUH8E9i8mAYzsWYXf8Be3u1RLa0Pidi/DZ1wugDO+BXr16oV2QBkUVf06FQUR0sar0k1hzKAcRXWvajcimIbC9ig6LJqP+yh5UCDudP7gCH436CvvO5f9x/Wax6LB7/jRMXbYZ6cVaa+4/MwvtqUloT/06PIuJ7zwLD7UCBQmnkGJuguGvvYi77hv8Rz4RXdoNHc4sDvu4nnkYRFc77OOKiU9x/4suyhcc969VEBebEF+LC9H8N1Ujutk4nPnfcyXDmUViDz2lMhA+PnchJKSZNJzvmocz97kPAR5VWDFvKU6ejcKJmFicTjHjngfuhn3uScxdvQcFGQk4tG8f0nT28LWrxtG4VHRo3xWOKgtSju7BWXkoHugXjoRtS7HnZAwOnorFyZgkeLfqLQ1n3rZpCzKyi3B43xbsSTbjiSHPoHWTUFSc2oB1x0/h2N7tOJWnwYNPPwI/eR5+OxIrDWeuTtmDWEs47mruL1ZYKOcIAu/qjiZuSuxcugxRZQo0bhQEZ82/O0SHqK64eDizuLBKmzZtEBbWHB4eLdCv3wMwmbqgW7eh6N79fqFNuRfz5x/F/v0ZEE5p4U9ftGz5s3Dz2Fca7uvq6npLJnFeMpHYlonfL2LbuGzZMuk754MPPpACjOKciV27dpWGIYoLr4i/BzGAKH4/ifMh3ozhzLqSTGw+cAydu90DT3sForbNxbzlW3EmrRSZ2Vlo3qWn0K4ewe58DzzatVnN9aLZhFO//4pKvz7oGmyDE9tWYfGK9dgbnQP/hsFwtlEIN9+r8MOitTgVVwi/8Maw0xdh+449yMuKxZJlh6F2KMXiBb+h66CPMLBbOAID/BHUtAkCXBygzTyNDb+fRWrsbmw/WISQiPrIOrwGPyxeg1NnC4TywuAkq8LJ2uPuPw+XRg2E+mukBbOI7jR30nBmsX3YlKjBsCEPISwwAF5uzhCfF4s9FH9esBBbdpyA3KcB/F3tIDNU4MDmX7Bo5SbsO50Bdy8H4bo1Cs6owqrVG3DyTAWCWgTDHnpE71qDhcvWYs++RDg2DIGXgwap8b/jXGYF7LwaoUNTfyiE9k+XtR9fL4mD1rYKd9/VH77OGqQfWye0d2uw98hJmFyDEeRhL32GuN3zhfZ0M06cL0VWdioate8JH30yDmXoEaTMw7yf5mPnsfPQGZ3h51WBqGwjwgK8oDBVCfVe9ke9vYN8hTbwNyz6RaxfAhwbNICXdYFAorpGPDeudThznQ0imvWVSElORk5uPgoKClBaWQ17Rycor6CdNOrKsHrRNJS5toG/i9qa+/cMZTlIyy2BncNF5RvKkJKWC5WdA9RXcGCzvgprf/4KJ6p9UU97GuNmLEJgq7bw0FRh7+JZmD77FxRVa7F4yaqafNsbEDwluoUwiPjvuVQQUWw7xQs/MVBYm8Q5ZoODw4QLyxDhIrdmvlnxd38pf9f+ahy90CqiJerX84JHYDjahPnDO6Ahmne+F08O6IwGfp5w8qiPNi3C0VD4ThC/F4Lr10dg/SCEN24CXw/h71u4qPUMboiWzRrAz7s+WrZugXpefmgU0R6DHr4bEY2DICtJxPFMDZ4ZeDcaNGqOrnc/gLbBrlDZu6Fp29bwcvVESMOm6N7vQbQIcJKGU7dq3gpB3h5w9m6Exg1C4Gon1F/tgEatmiMsyBsOzt5CvUIQ4FcfQf6eUP3NZye63V0qiFjb/jYQbozEwFlISANpbkDxJtTd3R316/eBp+cTwjk9DM2aDUa7dh3+tv24FdV+jh49ekg39he2f+L1amhoqLStvtBeidvEhWdufhCxLwp+n4PZv55Dp4H94VJ2Dqs2n8NdD/W/TBCxN4Ir92HOwihE3tMPXmoLPAI8kblrAeYfyEPXnl1gOX8YG+NMaBUkx3dj38VheRge7tEWyDuBo+neePbxnnBU1fwuxLLFucAKT6/Fy+MWw7PNXejWPARFJ1Zg4b5ca3lHaspr4Ijk5FR4h7WGU9FB/HK6En3ahUNZh/5dEP1b7rQg4uqDaQgL9UZVUTEMMg0sRWcxY+YcODTphnb1dPh1xQEEdY5A9M+T8csZBXr06gBbnVa4Z1dh36pvkOfSAXd18Mf+RYuQ5tkSbT1liEtKhmdoK7iVHsbiI0Xo2aEpsqL3orJ+JFRnE+DTuT08lEYc3bARFQFhMBYno12nu1F59GfMXByDlgP6oIFDFX5ZugEe4a1RfWIhZi6MRpv7+sPHlI41G2PR6V6hPU1agy/2leKRbm2gy0/E+WIP3P/o3bDL2oQvxfyuTbDvp0lYekaO7r06wk5bBQdHWxQX5sJdqJ+7UL9FhwvQq0MzaKyjbYjqkusJItbZf/FV6Sfw/ttv46t5C7F8+XJs2P478q9w5IXFZERe2hmU6a5sQFvyzm8x4PHh+C22ZsherXM7ZuGZoW9ifVSuNefyxMlcCzMSkFumg42zD1q3aAI3ezUqs45g7fpUPDd6Ku7t3PyPfCKi6yHeCIoXfhen2oCi+PO1XFwqNPZoKNxkK+TCjaZCg4CmkWjfLhIRwfUQEhwIWyFf4+KLyHbtpaGEYgqr7wWV8L5AP7+aiaplctjXC0J9LycIpcDFtyHaCftFNgmGu38j+IlProVjyeQ2f5Tf3F9c57nGH+UL+Q08baU8qV5BNfWy96iPYI+afGED6jcMgrNwkSeT19Q3MqKhVE8iunJicK32nI6IiLDm0r+qOh97t8Wg6WMv4r6OHdG3T2+0buJq3fg3hBsBi0GOomLhRrgI6HlfHwTb6LBt/TbEJWfjyJ69iEmLx9kTe1BUZoLSviEGDLhHaD+bwMmiF9pFO+G74FLtoRx+Qe3x6EO90KqhBnvXb8XZ2vLS43D2+G5UKLzQrkVDnD/5O6IS03B6UxT+nJCCiG5fFhSnRmPt8hXCvfhaHIrOQMrJrdh6OBNJ0cexO+Y8MuJ+w4nDB7FmZyEeeXE47u7aBY8/MxBNAzxg26ADHn7gAXTpdB8e7R+C+Og06J2F9iQiFKlR+xB9PgNntsQg3WyRjmbj2xE9mhVj++EsaEuycCijBK2bhUIhNl26Qmxffwh+/Z7EA106o3e/+3CXYz5+P3AauzefQMP7n8cDXTvjrl59hfbUXSqvltLeA2EN68PTKxjNmwehdh1qS3EUVu8oxMMvDEM/oczHnh2Ilk2bCO1dI6SL9UvKQKxUP06QQ3eeOh0213i3wKsffYrRo0fjzWFPwt+pprdf8nnhQulsAnJKdbC2OyjPz5CeBp1NSEKprmZ4n6E8B/FxQt7ZdFSaahqAqmIhT9zv7DkUVFZLczVYFApobFWI2XMUWmNNgWZ9NrZuz4RRXQmj9SBij8Wa8s4io+jPiKa2MLUmPykH1dbjaJx90K5rN7hYqpF0NgnpJQbkZOVD7lRPyndT1fTgLC+4oN5aAyovUT8iotuR0kZcZMVVGrZCRHRHqK5GYakCrt720oMUi3CpLrOYpE0KpQrmSh3+nKSiGvoqGTRqDXxb3YMPPhkBRP2Ep1/7DKdSS1BZrUaTjt2k+cruf+p1jHpnKHwchUt/Zwe42qqlB032nm4oS4lFXpnOWuYFxAdR7i5wFHvZmEyo0onlda0p70mhvHeHwpiwGu99sBDqoJboFtkUzjZKXpsS3RFk8Gx6F94dNUq4F38fA3uEQaEzwjGkFXr16YVed92H9z6bjl5eeuQZ7OHqpqx5OCwT2jShbXG2t4e9jdhpRvjZzgHa0gpkxqzDu+/PB/yao3s7oT2x/bM9Ed/XKLIvyqL34tTpI1DW64Bmfta5vU1GoX3SwMHNUVrET2gsYWdngb60HPlFCth7OUvBRotwXHH15StSWox8g51Qb5XYFErHLzi7Ae++Nw9m32bo1q6ZVD+GEOlOVKeDiCKL0LKIXTHFP8Xl4ves+hbfzJ2PpXO/Exq0uThfqkVJ7BbMmDQR3y1ahu+/m4utx5JRkZuM5SuWYeHSuRj70uuYty8RFqMWUdsXY/7C5Zj71XR8/M2vKNEahd+SBg07dYLh/DFklYkTt1qERiQGWV5h6NKwpnt3ZW48vhkzFtPnLcTSFQsxavoPOJtdIeXP/PgjTPvpZ6xbtxyHonOk/YsS9uDjL75Cbl42ok8dQ3JWHH7fvh9xZ3ZK+QUVeqHeWzFTqPe3C8V6/4Qth2JxescSqX7zvv4CH89eUVM/IqLbjhzeTfrho3dehmftis9ERLc7OyeEN5Dh5L4YaM1mZMcfwuH4mhEv4pBhm5MHse18sXTtmx+/BVE5gejZIgAVJZlQeLXGq299iA6GJBzKMqNNc0cUpmqFG+9INAsLhpNCBbnUbaeWHL7hPdEpIA9z561AZpVZKrcqMxHnCsqt+1jZuaFNhFBeShVCa8uTy1GSmogK4YZ6QK8OkFcWoqL8yhc4IKLbiNC0uDVsApei81B5hyGyXQRclHZwCGqKFm6x2LY1ATqLCVnnk5BfWvn/DxuEtqck5RzKPBtjQO8uUOlKUF5aZd1Yw7NBM3jqM7Bq9XGEdmkH+9pZ02yc0TpCgWOrdyDfYIS2OBOH0+UIjwhGs0ZKRP9+EuUGE4rOHcbBs1nWN/0Dr3C0dD+L7dZ6Zwv1Tog6jVKPRri3TzeoxfqV/bV+RHeKOh1ErEjei7Fvvoznn38BE2b9hozzO7Fk+Qm07PMYnnzuUQQb92PfmTis/OlXKFo/j8njRmPKhA/Rr1UgTGontOz+EMaPnYQPXmiBvTtjUCFXo0nnB/Dc4Cfw3OO9UH7wCOLLaxoHe9+26Ntch9/j8mA26nDi9Cl4h7aCi43wKzTrEb1tGaLkzTD2s4kY89EHeNAlFb+sOYTT+35DtmNnjJvwOd57eRAaertI5YkM4rw4LgG49/770DKsC4a89gSCbFRSPox5WDV3BWQtB2HyZ0K9J36Efm0aolmn+zFIqN+zQv0qDh1BHBsvIrptyaS5wy685SUiuh3JlTbw9/GGSuOCXs8Pg+f5X/HisOH4bl8+ukQ2g41CDueQbnjvtS7Y/flrwrXv83h7xiF0G/4KIjyBwsQDmPTmCxj6+njkB3bDXW3D0f3Zj9DCtA2vDRmCEaOmIqZYBoVCDV+felJ5IqWjL55+/xN0sE3CWy8Olcp9efxCZJQZoLRzQ30f15qePUoHdHv2Y7TCDrw+VChvpFBeiQKh7XojVL8Lb7/5KQ4WOiO8WSA4ozfR7U9h54JgHzco/7hIk8GrWT+8/kQYfpn0CoYI9+dLDqdAYR+IwW+9DcPBLzH8+SEYM3cDig1qeHl4QWmdRkHl6AUfd0cEtOqFMOzHuyM+wN5sWzRpGQSxr6Ktiw/cHISfNG7o17kBfNv0RJdgZ8gVKvh5+0CtcUDnZz5F//qpePfl4Xjt01nwGzAM/duFoeeQFxFashVvCO3blC1paNsqAnZKOdQOHgj2dJJ6RSptXeHtJZQnVOePfPsADHrrXRgOfSXVe/Tc9bBtfBeayA4I9XtfqJ8NmrYIFurHq1S688gs4iPHf8miRYvQs2dPaa6tM2fOoFOnTtLP10qsmlarlSa0vljF+d/x0ucb8da4D9DU1Vb4JApUHv0Jd7+zEd3vaQsn4XyWKTVo0z4SG77dgIGzxqGPT02XZ0NlEeZMexUhj3+Pu8OcUPj7HAyeo8c3cx7Aoa8W4UhRCWz1Jdi2vRKfbZmFgKPfYlJ6B8zobcbnS9Lw8pAW+G3pJnR76kWsnTEYgQ9+Aefff8BB/4EY/WxHaGBA1LopmLfPC5EOiTgT/BBGCflKXRnmT34HZR3ewRM+5/DavAP4Zuxo2GZvwTufHsE7c8fDLXkDXhbzXx2IsR8uwoNfj0Nfn5qVBU2GTKz6ejGOFBbD1lCK7dvKMXbzbPSpV7OdqC6pPb9jYmKkRUDEL/ENGzZg6NCh1j3oaqxYsQKRkZHSIginT5+W5iwT5zy8VuLfjzgx9/W04UR0axLPb3EybXExK09PT2kRgDVr1mDYsGHWPUi0bt06hIWFSYurnDp1SrquFX9X1+py17Uio0EvDVkWh86ZhJ8NJuESXbhJVsrMws2ysmY+WQhtc3U1xE3i3LJqtaom32JCdbVB6t0j7qtS1QwdNBurobdOxaNUa6SbdqPRcEF5VmYjdHrr6BZruTKhNL3BLPxcU5bokuUZqmEUKiSWaTFboNIIdZL2ILqzVFVVITExES4uLtLK8CtXrpQC89e70OiVEBdAmTt3LgYOHIjKykpkZWWhbdu213Vs8XtCvBa8VLtnsZhhMJr/aGtqifl6vV74U3w4ooJaWXP8mjbNLLRvcqiEa0uLSS/cvqulwJ3Y/ojNj0poa8zW/cT2RJyXTCm0JzKTAQaLQlrIVCzfaBL2tS5qKrab4nHE9swi7FdtqBmurFQJ7ZPU81r4vhM+g1imOMxZJZMqJuwvtKVC/dVC/cX202AQjiUcX2jE/swX/LXeKliE9vOP+gkfUim2wdKeRHWL2GaI5+qRI0fQrFkzFBcXSwslP/TQQ9Y9/l7d/jcvnMwaG43UsNkIDYzSoz4aedfDg8M+xKjRI/HmSy+jb7sGaOCehrOnc6QZEPS6KmiFiyzp7dYmTwxeiI1Ueex+rNhbgKffGY03Bz+IQNeaxqOWc0ArtPPKwcL5a1AZ0h8NXKxNplwOTx8Fsk5Go1QrNFDmamRnVcHV1wv1fOxQmpIFrXARZq7Mx/m0zJr3/BN7FzTwSMfZU3/WO+/UHqzYk4un3hl1yfoREdUSF0wRLxyvNdUuunKpbUxMTHU7iee3dO1DtxSlqmaeQvEKVSHcAEvXtyrx78saKJTIoNII+dK1r3gDbs2XKYRr4pp88ea3dm+50lqOkGp7/fy1PCvhprp2v9pyxZtmzQUBRNEly7PWVTyuhgFEojuC2D5c2NbUktoNaxtVG0AUKYT2TczTSO2LGM+zBhBFQvtT+7Cidj+xbLW1PZEpxGBkTcsiBfOsP4vEdrO2PRP3E98rppoAopT7R5k2QpnigxpxAb7a+tfsopACmOI7/pIv+Gu9/yxLqh8DiHSHuq3+3dvX74THO6vx0/i3MXHSZ5j682/IV/jigWefQOKvX2LkpAmY8MU3OBaf///zMAhUnqEIsDmLH6ZOw5wVW5Fd/Od8g2KjItc4oF1EfWSkqdDnrrCa4R0ihQ2a93sO7ZTHMHnmJIwbNwZbMx3R/8GuaN23D1zSVmHq5In47McVOJFx6elXa5u5P9gH4IFnnsS5X7/Cp9Z6nyp0hr9tPH6cMh0/CfXLuqB+REQXEgOAYqDgWpMYaJCGeFxiGxMTU91O4vlNRERERHS16uxwZrO+EkmZRQgMDpDmSqhl1JYhIT4W4iJzDvWC0CzYGxazEYVpsTiXUwWFjQNCQ0NRXZAIm3rhcLZRwFCWh7PpRoSFe6FM3C+3Gg5uvtBYjPBuVB/K4kwkaZ3Q1NdROm5WiQ7+Xu5Sl+ns1LPQeIXB3UENbWEaTidmQaZQwiskAsHuYs3MwrETkZhVDKWLN4Ltq2FwCoSHxoik3BI0qh8g1LkI58+VIrBJMFSG8j/yxXoXCfVJlOptL9S7MUz5cUgU6mcv1M9WqF89oX7WdamI6pTa85vDmf8dFw9n7ty5MzQajXXr1funYXdEVHfVnt/x8fEcznwZN3s4MxHVbXfScGYiqtvuyOHMcrU9Gl4UQBQpbZ3QpGUHdOjQQQogimRyJTyCIqS8yJbN4GKvQb36zaQAokjl5IWIpr5Q1+7XPhLNQv0Qag3Q2br6SQFEkXhcMYAoErtM+4ZESAFEka17oHSM9pFtrQFEkRzugY2l/LZhQXAPaAxvZ1sobRylQKFIaeuGxs2DYStU58J8sd7uf9S7uVBvdc1roX7Nhfo1ZACRiIiIqE4Rg4lEdHu5Fc9rtjVEdCPU2Z6IRFS31Z7f7In477h9eiIaUZCdDVt3P9irOdMM0Y1Qe36zJ+LlXdwTUWxjr7dHkdFolIaUE9HtR+zZc/78+VumJ6LYu+h65r8VvyvEcjkFBtHtRzy/xemvjh49etU9ERlEJKL/RO35zSDiv+NmBhENZdnYvH4VlE0ewD2t/KU8i9mEmMO/QdOgDxp5XftxDdpUfPnBR2g4/Fs82NzZmktE/6ba85tBxMu71HDm62lXReLv3dbW1vqKiG4n4vl9Kw1nbtOmzXUdWyxTHM58ve0eEd16as/vO291ZiIiuumMZdlYPu9bTJj0NU7m66WFqkx6LY7vWIjobG3NTtfMApNBB5OZQ3CI6NYjPvC61lTrUtuYmJjqfrrVXKqOV5NqXWobExNT3U/XSjFGYP35uomRy+DgYOmJR35+Pnx8fKQIpzgp67UkcciHmESX2s7ExFR3k3hui12oc3Nz4ezsLDVkCQkJaN26tXTO09WJjY2Fn5+f9LRY/J2KvTuvd8ic+HekUqmsr/4kBhG3Hs9FmH8+jsQq0SmyMdQwIurAOmga34cm3jYoTz6EuQt+wY49+5Bu8UTz+u7QFqZi3d5DKE48hCWrNiPN4oEg83nMXfgLdu1Nhkd4A7iqqnBgyxao3b1xcOuaP/LdNQrEHd6B2KQ0/LZ+O4qVnvCx12LzinlYvekACuCGID8PKPlojOiKiOd3YWEh7O3tpbYiLi6O7e9FxJ6aYi9EsUd2Tk4OAgICbli7SkR1n9irp6ioSOrdLV6PnT17Fq1atZKud280sYf5yZMnER4eLtWjvLwcvr6+13VssUzxXp5TMBDdfsTzW7wnz8zMhJeXF3Q6nXQPKbYh/+SGtWhiYyMOZRYDiteaxDLEIR+X2sbExFS3k3gTxeERdZdCY48BT74E95SNWH04GWZrvig/bifGj/0e5sAIdOnYDKfXf48Fv6eisiAZi6e9h91ZGnRuH4StY1/Bq9/tQWCzNnAt24vZqw7AJLy/MisBG/dFoX6zjghSx+Dbn9aiWK9H9MZZeO/HbfBu1BQN3YxYPnsqTmr90LVtEE4um4vdSQU1FSAiIiIiIqJ/3Q19LCIGAZmYmJgulcRAItVlMmjqtcKgoV2xZ8HPiMnX1WSb9Th3cDeKg/rg6Xv7oEuX3niigyeO//Y7SqsBdUBb3NO/Hzp1vAedmjmgXuPO6N2rJ+6/OxLZSXmoEIpQeoSg34NP4p5enXHvE/fAfHA/EsT4oMoD3Xr0xz19OsFbG40V604hNy0Oe4/FIDP9APafzpWqQER0uzBWFmLr5i1IKdFKU0fcyqoyTmHV9hOoMpsQtXs5dkZnSQ+GzJUZWPXDLPy8fh8ObBXzM6V8Irr9aLOi8euWoyg3Xfh4mYhuJxz4RURE16x+ywfwQEgFZs/ZgCK9cMFotsBQZYTc0QMqpUz4lpFD42gDmbZC3ASZowPc1ErI5Eo4+/jCwdlB+iKyt3eEXCaXbpJVSgUc7OwgztSh0GhgayqFtlp4oVFL+yuEDWa9HmbXBuhxdy/07NEHwz6ajkHdQ4SdiIjqnvLMGIybNh6JeZXWnBrG8lxsXLsOycVVSN47B6MWbBba0ppwotlkwLq5n2L+gXTp9bWoLkzG9HcewcTlJ2C8IEpprsrFiqkj8OrXW/443j8pSzmGxRuPoNJoROKJXTiSkAeTpRy75s/CyWI3tGzkj4zoXTickM8gIlEdl35gPj7+aS30xr8GC6vST2DJxgOoMJmxdcGn+GlvknWLsC3/PCZM+wwxmeXWnGujLUrE+jlT8fqgwRg8eDBGjJiBRG3NFGhEdOMxiEhERNdMrnbD3cMHo975X7HtRL6QoYBfeACK92/A+fxKmI3lOH0iCR7Nm8HhChfrr8hPw+9HTqHSYEDywYPI8WmFUA/rRiulb1M0sc1Akd4XbTq0ga+TK9zsrn2CYCKi/5LJUIXzyUnCDfnfB+y0RRmIzSi2vhJYzMhPP4OsEmtP8GtgMeqQVJiJPUvWI1Vbe2wL8lOjsHXdRkTnl1nzrpxMqcZDb8zE2w80h7q6CinnyuDbuj0iGgXhkREz8Y6Yb92XiOomXUkWzmYUWl9digWFGWeRXvTngnviwnnnk89Ba7j2XoqW4vOYMWYSjiib45Mvv8N3336Ld4Z1g42FYQ2im4VnGxERXRWZ0gb+vp7QiF0CBXZezfDikIehdgyGnY0aQZ2fwxuPNcDscSMw9MW3kODUFcMfiYStjR0CvT2hkNe8z8ndG652KqnHIWxc4O/lKHwpKVE/vBls0nfhw1eGYuzmYjz9+rPwtQMcpf3V0v4a98Z4ecRTSPzlTQwbPBRTf92DKjOHyBNR3acrTsfPE1/FM88PFW6SlyO36p972BjKU7Dsi5EYPmgwnn1tAo5nFgs3+ZlY8+MEDHr+ebw+4jPsS6uArjAZM8Z/iulfT8HwFz7D/uQCKPzaoZ1vCg5E5Um9wS3mapw+egSmkJZw09QcOz9uH74Y+TIGDR6Ep94ci91na6aPyIrahnFvPo5BQlv/zbqT0JktsJgM2LjwMyw+mIZT25bgp9+2Y+GXk/H9yiNYIeYfzhT20SPt4Bq89eYrGPz8ILw1cRlyM49h8gdvYfDgIXjljc8RWy52QSeiW11e7G5MePspDHphBGatOQqd6Z96L5tRlrwPE999C88Pfh5vTliEAoMJRecPYdZnIzBo0DC8P3EJUitNKI3dhA9GjsdMoX17b+SPWL9uAbK9e+GtJ++Gt4sNbGxtEdi8DQJsZTi2eiZGTv0KIz/6GN+sOII0sbzxteUtlsoz5kfhi0/fFY47GC+9NA6niqqsdSKiK8UgIhERXRUb7yb46KN30dzT0ZqjQP2eg7Bs3rfo09hRWnSl02Ov4ctps/Dt7O/wwfCHUc9JA5fgdhj/3ofwFy765Cpb9Bv8EV7uEwZxzT+HsD6Y8HI/uNn6Yejo7zFpzChM/foHzJvyCfo08arZ//mP8Erfmv1lcgUadnsGk2Ytwfff/YBpHwyCnyNXPCWiuk6Ho8u+wMHSSEyZ/RVevS8cpbn/dJNrRurxLdif7IWRM7/D5289iSBHI/b8/BUOVEdgxuyvMewuD6xetBqFVTpp3tp014746sv30SHIA3KlIzr07IGMA1tQpAdMBbE4lGCLAb3DpekjTOUp+GHS5zC1fAVffzcbI+/1xMJvlyK9LBu/zpwNmy6f4OvpH6NroBp6MeBpsSA/7Qyyyoxo0etRPNO7B5589U0M6t8clWJ+iQ7Fyb9jxqxNuGvISMye9QWe790ccrMD7n1duPmf/SV6B6RiwerTEKpDRLcwi6UIK2fOhKzt2/jyi1HoFmQLbYXBuvVvmMqwff5iKFo9ha+/+QZvPNwOtvpszPviByg7vYzZX41DM+1hbDiQgOqyfOzbeRL1er2Az967F8VnChHSrBWc1TUPpC9UnnoaG0+W4ak3P8DQvt5Y8cWPUHa0lqc7ivX7E6DVadDvhXcx+9tv8WCzQixafRJ8XEF0dRhEJCKiq6ZUqWDtUFhDJoeNjQ2U1kwxyCe+FpNG+edXjUqlhsz6PnHIm6p2m/h+ca5E4T+l2kZavVt6v+aC/RUX7G+lEvaVjqG29mgkIqrLyvNw8LgWkQN7w8fOHr4hzdEo2Mm68e/I4ebbBPbaHZg680dkKezgbKrE4WOncXD7Erz9ymuYunQrsgqyUVVpgNK7Cfp1DIetrUYKEorvD2jSGva6FESn5SPuyD44tO6Iho41vbtNWWcQVdYU/e5pBicbB4R26gLvjGM4ffQUjpU0xj39m8PJwRPNWzYV/vzrwxyZQgW1UiG06Rqo1dbe4hYT0k4cR1lIH3Rt5gN7e3dEtAsT9rNFwm8/4OXXXseCtVHISc3jzT3RLc6ScQqH8xui74CWcHEQzuWWzeDq/A8TFsgd0LhtEyTs/gFfLd2Caldv2OTFYsuhs9g4dxJeG/ER1p2MRnpGgTQnq1d4e3Rp6itc72mglJmgq/6b3tkaF3Ts1AlB9ZyhLorDlsOxf5Z3IkooLxcGlT3Ob1+A1157BT/+egwZSTn4c8A1EV0JBhGJiIiIiG4FMhkUMjmU8prhgCajATptzSIENraOMGYVosQ6UtBiKUZZrgxerq5wa9QVY79eiMeblmPyR+OwM74IdrbuGPjSSHz77XeYM28p5k16E/4uKuFGWwV17dMZK7mrP+5t4499B37HnvMy9IpsKvX6lqhUUFoqUFU7Z6LBAKNFJWTLheqKQcOafG1VGYymf+iBZCW36FGtrYChNhZQXYBfpkzCAUMrzJg1Cy8/FCk+WyKiW53QlshlCtQsjQepvRLbLZG9ygElecV/PAwwVOdCZXCWprdpMuBVzBj/MULKNmPUx98gTSuDr3843pz4Nb777nss+nUTxj7TCSqF0M7YamraI7U9mkZ4IXrHAWn48/+Ry6AU2jepdRPaLV8/obwJf5Y37ommWD9zInaWNsLkr2bjzcc6QS2UT0RXh2cNEREREdGtwN4d7br44OCvv+L4mRjs3bUZe+JqVmz2bdsTjcrPYM7KPYiLi8OuNUuQ6tgR/Vq4IiNuF9btiodHSCc0d7Ug0+iMXne3ROzqZTickoSoE4dx4lQKjH/bZVuJgI7tUbVlF0pdgxHsWztdBaDwaYuejSuw7KeVOBEXjW3rtqK6dU+0axmOFn45WLZoE6JPHcSGbXuRVfzP8zdCpoB/m27wydyCNTv24cyZo9iy+RjMtloo5SZkxh3Frt/PiOvGENEtTlYvHG0blODXpZsQdfow1m7Zg9QCgxRcjOjaB7k7VmLz3mM4e/Ys1q7aAJ+29yLYVY99Qtt2MqkcERGd4YxK5Du3Qe8WcqxdtA4xKYnC9gPIzC+1hiZradD0/ufRzuYUPv9iPg5GxSFOKHfvb78hvvSitqdeW/RuKce6xWv/KC8jtxQajU6omhE5Ccewc280jCY2NERXSzFGYP35ukVFRSE4OBgKhQKFhYUIDAy0biEiurTMzEw4OzsLX+gyJCQkoHXr1tYtdDViY2Ph5+cnXBxpkJubK7W/SuUf/UiuidFolIYVE9HtRzy/xWs1e3t7qa0Qg1Jsf/8qPj4eHh4esLOzQ05ODgICAm5Yu2oxmyFT26FJWAQatWwJTc5J7DgUA7N/WzzQuQkah4fBy80fbdsEInX/bzhw8gwyjYEY/MLTCHZWQ1eQgj2bt+JkYjZCez6Kh7o2RUBYG3gYYrBj1wmkFeoQ1q4z/JxUsCg0aNi4MdxshXpYLNLr0OAQODp4CN8dagQ07YIgVw3MZhM0rvXRMjQYzdu2hS51H/YeOI0qz7Z46dn74OnshvCIIGQf3Y5DSWVo0qE3WjRpjOahvpAL7/UKao5gD1uYzAp4N2wMP6FMk0nMj0CTRuFoG+GNI7/vxsmoc3Bq2gP3dw1HwslDiMlSoHufzggIaYwmwR5/9ogkusUZDAYUFRXVTLMiXI+JgbNWrVpBLr/x/XYswrl88uRJhIeHS/UoLy+Hr69wLl7HscUyzULbdKl2z2IywsY1ABENGwntQAPkHhfagXNFCGvfC22bhSGicSC8AsLR2t+IA3v24ERULFTBvTHsyZ5wUlpQkHACO/ccQEy6CQOeH4yOIfXQuEUEqs7twP4jZ1Fq44U2LZpAnCFB4eCFZkJ5GrGntsYZkV3aQ5Efg12/H8aZM7GocGiITq2CobCY4ejdEI38XKAQ27WIFqisLU/jiTat26BZuD9SYg7jRKoFne/qgsAGjdC0gRd4tUt3GvH8Fr+TxXtxLy8v6HQ66R5SbEP+iUx4818D/Ndh0aJF6NmzJ9RqtXTh1aVLF+sWIqJLO3LkiBTwEoOIGzZswNChQ61b6GqsWLECkZGRcHR0xOnTp9GuXbvrvmgVb3av94aZiG5N4o1hYmIiPD09pRveNWvWYNiwYdatJFq3bh3CwsKkQOKpU6fQqVMn6Xd1rcRLbq1WKwUliej2U1VVJbWrLi4ucHJywsqVK/H8889LHWxuNLFNnzt3LgYOHIjKykpkZWWhbdu213VsMcAgBiSvp90joluT2Gbo9XrpXrxZs2YoLi6WOgU+9NBD1j3+HoOIRPSfYhDx33FxELFz585SW3w9xJtdW1tb6ysiup2I57d4rcYg4t9jEJGIrgaDiERUV1xPEJFzIhIR3abEwOy1plqX2sbExFS3ExERERHRtWAQkYiIiIiIiIiIiC6LQUQiIiIion8gDkcWh/ddaxKHDl1vGUxMTLduuhkLqFyNS9XxahLbLCam2ztd68yGnBORiP5TnBPx33GpORHFlQGvlfjV8G/M3WUxm3B8/3oo6vdCq0Anay4R/Zdqz2/OiXh5F86JKM4T1L59++seDi7+7jmknOj2JN4Dx8TEwNnZ+ZaYE7F58+bXvTqzGGjgIntEt5/aMODRo0e5sAoR1S0MIv47bmYQsSTlKL5YtRfDB7+CALeahVfits3C8sLmGPVEd+l1LaOuAt+MfRKKvrPwas/61lwi+i/Vnt8MIl7ehUHE6OhodOvWjQFAIros8Sb8VgkicmEVIvo7XFiFiIhuGlN1BRJTUmG64BFURUEKzmSWWV8RERERERHR7eaG9UQ8fvz4dQ+DI6Lbn9gbpmXLltLP7Il47W5mT8TC+F14bfZqTBo9GUHuNT0Rjy19F1OzumPpiL7Yvngm9ubbQZuRjSY97kfh4QmwZ09EolsGeyJeGfZEJKKrxZ6IRFQXXE9PxBsSRHRwcJAaHSKiKyFe4Oh0OgYRr8MtE0R8/S6sGPMUvinviyXjnoWryowfJzwDJYOIRLcMBhGvDIOIRHS1GEQkorrglgoiihO4sgciEV2t6upqHDx4EMOHD7fm0NW4pYKI095ETMiLGPVEG8g4JyLRLYdBxCvDICIRXa07JYioL89Hts4GgR6OQrtozRSUntmEqdsq8OarD0NdkgGjnQ/c7NXSNrPJgJyCQnh6eEGluLZZ1UzaEqTmFMHLLxgO6gsObNIiIzUHtl5+cHeoOd5lCd+Dx9fNxu+yLhjUyQnffvkdugx+H10bOOLMpoX4fvlBNOn/MPJP70b3Ie+jWwMPsPWn28ktE0QUK5CdnW19RUR0dVxcXNC9+18X5qArczODiGVJB/D6yLl4fep0tPV1FnK02Dz9TWxyHoSZz7XEii/eRlzoy/j44RYMIhLdghhEvDIMIhLR1bpTgojnfvscn570wYL3n4Va+WdAsPDwzxi+uASzp72CPTMHIanJSHx8b7i0rTzrDN6Z8iVefGsq2tQXrx+vXuHRhRj41iwMHLUMr/YNQu260cUxK/Dyhz+hyfAZGPVAzfEuS/ge3PXjO1gjewjjHmuIres3o2nvRxDunIqxz89A5Kgv0LVeBbb8tgVNhPwm3k4MItJt5ZYJIhIR0X/jZgYRzYZ8LJk0Cccd2+Kl/m1QnnMWy1duw90jJqFngJJBRKJbHIOIV4ZBRCK6WndKEDFx00S8f9Qbyz4ZDKXMhJz0ZJTr5TCn7sAn63VSEHH3tCcQ32QcxjzYVHqPGEQcMWEKXn7vK0QGqJGRkoFKoxlKe0/U93OFwmJCXlYaSiqNsHetB19PZ1h0JUgvMsJGVoEKrS3sCzbjsclr0K7RvfhgzBB42chgMVdg49fTMHv1BrQZ8TPGP9RU6rGYkpEHo9kCpYsvQrxqekzqKwqQll0Ik9wO57dMxxbVw/h8SAcUFxTCw80dRfGb8OkHq9Dzw5G4N9IflaUlf/ScNJTnIjmrBBaZHK71/OGm1iItPR8GixxOHj6o5+7AVWupzrieICL/nRMR0VWRqzzx6Dvvo6d9GpYsWYL1B9LQZ8gH6B7iJGxUIKxdb3QK9ZS+YGRyOVp3fRAtA4RtRERERHTbsAj/Ra2fhZGjxmLeL8vwy4b9KCozWLf+HT3O716IqdPmYNHiJZi3aAOKTSac2fYjpn45Cwt+no9Jn32LQ5llKI5Zj1dffQVfzFuMjduOo9RigUdoJNyN8TibXiQcHajMTcHpKnu0bekFhQwwVBZhzVefYdqcn7B4yVx8PmkC9sbnCfnFWD7lI0z+9lssXrYUa3clwGSyoDIvEWMmjcSJhDScPLwf0Qkx2LZ6C05HH5fyT6WXQ5cdg1njx2HKjwsxV6jf8s2ncHbPMnz302L8LBxn5PTvkVpaXfPxiG5zDCISEdFV09h74/4XPsTYsWMx9qM30KdlIJTChZtcqUGLXo+gT4QvxGffCrUduvQfis4NXWveSERERES3B915bFh5BN1fnI4JIz/AM3e3hKPNP/R+NFQh+kAU7Jp0xStvf4gPXrwPLmWxWDB/D/y7PIpnnnkUrZ0TsPdwHExGM4x6d9w75A2MeKk/POVyaFzqo187Txw7HQu9yYLkEzth8mmHYE9x9IwF2SdWY1W0HC+/+xnGjRmPl7q5YeWibYg7sx37k1zx+kdTMPa9l9G9uR8UYtRRYDRUQ27njn4PPoLOzTth6HvD0drfFSYh32yuwO/L5yHXszemThyPCWM+wdN9miG47f144eXBeOaxu2FzLhoHz+XCLJVGdHtjEJGIiIiIiIiIroolIxFRFaFo1cYDCpkSbu7uUKn/IcSgckHnhx+AS/EBTBz3ERYdTYclPx3Hk0sQd3gjflm2BqlyPwS4O0IuA+xDGqOhxwXT68gVCO/aC1WnjiC5MB2Hz5Shz13tYCse1gKUZ+ZD2aADAj3UgFAn38YBMKUlIv10ErQh7aV8mdIBPt6ONeX9k8oyHI+pRkjnFnAWilSq7ODqZsTh1b/i21mzsHj1JiScL0al0WR9A9HtjUFEIiIiIiIiIro6Lh7wUxciN1cLi9mEjIwUaLVVwgYZ6rkFIOnkWZSYxP55FuSnHoUtQuDuZAfbwE54+4NP8cYDTbD/519wxuKBiPpO6P342xg9dgw+ev8DPNK1MeRiFFEm+79FTeQezdCvrQ2W/LAIBb4d0MLHOg+4sKNdPTfokk8jp1QM6plQkJQNhZc/3PzcISvIQrnWDIu+AvHJaTCbr2B5CJUGgV6lSDx2HjqTBWaTHhXnjmLx2mj0eulTfPrGcwird+3zkBPVNQwiEhEREREREdFVkbmFo2+felg6aSQmTZuCX3afRVm1Ugr8tRrwBALydmLauPGYMnkKpi06js5PPokA+zJsXTob4yfMxKpNZ+DUIAROvq3x6IOR2PTVhxg/ZRLGz1yA8zll0pyHlyRTokHzliiNzUdkh+awtQ5LFqOIPi3vwT2B+Zg1dRwmT5mAeYcq0e/pe9AsshMaKY5j+mdjMGXWdzieVC7t/480bujz9HNwSliJz6ZPwYRJk7Ep1oKIBmVYPecHfDFnNRKzddadiW5/XJ2ZiOg2cPHqzJ06dYJKpbJuvTY6ne6SK/IRUd1XXV3N1Zn/AVdnJqKrdaeszqwtzkByhQZNAjxhrC5FYswZFJs08Pb2hM6gRqMG3lDCgvK8VMQnZUFvlsHGLRARYX5QWozIS01EUlYxLDINAps0g5+zBia9FklxJ5FfAWhcvNGsURDk2gIk5pmE8nyE8gBDeT7OlcoR7u8Oi7Ea2fkFcPf0gUYpQ0H6WVTZByPQzVbYLw/R8cnQ6c1wq98EYX7OwrstqBDqE5ecBYONB4JdZajSeAv7K5GSlg7fgAawkwl1SMyFZyPhZ4sWybX5agXKsuIRk1IIucoGQY2bw64iSXpt4+wLN40J9r4B8LRTS78folvd9azOzCAiEdFt4OIgYvv27a/7olW8cLzeQCQR3ZrEm8OEhAQGES+DQUQiulp3ShCRiOo2BhGJiO5wFwcRO3fuDI3m2udnEb8atFot7OwumMiaiG4Ltec3eyJeHoOIRHS1GEQkorrgeoKInBORiIiIiIiIiIiILotBRCIiIiIiIiIiIrosDmcmIroNcDgzEV0pDme+MhcOZxaH+/j7+1u3EBFdWnZ2Nho1anRLDGeOiIiAXH7tfYbEMsWkVIpLmhDR7US8FhTbpoMHD3JORCKiO9HNDCKaDTrh4jQDVdVm6bVSYwtfvwDYXME1prjy3pZl02HT4U30CnWw5v4TE0qEi+H8Ci3ELyy1rTv8A9ylVfqI6OoxiHhlaoOIXl5eKCkpkX5vRET/RJwTUZw/9b8MIhYUFKB58+bWrUREfyW2UWLbtHfvXgYRiYjuRDcziKjNOIHX3voY8I+An6MNHL1D8MhTgxHsYt3hMozVFVg0dSgc7/seD7f45zdYLGbE71uEeauiILexg0ophwxeeObTVxB67R+P6I7GIOKVqQ0i1qtXz5pDRHRlxKDefxlELCoqQosWLaxbiYgujUFEIqI71M0OIr45fhGGjh6Ddj5O1tzaHoqZqKq2wMnLF17OdpDLgKribGTklwNyFdzcnbFh9suw7TUBbbzEYTJ28GvgC3uFHLqyfGTmFMMEJdx8fOHuqEbB0VUYO/8I+r/yDvo1qSd8aZlRWZgDuasvjKU5MMsVKCisgEs9H7jaAtmZFx3fVIn0lGxohYtrja07/NiDkYhBxCu0Y8cOJCYm3pQAABHdfsTVjYcPH84gIhHdshhEJCK6Q/3XQUSL2YQj62Zj+cF02AgXssWGQLwycjjql5zE7O8WI1XuARuTEc273gft3vdxEL0R7FCJ8/sT0fLtsXjv7jCcXPcNlh4qAipLUOYTgc9euw87p49FUosX8eHAFlJAspbZoMXKqS/i+0QvRAZ4o8s9D8Il9zesOpgmHN8iHD8Ar3w6DL4ZOzBz2RFYhAv47JwyPD1qDHoGOltLIbozMYh4ZcSbcqPRaH1FRHT11Gq19acb6+IgYlxcHHx8fKxbiYguLTMzU7qHZBCRiOgOc7ODiC+9/AbKnEPgrFSjftMBGPa4Jz5/ezbavvIBOnmbsHnu19D0fxWue+fjjO+j+HBod6iMlSgvq8KSqc8ir+0kjHk0AmdXTcfII36YN+kpyHNTkF1lgTEvDtNmbMAz415C9Ixv4TJkNAa1/+uFsBhE/HXcMKxWP4w5nzwEReZ+vPvWbLR++QN09jFhi3B89b0jMaS1CzJLK6AvK8Wu+dNxvvELGDesM2yt5RDdiRhEJCK6vVwYRBSJ87gSEf0Tsae0i4uLNI8qg4hERHeQm94T8bOf8fSHHyPSW+yJqIAhdhn6vLQE7ftFwkXsMShXoEXHbjj082p0Hj8aD4a4S++tnRPR/t7v8WhLF5QfW4Knp+fgq0XPIPrbRdidng0bsxa/7yjAu8tGIu+rqSjt9xHeGdBYen8tKYj4xds4E/ICPn20FaqPL0bvlxah3YXH7/80Ghcdw/JtB1Ft54i84ydg3+9dTHmjF/7/UxHdORhEJCK6vVwYROQUDER0tRhEJCK6w/zXw5mrknfhlbfm46kZ36NPsBpVJZVQK0vxw8fvoKLHJ3hnYASg1wllVmHl1y//sbBKxfGleGpKFj4f1xjj39mCN+ZORpOy4xjx8vd46MfpaBi9HJM26PD+5FfR1DrHoq68BFBrsG7m24ht8CI+eaQlDMm7hePPxZNf/IC+IcLxS4XjW/Iw5c2xUD32Id7q6YXFn76DY/UHMYhIdzwGEYmIbi9iEHHevHnSn0REV0ucviUwMBADBgyw5vw9BhGJiG4D/3UQ0VRdia3fj8LyGC0ahfpDC38MHf4oLHGb8fXcHbAJDYSNEWjdeQBy946D80VBxKlf98PCdz9GoX9HBNuUYsvqJIxY/Q3uqWfCb9/MxIYUPQL960FtEQqx8cajQ57A0W//DCLK9eLxR2N5dJX1+H4YMuhunF38GRYme6CZnwOSd+2Cpj97IhIxiEhEdPsxGAxS+05EdC1kMhlUKpX11d9jEJGI6DZwM4OI4lDipLRc+AXXh+0Fq52IQ5UTYqNQogXsPAMR0dBP+JIxozj9DOIyKyBX2yE0LBymgngovZrCzU4BU3k+YlKqEdbUB5XifllVsHP1g4PMCI+G9eGikIsF43xCLHLFgmVy2HmEoFkDd5RlnUOVXQD83Owg1uJSx9eXZOJUfDqgcUMDLyUqFJ4I8naS9ie6UzGISERERETXgkFEIqLbwM0MIhJR3cYgIhERERFdC7n1TyIiIiIiIiIiIqJLYhCRiIiIiIiIiIiILotBRCIiIiIiIiIiIroszolIRHQbuHhOxPbt20OpVFq3Xj3xq0Fc5U+tVltziOh2IZ7fJpMJCQkJnBORiIiIiK4Yg4hERLeBi4OIHTt2vKIl+i+nurr6uhZnIaJbl16v58IqRERERHRVGEQkIroNcHVmIrpStec3g4hEREREdDU4JyIRERERERERERFdFoOIREREREREREREdFkMIhIR0U1VWpgFrd5sfXXzlBfloKRKD5O+CumZuag219ShurwA5xMTkV9S/pd8IiIiIiIi+hODiEREdFUM5bnYuPRbTJs2TUrfLViO9DLrxn9grK7AujkfY2t8uTXn8ipSjmLpipX/V765IhUrl6zAqSs8sNmgxZZ5n2P2ljgUCGV+8sH7OJ1bAbMxG2u/HI+vf1iBvb/v/COfiIiIiIiI/opBRCIiuirG0kys3rQfDiHNpFWgWzdtDOerWMPFZNDCaL6yNb0K4ndj5GdT8MuuWBj+eIsJ0RsXYMaP3+P3xGJr3j8zG6uhN5rhVL8NPh75CZp5OaA6Lx77jxvxzAcf44G+d/2RT0RERERERH+lGCOw/kxERHVUbGws/Pz8pBWZc3NzERgYCKVSad16bYxGI1QqlfXVn4xl2dh66DwGPPMsOjYJhZ+vNzTCocQeiptXLcS6LYdQJHNDoK87lDIz0k5uwY+L1+DA8bOwONZDYfx2GGy8cXTHeuzZlwqPsBC42yiRG78fC+cvx54DUdDa1UOAtzPKU49ie6YZ3iYLWrVrCTuVHMbyVPz8yz7kV6WjYfuH0D7YBRXCfj8vWYFdew8g3eKBZoHuUl3zYrdj0S+rsDcqFxX5cdB5d0B7fxmOxyfDy0GDXavm45fNp1FusIVvoB3Op2bAzycQtioZ0k9t/aPecPWDsuA0Fgv12y3Wz9YLAT7OUEhHIap7xPO7sLAQ9vb2UlsRFxeH1q1bW7cSEREREf0/9kQkIqKrpy9FatI5JCYmIi2jCPqqAiz9ZhqOlbojspkvjiz5CXuT83Bu2zzMXLgPPhEd0MjPGeU5+SjPSsDG3SfgHRoKc8J6zFx2ACajHkU5mXCP6Ihm/jIs+fl7pBRWCQdSwLdpJwTq0xCdKfY6tCAr7izg3QgdGjpJVSmI34OJY2ejyjMUka1DcXLt91iwLxWF5/Zj+sQ50NYLQ9tgBeJisqT9tQVJ+GXdapRbbNGwUSgC/eojIrIZHPTZUn6JVofz23/GjAV7pXo3Fupdmp6FguxMuAn1ax4gx5IF3yOpQKwfERERERHRnYFBRCIiumq6wmRsWrEUCxYswYZtUShI3Y/la0+hKDcFR2MSkJN5EPuPnMb61YfR6IFheKJPF9w/cCDu6tQYGo9g9H3oKdzbewCeebIbMqOSUKjSoEGLTrAtiEJMYjJSDyQhvlwrHUvhGIi7u3tg1+Fz0BmrEXv6d3g07woHlQww63Hu0E7k+/fGcw/2R/fud+OJ9u44vmEnTh0+AG3IvUL+AHTt0Q/d2gZJ5dWSq2qCiB4O9RAR2RQuCutXojYHG9YcRKP7a+p938CH0bdHBBoL9bMrjEZ0QpJQv/NIKGcQkYiIiIiI7hwyi8D683UrKiqCwWCwviIiujriUFwXFxfrK7oaK1asQGRkJBwdHXH69Gl07txZ+n1eK/GrQavVws7OzprzJ23GCbw5fhGGjh6Ddj41vQErTi3Dwx/twJAPB8FfKXy5yBXwdLPDvLGz0Gr0RDza2EPaT1xYZdHUoXC873s83MIFFceX4qkpWZj+fW8sfW8+ENkRXX31+OmrnXjsh6mIOL8En5xphLlPB+Gbbzeh3b2tcHB7Ap544Sms+vwpyHpORYvEn7G4qgdmvNMXdjIj4nbMxndrzOgeVIjtih6YOqI3bIxa/DLlNcQ3eh2vtCjFW7NWYMKoKfCuPIC339qKF+dOQWDeHrwm5r/+AuaM+RotRk7EY2GeUr0NJVH4/P15MLfpiG7+Bsz9ajse/nYqHgyp+VxEdUnt+R0fHw9PT0/Y2NhgzZo1GDZsmHUPIiIiIqL/968GEefPnw+5XH5dN65EdGcym82orKzkTew1+q+DiLrcaHz08odoOuI7DOrujZy4NNj7OGDnV+/id81T+Oz9fpAV5SG/qAq7f/kQzhcFESeNCcVnH+/Ee3Omod65VRj2wlK8snbOH0HExa/2wKF1P2Lurwlo+cJrGN7BF9+OfQqyu2agP7bik2/i8PG3k9DcTY8VM0Yjzvl+POAfh6krSzFu+tsIqIzFS6++Af+nZ/1zEPGjT3Dypw+wS/U4JnzQX6p3xvGNGP3Nabw/Zzq8k1Zj+LDFeHH1HAYRqU5iEJGIiIiIrsW/GkRctGgRevbsCQcHrmxJRFdHp9Nhw4YNGDp0qDWHrsbNDCLqcs5g8ndrcP/Lb6BVPUcpz2I2InHPYny/dC0K9A5wDO6CD99+Ho5liVjywxzsTS2EvasvHnryBVQf/xKabuMwoKkTKmI24b052fhgfH/snPwxNiTJEd4oGFXpVRgw+l2EZW7GzAR/THuuK8pTj2Dur8cxYPgwBGn0WDr7PRjbf4Jn27jg0Ko5WHggBtVVBtRv1Q8vD3oIbspirPn+K2w/kwWzewO46vPge9fLeLZZJaYs3IjXXv0QnlWnMPnz3/HoxPfhV3QEE635LtoULJnzI/YkC/V28cGDjz2N/M0zsO6cTKqfLrMS/T59F33r1yzgQlSXMIhIRERERNeCQUQiuiUwiHh9bmYQUWTQ66FQqSCXyaw5NfS6KhjN4nBmJWw0aoibzcZq6PQmabtaYwuZSQeLwgZKhbDRYhKOY4LGTi2Oda7ZT66CSm4R/hDKF7brjDLYqmvWQTYaDVAoVFK5Jr0WJrkGaqVcCmLqdHqIX2hylQ1sVDXzG5qF/XV6g5CpgI1QhBFKqFUK6PXVUKk0kMGMauF9ShsbiNX5I/+iequEeiss+r/UTybUT3nR5yeqCxhEJCIiIqJrwYVViIjoqqnU6v8LIIrUNnZS4NHWpiaAKJIrNVKemMTAoUJtWxNAFMkUsLUTyrpwPxuVVL5CKEAMRtYGEEVKZU0AUSSWIwYQRdJ+1mPUBhBFcmH/mjI1kKs0UgBRpFbXBAqFN0JjWxNA/Eu+4MJ6q4QdLq4fA4hERERERHQnYRCRiIiIiIiIiIiILotBRCIiIiIiIiIiIrosBhGJiIiIiIiIiIjosriwChHdEriwyvW5eGGVdu3aQS6/vudERqMRSqXS+oqIbidmsxmJiYlcWIWIiIiIrlidDCJaTEYc374Ih85rEdJxAPq3CrRuuQpV+Ti4eTPOV/uj7z2d4eWitm4gov8Cg4jX51KrM6vV196uiV8N4t+Jra2tNYeIbidcnZmIiIiIrtYNHc5s1JVj2eTB6DfgAXw46zdUWMOVuvxjGPn0o+h330MYs/ggzFKuGadXf47HHuyHp8YtREGFXsq9FLHcXYvH49OxE7BwX7I192JmlGUnY9PPszDoUeFY/fphwIDn8MHkpUipMCH//BF8OfZDvD92BnbH5sAkvsWoQ2lRNvLKdMINtFTIZWkzDuDdpx7Bg4+MxLH8cmsuEdGtQSaubnwd6d8og4mJ6dZLRERERETX4oYGEeXCharaVIWT+/dh+5YtSC+pyU87uAFLd+3Eod/3Y9f6/ciU4oVliN1/FL/vPQkj1LBRq6R9r1VVfgK++mQwXvhgLNZv345Dhw5h//71WLFuBVJytPAMbo3Br72Lt18ahMgQTyhQhVMrf8S7LzyG0fN/Q4XBWtBlGLWFiBLKPXosARXWPCIiIiIiIiIiotvNjQ0iqm3QvENPhDibUFCYgryiSsBcgegTZ1FttEAmMyIj4zhSMoX8yhIkZhbCIK+HlmENoFaLT8qNUs/A5OQkJKWkIKesShpi91dmVJTk1eyTkYNKg7jdiLTTu7F+42lU2dbHcx//iHUbf8OGpYvw7hN94SSXwahyRNO+D2DgwI7wcVejKCcOWzdswLrt0chISkVyehZ0BrF/ohm6imKhnslISkpCWl4BDKYrHwFeVVqE1OSa92aI9dMZrVtqmKorkJuaIny+NBRWGVCanyHtm1uqs+5BRERERERERET037qxqzPLlPCu3xR+/o4oycpDfHoOjGWZOBidDns/X4QG+6E4PwspuUWoyMtEXE4GbBsGoXXzhlDDgIQ9i/H+y4+jd+/O6NyrF54c8T52n823Fi6yoDTrNKZ8OAzdu3ZFrweexOTFu1Git0AmNwnHB9RKE5xdPdC0TSS69OuPF18eghZBdihO/B0jnhDKfeQFrDuSiAUjB2Pab8dQLZS6f+EE3P3kC/gtJl8oPwqzxr2Kewd0Redu3dD3mUH4csNxVOlrBmFfTvapvZj43ivo37u3ND/ZgPsewwfT5yMxr1LabjaVYtu8zzCo/13o2rMvnn1jPCZ9NAide96ND5YckfYhIqorDOW52Lx1F7LKxZaUiIiIiIiIbic3NogocKgXiBZBQVCVZCE2PgOZyecQn5IG3/D78PjdobAtzcDpM0lIy0hGVnoRAvzCEeLngrLkY5gxeSrWntXgmTE/YPaIR1C191dMnLEIqRXWAJ5Bi6j1P2PL0TS4ONugMuUUfpgxAzvjilA/vBM69wiHuSAFcya+hkFDX8APa/Yjr9wMuVwGsS+hvloLbZUWFqUdHn3nc7zQrRlshPw2D7+JBV9OQJcgYNOPU/HFwkMIeWg05n/7Obrq4/HNmHHYlVgkVeHvlKUcwedj38OsX3dCq7KHdz1PaPPPYvHMUfhg5goUVFUj/rf5GDvtJxzKM8DJwQZZh1Zj9c6z0GqrrihISUT0XyhNOYaxM79AepHWmlPDWJqJ1avWI6NCaN+2f4Pxy/datwAmob1eMWcUVhzPtuZcG2NlHg5vXYAPnh2MwYMHY8hzH2F3yuXbYyIiIiIiIrp+NzyICAdftGsVABt1Cc6nnsf52BNISbcgqM1d6B3ZFBplGY5ERSMr5RzyS23g06ITAhz0SDyxE/sO5cHD1gXK4hSklpogU8uRGPM7knOrasq2AKEd78OiTTuxY/VXuK+5O/Sp8Th2Ohmo1wrvjZ2Md55/EAHyMhzYuAojX3sGw0Z+g7PWnoC1ZAoV/MIiEeTuKL12CwhFhzYtYFcVi7VL98Gi9ISfpgzxiZnQq1QozTmNA3EX9oi8iEWP8yd3YOeeBLg16IbxP23A77t2YNHEYQjUmHDst82Iy03G9tVbcL5AgVYPvY1fNu7Ful9+REcfjbUQIqJbk7G6HHFJKbjczA7l+UmITi+1vhKaRbMJ2UknkVv294tm/SNtMdZ8MxXzDpdg8ORv8M0332DiR4/By1F8/ENEREREREQ30o0PIkKNZm3aw97GBnH7j2Lv4T0oVLmgVdsmCGnfCxEOtkg9FoVTcTEoUtmjTWQEbM1GFGSmINusR0HGCfw6by4WrN6Japt6qO/nBaW11nKNA5p0eQCh9dzgGdIKLYLEYdDVqKioQrVeB88GXfD2pJlYsHw5Jrz2ABz15di/7Ges238O+iuY1tCQnY5YbTW05enY8ctCzFv4C6IKbBASHARnG4V1r0swW1BdUYIqswoB9duga/tAOLh6ommfPgi11cBQmI2sAh3KtFWwwBUdOrdHWIAT/BqGo1PretZCiIhufVX5SZg34WU8O2Q4Rn2zFkV6aa37y9KXnMfiaaMwbNBgDH5zCmLyyqEtTMGqH8bhucFD8Ma7U3E8rxq63DhM+2w0vv5mCl54aSLW7liLvelqvPriSwj3tYOdnR28w1uhibsdco6txEefTcfX00dh1JRVSBPKW/1HeVNwPLcapqocrP72MwwfPBiDnhqBtTFZ1hoRERERERHRP7kJQUTAObQNItw0KI2Lxt7oGCiCe6Jrc1eonUPRroUbtOdi8dvB/ZB5tEJkuKfUw1ApV0ABFTzC+2P6mm3Yt38/tqxZgi/Hf4gO9e2lcs0mI1KjolFSWY3SxDOIScuAXmMPD+FYGdFb8M13q5FdYUGj1u3x7POD0TrMCzCUIju3CKbLjBauqNTCbBZ2UKmhlMlh61Qfg6YvxG6hDru3/YZZs2bhxZ7B1r0vQZyL0cYWapiQlXEWp+JKYKyuQsqB/UgRypY5e8HNxRb2KpXwF1CCE2cTUagzoiz3DA7FXd9QPyKim0eLfT9PwZGqrpj81XQ83ysQRdnWnuJ/x2JEwoENOF5QH+NmfoOxLz8IX/tqbJnzFY5Y2mPm11/giVbAiqWbUFJVhei9u5Dl1QMzp70G36p8KN1aINBVbS3sT7rCZGzefgohA17Bhy91x3GhvMPmmvKebCXH8qUbUVylQFjPRzDl62/w4ZN+WLZ0F8qs7yciIiIiIqLLuylBRLVLKNo2c4RBn4izcXo0bNccwbZqqNUuiGjbDCYhP/asFi7NWqKph3BzqLRBeKfe6BAIZEStxHvPPI6HBw7E48+/gh/2pkEpF1duFhi0OLV6Oh6+bwAeGvwONkZlwK1RU3SICIUlPxELJ72Lpx4diH797sGDQz/EwYR8qD0C0CjEG5r/60hoB+8gVyhVwOnVM/H4i+/gQFUjPNjJB/qKBHz9zst4VKjDo088hXfnbIX+gnF8uoqj+PTZR4Xj9JPSI2MWwTG0Izq3cUFB4hZ89PyDuPe++zH44x+QpFegxwMD0Lp+A0R2aQJH22ocXzYFzzx0Lx588h1sif2HG3AioltFaRYORAFdnugLXwcnBIe1QsP6NdNC/D05vAIaQ5a/CdO/W4JSRw84VxfjwJEoHN62EG+/PgKz1u5FRk4mdDojbPwi0L9TY9jZ2UIltNvV1Ubg/1bpF8hVCGreFR3CvGFnKsbBo0J522vL2yOUlwGtSYaqlJMY9/EITPx+I+IPnQNnUyQiIiIiIroyNyeIqHFEy8gOUFuqodV6oH1EU9jYKCBTa9CwRSRC1GK+I3p2aQ1XWzUgk8O3dT+8+8GH6BnoiKzo4zh06CRSSz3QyNfXWqpAo0Foz+7wN6QgOjEXNgG9MPyNt9GlsSucA8LRpkU95KScEt57CNFnU+DdpBNeefttDOzS+BIf3B6tBzyFXhGNYMxLQUJeOWy8gjD0o7EY0qUJ7LLO4sihwzgdX46GviGwU/8ZhTQZixAjHEM8jpiOxWfCuUFnvDdmJAZ2j0BZehwOHTmGfL0L7n3qdXwy5H64qZVoMeB5PNP3LthpC3DmTAJcQ+/BI3f5W0slIrrVySAX2muNsqZrt8FQjWpdzZyztrZO0GcX/dnTz1KIqkIl3J2d4dW8H8bP+B79vM9jzDtjcTilDA4OXnhixBh88823mDN/GX4cPRxeDkrARgW1TCZ8W8lRLyQIZXGHkVRUYS30AsI+MjsNpJZZIYeDvVDeGzXl/SiUN2f0UOTvm4cpyzMxfOQUjB/xGLxdOJciERERERHRlZJZBNafr9uiRYvQs2dP4WbQAZWVlfizaDMq81MRey4HRmgQ0Lgx/N1qhiTrK/MRd/YcKg1qIT/sj3yRxaRFXmIC0ourYIASDm4BaBzsDZXCgKzEY0grVcLZvwFc9RlIyamGg7uwvZE3xIFuZrMRhTkpyMrPR1UVoFQq4eYdgICAmu1GXRniz55BmdkejcPC4WavEsdHozg1EedzS6HwDER4sA9s5GaUZ6ciKSUHVcINs1LtjpAGQXB3UcGkLUTMqQQh/69UQj3bNvYXPoAZpXmZSErPhc5ggL29G/xDguHmUDsUzwJdcR7Onk+HUaaAVz0nrJswHD+fNuG+d2dj9MBm1v2Ibm/29vaorq7Ghg0bMHToUGsuXY0VK1YgMjISjo6OOH36NDp37gyN5toXahLbb61WK807eLHC+F14bfZqTBo5EvG/fom1eYF46cmuyNi/HCPmJGLxr98gzByFD99aiPBnB+OecE8kH1+N9ScU+GjsG9Cd24uYHA+Euxfh5+9XoMnwDxEYOxfzjtph6BsPQlWQB2h80NizBO+OX4gho8eivY8TzPoSrPtmCnZm2+P+px9HkFC10vRkyBq1gdvZRXh7qzPmThkEF7Me+xdPwrwjthg64iGpPIvSHYqUlfhipwwjXrgHCatm4Ov9DfDLjtEIsn4uojtF7fkdHx8PT09P2NjYYM2aNRg2bJh1DyIiIiKi/3dDgohqtRpHjhyBm5ubdQtdGQuM1ToYzOLIPBtolNZh20S3KblcjuLiYrRs2RIymYxBxOtwM4OIVXnnsOZAFAbcfR9szQXYMH8OjudZUL9FOzgZdejS/x74OyiRl3gEy5etR7ZWBo1XMzz19H1o4GaDzNObMX/5QWjlNmjWbQDuu6sVbAzl2LX8K+xK0MLWIwAPPPoswhyKsX7HcbS7ux8CHGo+i1lfiTN7VmHJ7jipR7lNveZ4dvBDcMg+irXxGjx1fyRshXyjtuwv5d0vlBdun4/lixfgbLEj2rdsgMwCRzz+fE/wm4ruNAwiEhEREdG1uGFBxDNnzqBDhw5SD8BrJVbNYDBI5RHR7Uev1yMmJgaBgYEMIl6nmxlEJKK6jUFEIiIiIroWN3RORLGXkRhEvJ4kulQ+ExNT3U4Kxf+tbkREREREREREt6ibsrAKERERERERERER1V0MIhIREREREREREdFl3fAgojjvjtlsvmz6F6dlhNmgRXp2EQzm6ynTiMK8XOiNV15GUV4mKvRG/HufhIjo2l1J2/tP6d8og4mJ6dZMRERERERX64YurNKpUydpsYSqqirrHjUqKiqkBVNEDg4OcHZ2hkqlkl5fSKza303sX5l3Dlti8tCnUzs42vy5eEtF0j6MmLEdL742EOnxuejauzu87NSAoQQHftsM24gBaBXkKOxpwPkDv+G8bQT6tgqqebOVriwB0z+ZiI6vf41ejcR9L1CVh40bNiIhswSQK9Cg8/24J9wJMz58DvYPfoGX7mqEf5rpzZgTjS3RZvTo0wL21jyiO03t+c2FVf4dFy+s0r59++uad1L8+zEajZdsm4mobhPPbzGQmJCQwIVViIiIiOiK3fThzFlZWVi//gMsWPAQli9/HHv2LPsjoHg1KrLOYNGGTdAaTNacWhZpxVeVqRy7F61AdJFOyq3MjMUPsyfii3WnIb3DWIjNi5fjRObF7xdZYNBVwXjRg3qjLh/zJ4zGgSw1Itq2RbNm3shLK4fCxhFPvjoaD7UJgD7zFCZM/Q4JRX8NnF6o/NxRfPfz7yixviYi+reJi9eIgYHrSWIQ8lL5TExMdT+JD26IiIiIiK7GTQ8iij0U3d1X4ZFHTuHee48gIWE1dLqaQN+1spiMOLJpDmbM/BKr9pyFXshT+dRH+8BS7DuaKe6B3PRUOPuHQnfoGDKFHQw56ThV7oNO7bxRdn4/fvz2K3z51UKczfsz+Feb/9XXq5FSrkN1VQJOny5G7/sG4q6uXdHnrkfw3L1NpAvx7II8lFWVYN+G5di4biXmLViGU2nFqC7JxJrF32HGjG+x7VQa9JcZQVR2/oB0vBlffoV1R1OsuUBO1CZ8P3sGvvp5M3bs3IKTQrkciERERERERERERDfLTQ8itmjRAiUl/WA2y5CV5YGQkH7SE/FrZ8LhRRPw09pEhLRuAUV5OhLPlQn5LojoFIH40zGoMOgQE5cI3x5PItw2BvFpZUhPjoMqwA/OKfswZc4aqP3DEOZSjDlz1iHXDJSlRWP9/rPwbhABl8o9+GbRNhhsGqJdW2fMnDABO47Ho0RngkqtgFFbhu1rvsOR5Ar4+PjCydULDUND4K4oxqJvvsAZrQdaNXLBjh+/x+HM0ppqXyQ3eivGT5gHnVdDRDTxx66ls7HqRDbyYndgypSl0Hs3RlOPYiyYPgO7YnM49yIREREREREREd00Nz2I6OXlhU6dRmLpUlekpoaiSZNe0rC7a1aZhm0709Hx+bdxX7ceeKB/L4QFi/MYyhHUthvckw4gOvU8Th2PRXjTdmjW0BmxMfGIP50IV/9GyDiyBYfPFCE38QxOpaYh6dCvSMwwQFWvEfo/9ATu6yuU+UQ/lO3Yg3RdPTwxcho+ejAIm3+cgQ8++gRHUspr6iGQK+0Q3KwVvLwD0a5jJJzyj2DF+hiU5KbiZEIaCjL34UBMsXXvC5h0iPl9B3RNBmDwg/1x11398WiEDQ5u3o8TBw5C1fJhKb9Hr3vQsaWf9U1EREREREREREQ3x00PIoqUSjVqpkE0wmS6zj51VRXIq7CDb31b6cNYhP/LZTVl2nmEI8y7BDu3bEahsS1aNvVGWLg3zh3ci2PnktGgcTBQqYdLo9Zo3bYtOvV4AO+N+hTNPeVQq1RwdqhZ0EVpZwM7QxG01YBM4YgO9w/DxC8+xyMNq/HdD1uQL+31/0w6LQyuDdC+czu0bdsJg98X3hPpY916AbMJ+gojVC6eUIsfQq6AnastLOXFKM0pAzzq1eTL5FAoLjWHIxHRzWPSVyEjvwimi1bB1+XGYdq0rxGdW47q0mzklPx1btiSgixUVl97G2Y2ViMrPRnFVReVYTaiMCsdWcV/PxftxXKPr8K4Hzah1KDDylkfYM7ORBhgQn7MVox943VM+GEl5kwT8nckCPlERERERET0nwQRxdU+bW3DYGfXAk5Oztbca+Tkheb+ZTh+KAl6iwnnY44iIaOmt59SbYcmQfVxaO166Np3hL9GjeBmrZFxdjFOxjshskUwgsIDIM/MQWBEJDp3bgUfRzehbgqU5ZzHvpMJ0BkNOL/vIEoCWsLPMQ8xJ1Jq5ly0s4eHowNKqrS4cO1SlVoNZZUBVSYz1P7NEarIgMG+ETp27QB/Zw94OFxiInOFCvXD6yFj+yaklupgNpTidHQ2fJuFoUGYB7KOHUVBpR6GnCjsPn7O+iYiov9GSfJhfDJ5EjKK/zqfrcVQhcRzydCaLTiz+Ut8tHC3dQtgrK7A4llvYfFhcZ7aa1OdE4sxL9+PD+fuR7U1T6QriMOsj5/Dqz/uteb8M11xJk6dy4PRYoGnTwD83OwgNxZg47wVcOv7GkY82RuNgsV8+//mi5KIiIiIiOgWc8PvjcRFR+Ry+V+Sq6sHBg6cgXbt3oWnZ71rWiFQoXFAgIcz5DaeGPDicyjeNB1Dh72MFdEVaN0kCEqxTKUNwrq0hZ+DIzq1bCh9WMf6TdC3YQs4t+yGQHcbNOr9Ip5sr8OkD1/CkBdGYO3JHCigRP3GjaGLWoV3XhqCiXuq8cxrT8PFkIEln32MoYMHY/DgIfgx0RVvvXofXIRy3dy9YaOUQ12vIe5uDsyeMAm7st3xyiv34OAPr2CYsP+MtQegsygAG3tUZm7Ge1I5gzH6p63w7DQMw+92wpRPXsOQl95Fqnt3PHt/OzTv9yR6+6VizJsv4PXvd0PjfImejEREN5leX/3H3KwluSk4f/48MgvK/1j0yWw2okr/1x6DYg9Gvdj73NpzMEl4z/n0fOitPRrLCzKlctIzC2AQCpJ6HuYWorQoR8jPhtZshsEvCGV7fkNiae2RTEg+cwpxscJ2k/iIp7bHYk2dzmf/2WPSpNciM1XIS05Dma6mf6FCbYuIHgPRLdwb2twMpBXooNWWQC+3qclv4i18JwiqS5GSnFTzOfOFz2msRGZysvQ6I6tYqAUREREREdHtTWYRWH++bosWLULPnj2hVqulVZg7deok/Xwlh7hUIFF8n1arhZ1dzbDiv7KguloPjUYj/WzQCjen4j2l0gZKGKES8msipMJ+QhlyjR1U1pCpUbj5rTbLYWejgnhUs1EPbfWfN5Q2KhkMuiqYZUJJRqM42SHsbcXjmFFdqRVKryFTqIQy1NLPxupKWJS2UCnkMBmqodOLdbCFWikTjl8Fo1C3P/YXbqArxbHRVrX5FpMBVbqam+CaetRUuLY8k74AP38+Co73j8dznQPYO4bqtNrzOyYmBoGBgVIbsGHDBgwdOtS6B12NFStWIDIyEo6Ojjh9+jQ6d+5sbR+vzeXa38L4XXht9mpMGj0ZNhk7MW3aHFTXj4CrpRq/Rxdj8vdTId89DlOzumPZO/dJ7xF7In4z9knI+3yNp4NS8eXU5ahwcIZR7okX3xsK9+wD+GHJbyiBA8wlRkQOeh0D/PLw0YdjoGjYGu7K+njgwUb4dvEGhCuEvbq8jUH9QiHXF2H5rBmIyc9AovuDWPb2vTi26mvM25UIB2d7lJRXo8cjL+HJro1w6Jep+HF7LDz8G0KeG4sT6j5YMu1xLP98GGRdP0Mn7Sa898k8qCMGYPiQx5GyZyI0PaZgWBsbbJwzAyvOGRDgLIfZoR1eHmCDnxbvh0muQH6+Fk+PHo0eAU7SZyW61dWe3/Hx8fD09JQWuFuzZg2GDRtm3YOIiIiI6P/dlDiUGBzghdUMAAALbElEQVT4p3T1ZBfcIMugsrWHvb2QNAop/88PJuxn+2cAUaRUa2BvDSCK5Ep1zXuFVBO4E8qzsZfKkfKlAKJIDo11PzHVBhBFSo29FEAUKVQ171Mra8rSWOv2x/5iUPIS5YjBxNq8mnqYkXvmGNZv3IW0nByc3roeUWU+aBvmywAiEf33TEXYuWI17Lq8i2mfjcabT3dHPYcLJ3i4BIsRWWejkS0LwbC3PsL4j4Yg2LYSa+YvQ4FXL7wwZBDu7eiAo9s2oUwL6ErlaNRnEEZ/+jwau9hBrrZHx569UHB2O4qqLCiL241TVQ3RtamH8F0CVGcexIJl+9D7xYmYPPFzjB3aGbsWrkJMehQ2rT+Fe9/8GpPHfIhHuoXDTvi+EJmqq2CACi16PYz7OnTAI6+8igEdQyAX8vUmI1KOb8T2OFt8Mm4yJnz2Gd55tju86nfAkDdewZDBTyLSvQgbN0dDqC4REREREdFti7GoW5ocLj5uKEk7goU//YTd5x0wYtzHCHerufElIvpPleTjVJIdWvduDI1MDlunenB2+vPhyiXJVAhucxfa1C/AlxM+xrfbTkBbVIQz53KQFrcL8+fOx/azVfAPDoRabobSNwhtQ9ytbxbJ4BXaGq5VBTibnoqDRxLRpu9d8LAu8m/My0C6PBKtmjkLe8rh1iAEHnkxSD2VgDPmlmgp5svV8KznBvmVfAMaDcg8kwyEd0J9oe2VyzXw8ndE6tHdmD9jGr77eRH2R+WiSvvn8G4iIiIiIqLbEYOItziNWwgGvzEKEydOxMiPB6OZpxMU19Jxk4jo32ZrD3+XauRllkpzIZYWZqGgqFDa5FYvCLros0ixzotYVXga+TluaBTgDaVzAJ4bMRYjh/ZA+vrl2J9ejdBAJ3S4eyg+E9q6cWNG45VH7oKDRviKEnurSyVcwK4e7u/dGBtXbUSC0R3tw+r9sY/crR6cdbE4lyYG9cyoSM9EuUMA3AM84WoqREGxARaTHqnpadDra6aPuCy5DC4eKhTFRaG4UvyURlRknseqRetg2+MFTBr1Lu5q5lWzLxERERER0W2MQUQiIro2dl7oObAdDs//AlO+mIafVu1AelnNcGa/dv3Ru14Ovhw9HjNnzsRnU5ZC0+0ZdAqSI+HAMowb/QWW/xYDo5MXHHxC0f+JR5G8cho+mzkDU7+cjb2ns/5YpOX/yeHetB08E2Nh07AdfB3/HEKt8Y3EU318sOrLMZg+czqmLT6ARo89gdbhzdCrlR5zxo3EjFmzsfFIEqpNV9CrW65GaPdH0dkhDl/Omobp0yZj7qZEhDd3xJkdqzBz9nzsi8617kxERERERHT7uqELq4iT/F/bfId/Ehc2USqt49SI6LYiNj9iW8GFVa7fzVxYxagrR2JmPhoFBwtfIjqkRp1AeiVg7x0MR+F1QINg2MoBfVUhYqNiUaYHFA710KplI9jJLKgqTEVUbDr0UKBecBga+btLcyVmxx/GuXwTFDb2CGvaAq4qPc6l5sBfKM9OLoNZX4Vz2YVoEOAPOcwoyUmC2TkY7vZKlOWeR3K1O1oEukj7xcdGIV84sH29YLQM9Yc4Ze0f9bHYIsDHDaUGBzRt4I785CjIPJrCx1GGjHOpUPmHwMvGguzafGcNdEVpOB6bKhxVDq/QVqivKpBew8YDDb2VqFR4IdhHHEJNdOvjwipEREREdC1u+OrMKtU/TLJ/GWLVdDodbG1trTlEdLuoPb+5OvO/42YGEYmobqs9vxlEJCIiIqKrccOHM4uBgetJ/0YZTExMt2YiIiIiIiIiorqBcyISERERERERERHRZTGISERERERERERERJd1w+dEFH++Vlc6J5fFbMSxg9vgEtoNoV721lwiupXVnt+cE/HfcfGciO3bt7+uRanEvx+DwXBdbTgR3dpiY2M5JyIRERERXbG62xOxKAGfffw6XvlkCo4m5mLr6m9xNKXUuvHKiCt47lk6CU8/9gq2JhRbc4mI6jYxeCguqqJQKK45iWWIi1pdahsTE1PdT3xAQERERERXq+4GEQ1VyHGNwHuvD0dzXxtr5tWRq+3Q9ZHheKSFO3RmayYR0W1ADAIyMTEx/V3i4lZEREREdLXq9pyIciXs7e2glP95IWysrsCR1T/glVeGYfDw4Rg5bwuqDWYpf+fPk/DiC4Pw8vuTMH7COCw/nAqLyha26msf8kdERERERERERHS7u70WVrGYcW7PAsxem4oho6Zixvj34By7Cj9uicX5Q79iyc5yDB83E2Ne6In0o8eRVaq1vpGIiIiIiIiIiIj+zu0VRDTqkBSVDK/Od6O5tytcvYLQq50fUg4fR9TRRHh06Sfle/g3QWRLL+ubiIiIiIiIiIiI6HJuryCiQCk3oFpbDaOx5rXJLIdcqYDCbJLm/7GIcx+Kq8JWldXsQERERERERERERJd1ewURlRo06doR5sPLsf1kFOLPHMbOqAI07d4OLTo0Rt6+VThw+gyij2zHhsPp1jcRERERERERERHR5dwWQUSZXIHITv3QsJ4j/CMfwzuv34vjG5Zh0aq9CH9gBJ7s2hANuj6JFx5qgl2/LsLGBBN6RTayvpuIiIiIiIiIiIgup24HESsLkZ6VC7PaCX0HvoJ2QS5CpgzBHR7AuLET8NmoT3B/u2CoFXIYdGY0u+d5jJswCW/d1xDV1UCIjycq8rOQV6GHpaZEIiIiIiIiIiIiukjdDSLaeaKDhwGbtmxHapHemvl3zCiMO4yvJo3FzK++wsQx81ER3BetAzSIO7AN5+X1EOBqa92XiIiIiIiIiIiILlR3g4iOfnj2lY8w8o0hCPXUWDP/jhye4W1x7733oHWLFrhn0IsY+fZT8HdxQPsHXsHY0W+gdT0b675ERERERERERER0odtrYZXLUNg4onmbTujevTs6d2wKR2s+ERERERERERERXd4NDSJaLBaYzeZrTiaT6brLYGJiunWTTCazthZEREREREREdCuTWcQo3b9k0aJF6NmzJ9RqNc6ePYvIyEjrFiKivxIDiGJbcezYMQQGBkqvN2zYgKFDh1r3oKuxYsUKqc11dHTEmTNn0K1bN+sWIqJLO3nyJDw9PWFjY4M1a9Zg2LBh1i1ERERERP/vhgUR4+Pj0aVLF+sWIqJLO3LkCIOI/wIGEYnoajGISERERERX446ZE5GIiIiIiIiIiIiuDYOIREREREREREREdFkczkxE/ykOZ/53XDic+ejRo6hfv751CxHRpWVmZiIsLIzDmYmIiIjoijCISET/KQYR/x21QUQXFxcUFRVJK9sTEV2O2O66urrCZDIxiEhERERE/4hBRCL6TzGI+O+oDSKKAQEioqthMBgYRCQiIiKif3TDgoji6qBt27a1biEiurTo6GgEBwcziHidNm7ciIyMDMjlnOqWiK6O2WyW/nzxxRelP4mIiIiILuWGBBE1Go3UE5E3s0T0T8TgYWhoKIxGI4OI10Ecjij+DomIrpV4/UZERERE9HduSBDRwcHBmkNEdGV0Oh2DiERERERERES3qH81iLhgwQI4OTlBpVJZc4iIroxer0dWVhZeffVVaw4RERERERER3Sr+1SBiZmYmKioqrK+IiK6Ora2ttMgKEREREREREd1a/tUgIhEREREREREREd1+uPIJERERERERERERXRaDiERERERERERERHRZDCISERERERERERHRZTGISERERERERERERJfFICIRERERERERERFdFoOIREREREREREREdFkMIhIREREREREREdFlMYhIREREREREREREl8UgIhEREREREREREV0Wg4hERERERERERER0WQwiEhERERERERER0WUxiEhERERERERERESXxSAiERERERERERERXRaDiERERERERERERHQZwP8ApO3ZSsZsxKIAAAAASUVORK5CYII=;" vertex="1" parent="1">
                    <mxGeometry x="-125" y="11.000000000000007" width="1179" height="569.96" as="geometry"/>
                </mxCell>
            </root>
        </mxGraphModel>
    </diagram>
</mxfile>